<?xml version="1.0" standalone="no"?>
<!DOCTYPE svg PUBLIC "-//W3C//DTD SVG 1.1//EN" "http://www.w3.org/Graphics/SVG/1.1/DTD/svg11.dtd" >
<svg xmlns="http://www.w3.org/2000/svg" xmlns:xlink="http://www.w3.org/1999/xlink" version="1.1">
<metadata></metadata>
<defs>
<font id="prince_valiantregular" horiz-adv-x="600" >
<font-face units-per-em="2048" ascent="1638" descent="-410" />
<missing-glyph horiz-adv-x="686" />
<glyph horiz-adv-x="0" />
<glyph horiz-adv-x="682" />
<glyph horiz-adv-x="559" d="M45 1573q0 -98 64.5 -164t162.5 -66t164 66t66 164q0 94 -68 160q-66 68 -162 67q-98 0 -161 -67q-66 -66 -66 -160zM123 1573q0 61 44 105t105 44q63 0 107.5 -44t44.5 -105q0 -63 -44 -107.5t-108 -44.5q-61 0 -105 44t-44 108z" />
<glyph unicode="&#xd;" horiz-adv-x="509" d="M61 1024q16 -16 30.5 -29.5t25.5 -21.5q10 -12 33 -62q20 -49 20 -82v-495q0 -16 -31 -141q0 -12 54 -103q45 -82 102 -82q39 0 115 66q27 23 47.5 44.5t36.5 41.5q-2 6 -9 12q-18 -6 -32 -6q-18 0 -54 29q-27 20 -37 41q-18 31 -18 59v620q0 10 6 29q16 43 17 41l10 19 q6 12 6 18q-10 2 -19.5 3t-13.5 1q-18 27 -31.5 45.5t-21.5 30.5q-43 59 -61 59q-20 0 -111 -82q-39 -27 -64 -41v-14z" />
<glyph horiz-adv-x="1257" d="M-174 -436q0 -45 53 -45q72 0 191 82q96 63 170 135q20 16 34.5 26.5t22.5 14.5q16 10 35.5 18t42.5 17q14 8 14 22q-51 33 -51 139v1014q37 10 63 12q53 47 98.5 88t80.5 76l16 17l-10 12q-100 -57 -180 -57q-49 0 -68 6q2 92 4 177t6 163q0 16 24.5 35.5t43.5 19.5 q20 0 49 -27q27 -23 39 -34l12 -11q63 -45 129 -45q53 0 127 35l92 68q4 4 10.5 8t12.5 8q-20 -35 -21 -68q0 -57 54 -92q45 -31 106 -30q109 -1 238 151l-1 2t-3 4q-49 -23 -91 -22q-90 0 -159 63q-27 25 -33 82q-31 -6 -59 -45q-49 -20 -87 -20q-63 0 -147 47 q-57 43 -86 64l-29 22q-139 -96 -221 -160q-45 -35 -108.5 -63.5t-114.5 -51.5v-16q31 -43 35 -66q18 -102 18 -184q0 -16 -2 -18l-84 -76q-51 -45 -55 -72q27 -16 67 -12l64 2v-858l-25 -352q-4 -61 -55 -113q-49 -55 -104 -55q-37 0 -53.5 13t-34.5 42q-25 -6 -47.5 -36 t-22.5 -56zM805 1026l33.5 -33.5t21.5 -17.5q53 -70 53 -144v-495q0 -16 -30 -141q0 -31 53 -103q57 -82 102 -82q72 0 199 152q-4 8 -8 12q-18 -6 -33 -6q-14 0 -53 29q-55 45 -56 100v621q0 12 7 28q8 16 11 26.5t5 14.5l10 19q6 8 6 18q-14 2 -22 3t-10 1l-54 76 q-41 59 -61 59t-111 -82q-20 -14 -35.5 -23t-27.5 -18v-14z" />
<glyph horiz-adv-x="1265" d="M-174 -436q0 -45 53 -45q72 0 191 82q96 63 170 135q20 16 34.5 26.5t22.5 14.5q16 10 35.5 18t42.5 17q14 8 14 22q-51 33 -51 139v1014q37 10 63 12q53 47 98.5 88t80.5 76l16 17l-10 12q-100 -57 -180 -57q-49 0 -68 6q2 92 4 177t6 163q0 16 24.5 35.5t43.5 19.5 q20 0 49 -27q27 -23 39 -34l12 -11q63 -45 129 -45q53 0 127 35l88 66q49 -23 49 -62v-1184q0 -31 -20 -65l-25 -45q0 -14 8 -17l72 -59q10 -10 25.5 -30.5t38.5 -53.5q33 -49 51 -51q147 88 209 172q-2 2 -3 4t-3 4q-23 -6 -33 -6q-37 0 -111 111q-25 37 -24 81v1123 q0 203 106 203q35 0 60 -64h16q72 53 72 94q0 23 -22.5 40.5t-45.5 17.5q-41 0 -141 -58l-166 -65q-90 -47 -142 -47q-63 0 -147 47q-57 43 -86 64l-29 22q-139 -96 -221 -160q-45 -35 -108.5 -63.5t-114.5 -51.5v-16q31 -43 35 -66q18 -102 18 -184q0 -16 -2 -18l-84 -76 q-51 -45 -55 -72q27 -16 67 -12l64 2v-858l-25 -352q-4 -61 -55 -113q-49 -55 -104 -55q-37 0 -53.5 13t-34.5 42q-25 -6 -47.5 -36t-22.5 -56z" />
<glyph horiz-adv-x="987" d="M-66 109l9 -5q51 37 112 37q137 0 285 -47l231 -76v-133h31v127q63 -12 127 -12q84 0 152 43q16 8 184 143v17h-16q-57 -51 -164 -51q-90 0 -283 55v649l217 182l-16 21l-201 -168v543h-31v-570l-106 -90q-2 70 -37 279q-25 174 -25 274q0 129 74 164q31 10 43 10 q39 0 135 -45q98 -45 138 -45q49 0 127 47q8 4 35.5 25.5t78.5 56.5q-10 8 -16 13.5t-8 7.5q-41 -14 -72 -15q-20 0 -109 43q-88 45 -153 45q-39 0 -49 -8q-98 -63 -184.5 -131t-161.5 -141q-6 -6 -13.5 -20.5t-13.5 -32t-9 -34t-3 -28.5q0 -31 3 -74t11 -98 q16 -119 33 -168q-59 2 -105 -14q-55 -20 -137 -107q-27 -27 -27 -33v-12q63 37 132 37q76 0 118 -96q4 -12 8.5 -24.5t8.5 -22.5l-230 -195l17 -18l221 184q6 -37 6 -72q0 -186 -76 -225q-29 -6 -49 -9t-37 -5q-25 -8 -47 -25q-12 -8 -34.5 -24.5t-55.5 -44.5 q-68 -59 -68 -74v-10zM283 297q186 162 186 381v29q0 16 -2 36l104 86v-614q-70 20 -115.5 33.5t-70.5 21.5q-29 4 -51.5 8.5t-38.5 6.5t-12 12z" />
<glyph horiz-adv-x="546" d="M57 432l17 -18l100 84v-226q0 -23 -20 -65l-25 -45q0 -10 8 -17l72 -59q8 -8 24.5 -28.5t38.5 -55.5q35 -49 52 -53q20 12 47.5 32.5t62.5 49.5q74 57 98 92q-2 4 -6 8q-29 -6 -32 -6q-37 0 -111 111q-25 37 -25 81v334l103 88l-17 17l-86 -74v758q0 203 107 202 q35 0 59 -63h17q72 53 71 94q0 23 -22.5 40.5t-44.5 17.5q-37 0 -146 -60q-182 -102 -227 -110q-37 -10 -86 -13q-10 -4 -16 -10q0 -4 8 -10q35 0 63 -19q33 -20 33 -53v-926z" />
<glyph horiz-adv-x="1351" d="M-8 27q86 41 141 41q72 0 322 -72q248 -74 374 -74q121 0 203 64l234 172q12 10 16 16v12l-29 4q-92 -92 -297 -92q-121 0 -288 43l-285 74q-35 4 -62.5 6t-50.5 2l19 19q141 125 238.5 217t154.5 153q47 53 81 90t52 58q37 2 41 6q6 0 19.5 -2t19.5 -2q158 0 279 96 q38 33 114 68v14q-10 12 -22 12q10 0 -11.5 -5t-68.5 -17q-57 -14 -103 -15h-133q84 113 146.5 196t105.5 138q16 29 19 39q-8 8 -15 8q-29 -16 -39 -18q-78 -111 -143.5 -195t-118.5 -145q-145 -172 -203 -240q-47 -55 -80.5 -93t-56.5 -60q-66 -66 -134.5 -130.5 t-139.5 -127.5l-168 -123q-131 -98 -131 -121v-16zM43 1217q0 -80 74 -80q39 0 104 57q59 47 84 86h-26q-27 0 -47.5 23.5t-20.5 54.5q0 29 35 76q55 74 149 73q41 0 226 -51q178 -47 235 -47q78 0 207 41q4 0 4 -14q0 -51 -170 -332q-23 -37 -70 -90q-20 -29 -36.5 -53.5 t-32.5 -47.5q-164 12 -156 13q-8 0 -27.5 -3t-27.5 -3q-117 0 -299 -144q-18 -23 -21 -31q94 43 205 43q41 0 86 -3t96 -11q4 -4 9 -4q-35 -51 -87.5 -113.5t-123.5 -134.5l-250 -252q-4 -20 -4 -12h16q16 0 141 125q63 63 86 92q78 78 127.5 129t71.5 74q135 150 213 238 t100 114q41 47 91.5 111.5t109.5 148.5q162 224 162 273v20l-8 4q-96 -43 -160 -43q-82 0 -236 37q-150 39 -231 39q-260 0 -502 -229q-96 -90 -96 -174zM387 2232q20 -27 42 -68.5t48 -99.5q57 -121 92 -202q14 -33 28.5 -68t31.5 -74q72 37 164 33q12 29 24 55.5t23 53.5 q53 127 100 219t88 151q-4 8 -4 9h-16q-39 0 -66 -21q-74 -82 -100 -129q-39 -51 -72 -106.5t-59 -118.5q-16 35 -37 71.5t-47 77.5q-12 20 -37 55t-60 87q-59 84 -120 84h-17q-2 -2 -3 -4.5t-3 -4.5z" />
<glyph horiz-adv-x="903" d="M18 20q0 -23 27 -22q27 0 61 33l52 51q8 4 30 4q37 0 160 -53t174 -53q154 0 289 194h-12q-74 -49 -142 -49q-41 0 -133 45t-141 45q-63 0 -166 -57q23 37 27 41q47 63 75.5 101t38.5 52q127 182 140 189q14 8 47 8q4 0 4 -2h4q119 0 270 149q4 12 4 17q-12 0 -41 -15 q-16 -8 -27 -11t-16 -5q-43 -14 -108 -14q-27 0 -51 6q186 266 239 350q64 96 64 119v24h-13q-182 -88 -247 -88q-86 0 -221 66q-66 33 -82 33q-33 0 -111 -66q-66 -57 -88 -92q6 0 19.5 1t21.5 1q16 0 108.5 -39t151.5 -39q53 0 152 39q104 41 112 41q23 0 23 -23 q0 -53 -152 -272q-43 -57 -78 -57l-200 2q-47 -37 -84 -64.5t-64 -48.5q-2 -14 -4 -12h264q18 0 27 -8v-11q-51 -82 -102.5 -156.5t-104.5 -144.5q-29 -41 -53.5 -70.5t-42.5 -47.5l-60 -41q-41 -29 -41 -50zM199 1825q37 -53 90 -168q29 -59 51 -111.5t41 -93.5 q14 -33 28.5 -66.5t30.5 -72.5q72 37 164 30q12 29 24.5 55.5t22.5 53.5q53 129 100.5 221t88.5 152q-2 2 -2 4t-2 4h-17q-39 0 -65 -23q-74 -82 -101 -129q-39 -51 -71.5 -106t-59.5 -119q-16 35 -36.5 72t-47.5 78q-12 20 -36.5 55t-59.5 88q-59 84 -121 84h-16 q-2 -4 -6 -8z" />
<glyph unicode=" "  horiz-adv-x="686" />
<glyph unicode="&#x09;" horiz-adv-x="686" />
<glyph unicode="&#xa0;" horiz-adv-x="686" />
<glyph unicode="!" d="M78 1444l4 -14q55 -4 100 -68q113 -162 113 -602v-64t-2 -88t-2 -88v-63q0 -80 -23 -199l23 -10q10 29 19 51.5t16 40.5q33 51 57 72q-16 27 -21 51q-8 47 -8 276q0 217 12.5 379t34.5 275q14 73 45 104q-68 8 -147 74q-33 23 -49 22q-37 0 -94 -61q-29 -31 -48.5 -52.5 t-29.5 -35.5zM96 35q113 -55 185 -55q63 0 153 86q23 23 45.5 46t42.5 46l-10 8q-59 -37 -86 -37q-53 0 -154 49q-18 -12 -61 -49z" />
<glyph unicode="&#x22;" horiz-adv-x="800" d="M80 1540q121 -98 121 -268q0 -76 -37 -152l16 -10q162 223 162 289q0 59 -41 125q-41 70 -90 98q-41 -27 -74 -46.5t-57 -35.5zM459 1540q121 -96 121 -268q0 -76 -37 -152l16 -10q162 223 162 289q0 59 -41 125q-41 70 -90 98q-41 -27 -73 -46.5t-58 -35.5z" />
<glyph unicode="#" horiz-adv-x="899" d="M106 399h175l-39 -301h41l43 301h206l-40 -301h40l46 301h159l13 99h-162l26 194h166l15 99h-168l43 305h-43l-41 -305h-209l43 305h-43l-43 -305h-170l-14 -99h172l-27 -194h-174zM336 498l29 194h206l-26 -194h-209z" />
<glyph unicode="$" horiz-adv-x="800" d="M78 326q4 0 13 3t20.5 6t21.5 6t17 3q31 0 47 -6q88 -39 137 -111q16 -25 26.5 -41t14.5 -26v-142h35v172q88 63 135 99q178 135 178 309q0 63 -18 117q-29 86 -72 86q-8 0 -80 -59.5t-111 -59.5q-37 0 -57 20q-129 129 -129 226q0 53 37 53q8 0 77.5 -59.5t110.5 -59.5 q27 0 54 15q4 4 24.5 20t54.5 49q74 70 74 84l-4 12q-2 0 -14 -4q-29 -23 -62 -22q-35 0 -71 24q-31 27 -62 50q-4 12 -8 14q-35 6 -43 6v127h-39v-137q-178 -139 -246 -223q-18 -23 -18 -68q0 -14 1 -23.5t3 -17.5q18 -57 76 -127q63 -82 118 -82q37 0 103 55q63 55 70 56 q27 0 51 -47q27 -55 26 -136q0 -154 -51 -180q-90 154 -227 154q-55 0 -121 -45q-61 -41 -92 -90z" />
<glyph unicode="%" horiz-adv-x="1449" d="M100 563q43 0 154 -86h25q143 129 311 135q-12 39 -12 84v340q0 33 10 74q-16 0 -72 43q-23 20 -41 33.5t-29 23.5h-38q-139 -125 -304 -125q14 -27 15 -59v-395q-12 -35 -19 -68zM262 664v411l80 35l92 -88v-395l-74 -47zM410 0h90l540 1206h-90zM860 82q39 0 154 -84 h24q146 131 312 133q-14 37 -15 84v340q0 33 11 74q-18 0 -70 43q-23 18 -41 31.5t-31 23.5h-37q-145 -123 -303 -123q14 -27 15 -59v-381q0 -37 -19 -82zM1022 182v412l82 35l90 -88v-396l-76 -47z" />
<glyph unicode="&#x26;" horiz-adv-x="1177" d="M94 705q6 -49 12 -70q2 -39 3.5 -61.5t1.5 -30.5l-5 -232q0 -35 7 -49q10 -23 15 -34t7 -15q80 -121 125 -158q70 -55 184 -55q68 0 115 53q41 53 79 91t71 65q49 -66 73 -99l25 -34q76 -94 133 -94q41 0 90 59q29 35 48.5 60.5t33.5 41.5q4 16 4 17q-53 -31 -67 -31 q-37 0 -115 84q-8 10 -23.5 39t-42.5 76q-37 63 -37 32l21 46q10 23 19.5 42t13.5 35q10 31 18 55.5t15 43.5q45 -6 59 -7q41 0 82 25q20 12 92 80t72 78q0 8 -4 8q-63 -47 -115 -47l-184 18q-45 0 -80 -20q-18 -10 -62 -51q-49 -43 -49 -52q0 -8 4 -8q53 -2 82 -6 q51 -2 51 -51q0 -25 -22.5 -76t-38.5 -67q-6 10 -10 15t-7 9q-47 86 -83.5 159t-65.5 136l-84 182q14 16 21 25l8 8q96 117 116 150q35 59 35 135q0 127 -102 264q-16 0 -29 -4q-51 -49 -88 -85t-59 -59q-35 -33 -58.5 -56t-40 -39.5t-30 -29t-23.5 -20.5q-49 -43 -49 -53 q0 -20 31 -39q10 -25 22.5 -50.5t22.5 -52.5q63 -160 63 -174q0 -27 -82 -65q-72 -35 -123 -43q-35 -6 -58 -9t-38 -5zM274 360v355l140 69q66 -137 110.5 -232t71.5 -149q63 -128 86 -159q0 -35 -76 -74q-29 -12 -67 -12q-33 0 -113 22q-35 10 -96 78q-55 63 -56 102z M412 1245q68 90 86 90q16 0 39 -37q67 -104 67 -223q0 -78 -61 -145q-68 164 -96.5 234.5t-34.5 80.5z" />
<glyph unicode="'" horiz-adv-x="499" d="M119 1540q123 -98 123 -268q0 -74 -39 -152l16 -10q162 223 162 289q0 59 -41 125q-41 70 -90 98q-41 -27 -73 -46.5t-58 -35.5z" />
<glyph unicode="(" d="M211 733q0 -158 1 -255t3 -136q8 -215 59 -381q41 -133 119 -133q23 0 101 61q41 37 67.5 64t42.5 43l-10 6q-72 -61 -90 -61q-55 0 -84 59q-78 180 -78 713q0 487 55 874q14 104 66 158q16 18 31.5 33.5t31.5 25.5l-10 19q-92 -84 -141 -127t-56 -47q-43 -41 -55 -123 q-27 -186 -40 -383t-13 -410z" />
<glyph unicode=")" d="M-8 1655l8 -10q72 66 90 65q57 0 86 -61q78 -178 78 -713q0 -246 -14.5 -464t-42.5 -413q-16 -102 -66 -155q-31 -31 -63 -58l10 -18q78 68 127 111t71 61q43 37 56 123q27 186 40 382.5t13 409.5q0 297 -6 390q-6 113 -21.5 208t-38.5 177q-41 133 -118 133 q-25 0 -101 -64q-84 -74 -108 -104z" />
<glyph unicode="*" horiz-adv-x="700" d="M119 1354l190 -33l-133 -172l86 -76l90 207l88 -209l88 82l-133 168l187 39l-35 127l-166 -96l25 221h-115l28 -219l-163 90z" />
<glyph unicode="+" horiz-adv-x="999" d="M119 397h323v-313h115v313h324v113h-324v315h-115v-315h-323v-113z" />
<glyph unicode="," d="M178 117l2 -13q92 -59 92 -182q2 -94 -94 -190l12 -11q20 16 34 29.5t22 22.5q39 41 68.5 70.5l52.5 52.5q55 63 55 145q2 84 -66 190h-26z" />
<glyph unicode="-" horiz-adv-x="849" d="M53 467l3 -12t1 -9q45 51 72 66q33 20 96 16l301 -20q80 -4 129 41q25 21 142 164v18q-70 -80 -224 -74l-290 15q-74 2 -140 -70q-33 -37 -90 -135z" />
<glyph unicode="." d="M115 74q0 -49 55 -74q45 -23 98 -23q57 0 156 37q51 23 61 41q-8 8 -12 15.5t-8 11.5q-23 -25 -49 -25q-51 0 -92 47q-39 47 -39 103q0 12 2 18l-6 6q-31 -23 -62 -48t-63 -52q-41 -35 -41 -57z" />
<glyph unicode="/" horiz-adv-x="999" d="M-121 -106l117 57q25 35 46 67.5t42 61.5l897 1397q80 135 134 227t83 145l-104 -71q-53 -92 -93 -159t-69 -112q-252 -406 -479.5 -759t-434.5 -660q-49 -70 -83.5 -118t-55.5 -76z" />
<glyph unicode="0" horiz-adv-x="940" d="M76 178q29 -20 57 -33q180 -84 264 -192q82 63 195 139t256 168q0 29 -6 78q-4 27 -6 46t-2 30q-4 72 -6.5 145.5t-2.5 151.5q0 421 41 532q-94 41 -161.5 75t-110.5 56q-4 4 -16.5 11.5t-28.5 21.5q-25 14 -31 18l-168 -88q-92 -47 -156.5 -76.5t-105.5 -43.5 q37 -90 37 -220q0 -297 -6 -409q-16 -246 -25 -336q-10 -41 -18 -74zM268 299q37 301 37 641q0 14 -3 54t-7 110q-4 66 -6 104.5t-4 55.5q29 12 48 21t34 18l141 -111q74 -57 133 -74q19 -4 27 -12q-12 -47 -13 -227v-238q-2 -80 -2 -139v-99q0 -35 -7 -95t-21 -148 q-47 -39 -76 -58q-129 156 -281 197z" />
<glyph unicode="1" d="M57 1210l4 -8q49 16 56 17q68 0 121 -148q2 -74 2 -164q0 -88 -4 -192q-4 -150 -5.5 -239t-3.5 -120q-16 -123 -18 -135q-43 -47 -75 -81t-54 -56q8 0 24.5 1t24.5 1q47 0 125 -51q82 -51 98 -51q25 0 33 4q53 39 92 70.5t66 56.5v12q-6 -2 -29 -2q-45 0 -123 70 q2 610 6 737q2 72 5.5 131t9.5 106q6 51 6 37q0 8 -12 19l-17 16q-61 115 -121 115q-27 0 -47 -13q-92 -53 -164 -133z" />
<glyph unicode="2" horiz-adv-x="940" d="M74 786l8 -4q33 20 58.5 38t43.5 34q57 39 78 66q8 10 8 36v146q0 68 15 117q6 27 14 34q8 10 35.5 30t40.5 20q4 -2 45 -43q49 -51 69 -64q47 -25 90.5 -44t79.5 -36v-61q0 -37 3 -88q2 -49 3 -86t1 -64q0 -94 -78 -160q-72 -57 -156 -110q-242 -207 -348 -522h12 q137 119 217 118q53 0 189 -65q137 -66 186 -66q25 0 51 23q33 35 54.5 57.5t31.5 36.5l76 82l-24 20q-37 -68 -70 -67q-29 0 -160 65q-127 68 -196 68q-115 0 -250 -129q-2 2 -2 4q41 123 168 254q125 131 245 182q55 25 93 41.5t59 26.5q61 25 61 92v467q-82 14 -149 61 q-176 115 -166 115q-4 0 -39 -22q-20 -14 -32.5 -22.5t-20.5 -12.5q-72 -41 -116 -66.5t-60 -36.5q-109 -63 -123 -82q-14 -16 -15 -79v-218q0 -29 -30 -86z" />
<glyph unicode="3" horiz-adv-x="940" d="M57 217q96 -2 219 -65q129 -68 193 -162h10q20 23 46 48t59 52q14 10 41.5 32.5t72.5 57.5q92 70 154 117q-25 82 -25 336q0 49 17 102q-137 45 -164 56q-121 51 -166 73q39 47 65.5 80t43.5 51q202 240 241 346l-4 7h-26q-20 0 -56 -2h-39l-227 10l-225 28 q-25 -20 -105 -114q-29 -39 -48 -69t-34 -52q4 -2 10.5 -3t10.5 -5q43 43 59 51q23 12 53 10l336 -26q61 -6 154 22l2 -10q-92 -129 -159.5 -210t-114.5 -120q-53 -45 -96.5 -75.5t-75.5 -51.5l12 -22q41 20 51 20q41 0 152 -51q96 -41 127 -62q20 -10 22 -24 q10 -37 10 -158q0 -119 -1 -184.5t-3 -81.5q-14 -20 -33 -21q-2 2 -16 13.5t-41 34.5q-29 27 -50.5 44t-35.5 25q-39 16 -67.5 28.5t-49.5 16.5q-25 6 -63 6q-29 0 -121 -41q-47 -23 -75.5 -38t-39.5 -19z" />
<glyph unicode="4" horiz-adv-x="999" d="M-10 446h16q68 68 225 68q39 0 92.5 -6t120.5 -16l164 -27v-139q0 -106 -37 -152q-23 -27 -41 -46t-28 -34q-53 -59 -53 -69q0 -8 8 -11q39 31 63 31q29 0 96 -29q61 -27 89 -26q53 0 110 45q10 8 39 35.5t76 74.5l-8 9q-8 0 -26.5 -10.5t-37.5 -10.5q-20 0 -65 17 q-49 18 -58 32q27 61 27 78l2 115q4 53 0 88q63 6 78 6q57 0 110 78q29 45 51.5 77.5t36.5 55.5q-2 2 -3 4t-3 4q-16 -6 -18 -8q-82 -63 -197 -64q-49 0 -55 13v436q14 129 37 178q0 2 12 19q10 14 10 20q-53 -33 -82.5 -49t-33.5 -21q-72 -47 -80 -100q-18 -104 -19 -168 v-321l-202 12q-158 6 -332 -105q-2 2 -2 7q430 389 503 639q41 139 41 184q0 16 -4 33h-12q-39 -23 -79 -48.5t-85 -56.5q12 -41 -8 -151q-16 -86 -82 -222q-47 -92 -186 -253q-49 -53 -83 -90t-54 -58q-33 -35 -33 -49v-19z" />
<glyph unicode="5" horiz-adv-x="950" d="M43 215q4 -4 2 -6q49 0 66 -4q180 -41 301 -203q10 -18 14 -35h14q57 47 114.5 94.5t115.5 96.5q45 39 86 76.5t75 78.5q18 18 17 29v440q-23 2 -43 19q-12 10 -21.5 17t-15.5 11q-164 127 -213 127q-27 0 -152 -112q-121 -113 -153 -113q-55 0 -51 74q4 100 10 191 t12 173l297 5q49 4 83 7t50 7q63 12 74 24q88 123 129 191q-6 6 -12 4q-43 -53 -228 -53h-243q-14 2 -38 3t-57 5l-63 4q-18 0 -20 -33q-10 -184 -19.5 -350t-15.5 -317q-4 -59 16 -60q10 0 43 29q72 70 113 107.5t51 48.5q8 8 37 8q41 0 137 -66q84 -55 115 -90v-407 q0 -27 -23.5 -63t-48.5 -48q-51 45 -85 75.5t-54 47.5q-72 59 -185 59q-94 0 -231 -92z" />
<glyph unicode="6" horiz-adv-x="940" d="M92 164q43 -39 164 -101q104 -51 170 -67q51 29 96 56.5t84 53.5q63 43 105 68q109 72 125 96l-17 17q-2 66 -3 148.5t-1 185.5q0 84 27 129q-25 10 -58 34q-156 113 -233 113q-37 0 -121 -59q-41 -29 -70.5 -50.5t-50.5 -35.5l-14 340q-4 84 0 143q57 37 74 37 q55 -35 110 -74q94 -49 199 -49q18 0 90 18q88 23 109 41q14 8 8 33q-35 -6 -43 -6q-66 0 -150 53q-51 35 -88 61.5t-61 43.5q-29 14 -31 18q-10 0 -59 -37q-45 -33 -98.5 -68.5t-112.5 -74.5q-33 -20 -68 -36.5t-70 -31.5q-10 -10 -12 -18q12 -70 18.5 -118t8.5 -75 l10 -598q-12 -141 -37 -190zM291 293q0 4 3 20.5t7 44.5l2 340q45 63 98 64q72 0 211 -98q35 -30 35 -50q0 -8 -5 -29.5t-5 -29.5v-59q0 -37 2 -88q2 -49 2 -86v-62q0 -125 -41 -125q-49 0 -174 55q-135 61 -135 103z" />
<glyph unicode="7" horiz-adv-x="950" d="M57 1126q12 -6 27 -6q20 41 51 54.5t74 9.5l354 -31q68 -4 172 21q25 4 33 6q-41 -80 -131 -183q-190 -225 -275 -374q-113 -199 -112 -379q0 -174 100 -238q51 -31 76 -31q49 0 201 189l-9 8q-33 -23 -63 -22q-76 0 -119 81q-35 66 -35 150q0 131 72 291q74 156 158 268 q162 209 227 289q37 47 63.5 82t43.5 57q10 21 12 27l-27 18q-27 -55 -53 -61q-76 -20 -219 -21q-29 0 -73 3t-103.5 11.5t-102.5 12.5t-71 4q-53 0 -99 -19q12 23 20.5 36.5t12.5 21.5l-26 6q-178 -244 -179 -281z" />
<glyph unicode="8" horiz-adv-x="940" d="M100 195q0 -16 13 -23q70 -33 118 -55.5t74 -34.5q23 -10 45.5 -31.5t48.5 -50.5q10 -14 18.5 -24.5t12.5 -16.5h8q-4 0 0 1t15 3q70 63 153.5 123.5t184.5 120.5q55 33 59 78l8 241q2 88 -84 133q-121 55 -178 80q-14 8 -12 15q129 80 239 82q4 2 5 4t3 4v112 q0 72 7 125l6 93q8 41 11 55t3 4q0 12 -6 22q-201 31 -338 125q-12 10 -21.5 19.5l-17.5 17.5q-2 -4 -12 -8q-106 -143 -342 -238q0 -8 2 -26.5t6 -48.5v-258q0 -55 86 -99l129 -61q-33 -33 -106 -49q-90 -23 -123 -39q0 -29 1 -67t3 -89v-57q-4 -102 -6 -129 q0 -8 -6.5 -26.5t-6.5 -26.5zM295 326l6 229q4 14 6 24.5t4 18.5q4 12 41 35q39 25 54 24q23 0 106 -43q39 -20 62.5 -32.5t31.5 -20.5q56 -47 56 -180q0 -256 -72 -256q-12 0 -70 43q-72 45 -127 78t-94 53q-6 10 -4 27zM305 1034v49q2 29 2 52v39q-4 12 12 43q16 41 41 40 q8 -2 48 -26q47 -29 65 -37q93 -41 193 -49q-23 -66 -25 -150l-4 -141q-4 -16 -21 -25q-78 -49 -92 -49q-16 0 -80 31q-29 14 -46 21.5t-21 11.5q-53 41 -62 82q-4 29 -7 56.5t-3 51.5z" />
<glyph unicode="9" horiz-adv-x="940" d="M94 174q160 -31 232 -88q35 -37 59.5 -65.5t40.5 -49.5q166 129 184 142l103 67q41 29 67.5 47.5t42.5 28.5q18 12 19 20q-37 119 -37 271v385q0 47 4 104.5t12 128.5q2 27 25 68q10 22 12 22q0 16 -82 43q-80 27 -112 43q-31 14 -60 26.5t-57 27.5q-35 -12 -49 -25 q-92 -63 -211 -119q-37 -16 -107 -61q-78 -49 -78 -62q35 -18 35 -116v-203q0 -86 -20 -139q2 -10 2 -17q0 -4 2 -8q111 -23 192 -80q16 -14 45 -38.5t68 -63.5l217 174v-16q4 -137 6 -247t2 -196q-16 -16 -35.5 -29.5t-42.5 -23.5q-35 66 -118 119q-84 55 -154 55 q-61 0 -113 -37q-23 -20 -47 -38.5t-47 -37.5v-6v-6zM287 760q25 94 24 158v278q0 35 74 66q70 -41 258 -123q6 -16 6 -176v-125q0 -70 -2 -158q-6 -14 -28.5 -30.5t-38.5 -16.5q-12 0 -146 78q-66 37 -88 43q-37 6 -59 6z" />
<glyph unicode=":" d="M96 164q41 -76 70 -113q39 -51 106 -51q47 0 82 29q41 29 79 53.5t71 44.5l-19 23q-39 -20 -79 -21q-47 0 -84 41q-49 57 -68 80zM96 1016q41 -78 70 -113q41 -53 106 -53q47 0 82 31q41 29 79 52.5t71 43.5l-19 24q-39 -20 -79 -20q-47 0 -84 41q-41 45 -68 80z" />
<glyph unicode=";" d="M96 1016q41 -78 70 -113q41 -53 106 -53q47 0 82 31q41 29 79 52.5t71 43.5l-19 24q-39 -20 -79 -20q-47 0 -84 41q-41 45 -68 80zM178 117l2 -13q92 -59 92 -182q2 -94 -94 -190l12 -11q16 14 29.5 27.5t26.5 24.5q41 41 70.5 71.5t50.5 51.5q55 63 55 145q2 88 -66 190 h-26z" />
<glyph unicode="&#x3c;" horiz-adv-x="999" d="M119 414l762 -340v116l-605 273l605 270v117l-762 -340v-96z" />
<glyph unicode="=" horiz-adv-x="999" d="M119 258h762v113h-762v-113zM119 539h762v110h-762v-110z" />
<glyph unicode="&#x3e;" horiz-adv-x="999" d="M119 74l762 340v96l-762 340v-117l606 -270l-606 -273v-116z" />
<glyph unicode="?" horiz-adv-x="849" d="M78 1362l8 -84q2 -35 3 -56.5t1 -29.5q0 -12 -2 -52t-6 -108q41 16 84 64q49 55 59 90q27 123 31 164v57q0 29 -2 57q16 41 70 41q53 0 141 -69q41 -33 75.5 -74t63.5 -88q66 -109 66 -201q0 -68 -41 -131q-41 -61 -144 -180q-102 -117 -141 -184q-59 -96 -59 -187 q0 -125 45 -125q14 0 30 15q94 82 95 90v10q-29 29 -29 84q0 129 78 248q45 63 76.5 107t50.5 67q33 45 59.5 85t48.5 75q54 84 54 170q0 68 -50 194q-20 49 -110 137q-100 96 -148 97q-4 0 -125 -78q-45 -29 -76.5 -49.5t-52.5 -32.5q-57 -35 -93 -56.5t-50 -29.5 q-10 -25 -10 -37zM211 41q100 -72 174 -72q39 0 117 62q70 57 90 96q-33 -20 -60 -21q-39 0 -102 31q-63 33 -68 33q-25 0 -88 -61q-53 -49 -63 -68z" />
<glyph unicode="@" horiz-adv-x="1599" d="M94 625q0 -238 182 -437q219 -231 580 -231q176 0 428 113l-24 51q-221 -96 -406 -96q-264 0 -438 180q-164 170 -164 397q0 293 141 488q160 213 445 213q268 0 442 -187q156 -162 156 -360q0 -137 -86 -297q-86 -80 -197 -115q-119 125 -119 172v391q0 27 37 80l-2 14 q-43 8 -76 29l-194 123q-76 -59 -121 -95t-62 -48q-61 -47 -61 -105q0 -51 43 -51q31 0 31 70q0 27 7 44t16.5 28.5t17.5 15.5t12 8q47 -16 113 -59q35 -20 58.5 -40t39.5 -36l-4 -68q-47 -12 -84 -21.5t-60 -13.5q-41 -8 -66.5 -15t-39.5 -13q-20 -8 -45 -11.5t-55 -5.5 q16 -39 16 -47v-100q-2 -51 -2 -84v-49q0 -47 -37 -105q45 -14 94 -53q53 -45 52 -88l14 -14q61 45 92 67q27 23 48.5 42.5t37.5 35.5q8 8 20.5 17.5t28.5 23.5q33 -68 49 -86q45 -53 74 -80q182 61 352 182q127 152 127 359q0 268 -205 436q-188 162 -462 162 q-319 0 -531 -209q-213 -207 -213 -522zM700 444q8 33 12.5 76t2.5 101q-2 33 1 61.5t7 52.5l164 45l2 -370l-82 -68z" />
<glyph unicode="A" horiz-adv-x="1267" d="M-10 -43l6 -8q51 31 133 31q16 0 44 -3.5t62.5 -7.5t62.5 -7t46 -3q57 0 94 37q16 16 26.5 31.5t18.5 25.5q31 45 52.5 76t33.5 49l-8 6q-51 -63 -127 -63q-23 0 -77 6t-144 20q92 166 125 242q35 84 60.5 158t41.5 139q25 -4 45.5 -7t36.5 -3q31 0 127 31l135 112 q45 -369 68 -473q80 -385 227 -385q43 0 92 66q39 47 66 81t43 52l-8 10q-57 -45 -88 -45q-70 0 -117 121q-35 98 -62.5 228t-43.5 294q-14 152 -24.5 263.5t-16.5 187.5q-20 229 -146 344q-81 75 -170 75h-2q-88 0 -170 -100q-29 -35 -55.5 -70.5t-52.5 -70.5l10 -11 q27 27 46 42.5t34 23.5q33 18 75 18q82 0 158 -71q-10 -14 -27.5 -33.5t-44.5 -48.5q-20 -23 -40.5 -54.5t-40.5 -76.5q-20 -41 -32.5 -78t-19.5 -68q-10 -47 -17 -94t-11 -94q-43 -27 -76 -55q-33 -37 -58.5 -68t-41.5 -53l10 -6q37 37 80 37q27 0 63 -15 q-29 -158 -55 -227q-66 -174 -164 -291q-59 -43 -86 -49zM467 848q16 82 29.5 143.5t23.5 104.5q43 182 98 235l48 47q51 -41 75 -157q12 -59 25 -201l16 -176q-51 -8 -84.5 -12.5t-52.5 -4.5q-29 0 -73 5.5t-105 15.5z" />
<glyph unicode="B" horiz-adv-x="1153" d="M-66 -2q0 -39 39 -39q14 0 21 2q2 168 176 168q68 0 319 -123q8 -4 13.5 -5t9.5 -3v-98h33v90q47 16 82 32.5t57 32.5q18 12 25 19q41 20 88 60t98 102q102 125 121 210q41 199 41 238q0 135 -76 209q-59 57 -203 98l-26 13q8 10 41 30q59 35 104 109q53 82 53 141 q0 80 -32 148q-55 133 -202 133h-9l-474 -11h-23q-100 0 -120 33q0 18 6 41q-14 14 -33 14q-12 -6 -12 -22q0 -37 33 -109q25 -63 43 -84q30 -32 76 -32h8l205 16q23 2 33 -2q-186 -170 -201 -299q-4 -23 -6 -40t-4 -28q-6 -45 -11 -49q-39 0 -41 -2q-57 -16 -114 -82 l-76 -86q8 -25 20 -24q45 41 93 41q121 0 131 -164q2 -47 3 -72.5t1 -30.5q0 -27 -6.5 -87t-20.5 -158q-2 -39 -18 -58q-55 -47 -97.5 -81.5t-70.5 -55.5q-96 -90 -97 -135zM246 272q43 39 119 125q36 110 36 369v14l-4 172q-2 53 -2 96t2 76q4 143 41 211q14 33 68 80 q29 4 51.5 7t38.5 3q51 0 88 -16q47 -20 82 -96q25 -62 25 -117q0 -113 -86 -201q-4 -4 -20.5 -15t-45.5 -28q-61 -37 -72 -37q-10 -2 -22 -6v441l-33 6v-445q-25 -16 -41 -28l2 -25q8 2 18.5 3t20.5 3v-639q-16 4 -27.5 8.5t-21.5 6.5q-103 32 -155 32h-3h-59zM545 201v659 q20 4 41 4q63 0 118.5 -20.5t94.5 -57t61.5 -90t22.5 -116.5q0 -147 -31 -267q-47 -178 -147 -178q-41 0 -160 66z" />
<glyph unicode="C" horiz-adv-x="1382" d="M123 729q0 -573 569 -719q61 -12 126 -12h18v-117h34v117q29 2 54.5 4t50.5 6q96 23 176 98q161 168 229 242l-14 14q-84 -102 -129 -131q-121 -73 -266 -73h-4q-61 0 -97 8v1122h-34v-1122q-219 45 -316 135q63 57 88 82q70 63 99 164q32 114 32 480v22v401l27 23 l18.5 -18.5t18.5 -16.5q96 -90 209 -90q74 0 250 139l32.5 32.5t18.5 20.5l-15 12q-53 -59 -143 -59q-76 0 -139 29q-84 51 -123 80q-20 -16 -35.5 -31t-30.5 -25q-164 -127 -190 -137q-49 -16 -76 -20q16 -61 17 -105v-317q-8 -4 -15.5 -8.5t-17.5 -6.5q-59 -14 -88 -53 q-29 -35 -47.5 -57.5t-28.5 -34.5l4 -8q33 20 64 20q61 0 96 -84q20 -55 20 -137q0 -223 -69 -287q-98 82 -156 217q-55 125 -55 263q0 121 59 323q53 180 98 250q39 49 62 68l-12 26l-246 -190q-27 -78 -46.5 -134.5t-33.5 -95.5q-43 -135 -43 -309z" />
<glyph unicode="D" horiz-adv-x="1300" d="M-66 -6q0 -12 23 -41h10q8 0 15 18q20 70 61 95q31 18 88 18q43 0 127 -21q45 -8 131 -40q41 -14 73 -21.5t54 -11.5v-78h33v74h24q78 0 201 104q53 49 94 86t68 64q131 106 190 305q76 246 76 465q0 365 -190 487q-94 59 -307 59q-33 0 -83.5 -3t-116 -7t-114.5 -6 t-82 -2q-127 0 -180 29l-4 -19q29 -102 45 -127q35 -53 94 -53q33 0 79 4t109.5 12.5t110.5 12.5t80 4q129 0 223 -58q158 -96 158 -452q0 -242 -59 -455q-90 -307 -273 -307q-49 0 -143 31v1188h-33v-1178q-154 53 -207 53q-6 0 -30.5 -3t-65.5 -7l23 23q90 72 122 149 q31 74 31 193v456q0 143 29 213q18 51 78 99q-8 6 -12.5 10t-8.5 6q-68 -33 -131 -92q-55 -55 -80 -117q-14 -43 -31 -139q-4 -20 -6 -23q-8 2 -14 3t-12 1q-55 0 -162 -137q-10 -10 -14.5 -17t-6.5 -12v-20l9 -4q31 45 69 45q90 0 125 -102q27 -68 27 -160v-103 q0 -203 -58 -266q-41 -33 -75.5 -55.5t-61.5 -36.5q-119 -100 -119 -133z" />
<glyph unicode="E" horiz-adv-x="1054" d="M-74 172q27 -4 43.5 -6t20.5 -4l264 -101q129 -49 223 -61h6v-117h37v115l6 2q162 4 332 143q88 72 90 84q2 18 -6 19q-2 0 -4 -2q-145 -92 -264 -92q-41 0 -154 24v668h203q8 0 51 -6q20 -10 34.5 -21.5t25.5 -21.5q10 35 14 55t6 24q4 10 11 27t18 39q8 20 13 31.5 t7 15.5q0 12 -14 12q-59 -20 -150 -20h-157q-53 0 -62 -2v409h-37v-421q-29 -35 -49 -57.5t-35 -37.5v453q0 51 17 74q19 30 76 30h4q51 0 161 -34q106 -33 156 -33q94 0 164 59q104 93 104 107q0 10 -14 10q-47 -20 -94 -20q-61 0 -168 30q-104 33 -156 33q-53 0 -129 -55 q-29 -23 -57.5 -46.5t-56.5 -45.5l-37 92q-31 67 -81 67h-1q-119 0 -240 -127v-8q3 -1 11 -1q19 0 63 7q66 0 100 -71q27 -53 27 -131v-256q-10 2 -39 2q-96 0 -189 -152q0 2 5 -10q37 10 61 10q98 0 129 -84q20 -47 21 -154q0 -182 -54 -260q-12 -18 -29.5 -28.5t-37 -16.5 t-37 -10t-27.5 -6q-18 -2 -71.5 -49t-53.5 -60v-14zM174 301q41 25 82 64q86 80 115 194q14 51 20 205q2 27 4 43t4 20q10 16 52 17h12t20 -2v-658l-18 6q-16 0 -139 46q-129 49 -152 65z" />
<glyph unicode="F" horiz-adv-x="1327" d="M8 -199q0 -14 15 -20h16q20 88 102 88q43 0 133 -43q92 -43 129 -43q45 0 162 53q55 27 146 115q27 25 46 46t29 40q82 137 82 342v422h95q129 0 147 -25q8 -12 6 -37q-4 -33 -6 -34l4 1t12 5q14 37 27.5 64.5t24.5 47.5q14 33 24 61.5t21 51.5q-20 -2 -39 -2h-33h-29 q-10 0 -20 2h-234v139q0 27 7.5 86.5t21.5 153.5q10 66 76 106q4 10 6 17.5t4 11.5l344 -33q223 0 363 170q14 15 4 25q-53 -41 -111 -58q-45 -10 -123 -10q-51 0 -112.5 4t-135.5 13q-78 10 -140 17t-109 11l-170 21q-70 8 -127.5 11t-102.5 3q-43 0 -84 -4t-82 -12 q-90 -23 -227 -148q-147 -135 -147 -223q0 -82 32 -82q10 0 39 31q29 33 29 43v61q0 25 2 35q2 55 31 86q49 53 131 68q39 8 151 8q121 0 246 -8.5t260 -24.5q-8 -8 -11 -13t-5 -9q-135 -72 -185 -213q-27 -80 -34 -248v-23q-51 27 -107 37v438h-37v-442q-98 -4 -217 -133 l8 -8h15q26 26 82 26h4q72 0 108 -16v-776h37v745q0 4 2 4t4 -2q80 -31 92 -149q18 -164 19 -219v-258q0 -276 -152 -277q-39 0 -131 41q-86 39 -131 39q-66 0 -211 -90q-18 -10 -51 -47q-35 -41 -35 -60z" />
<glyph unicode="G" horiz-adv-x="1531" d="M121 690q0 -178 51 -287q39 -78 131 -170t168 -133q141 -74 313 -92v-117h35v109q8 8 15 10h4q148 0 301 142q98 94 141 135q127 113 145 190q8 33 11.5 60t3.5 47q0 141 -80 243q-90 111 -227 111q-76 0 -134 -39q-16 -10 -42.5 -34.5t-63.5 -59.5q-59 -47 -59 -84 q0 -49 36 -49q25 0 27 33q2 47 14 65q23 35 95 35q135 0 211 -113q65 -95 65 -217q0 -45 -6 -78q-23 -86 -51 -121q-86 -106 -285 -106q-102 0 -121 8v1258h-37v-1254q-59 0 -180 72q-184 106 -256 246q-53 106 -53 270q0 223 92 487q4 10 12.5 28t20.5 40q10 18 15 28.5 t7 14.5q0 16 -22 16q-31 -18 -53.5 -31.5t-36.5 -23.5q-27 -23 -45.5 -38t-28.5 -25q-53 -41 -96 -254q-37 -188 -37 -322zM365 889q92 -23 118 -68q20 -33 21 -110q0 -174 -94 -256q4 -4 8 -7.5t6 -5.5q25 10 35 19q223 184 223 272v641q0 102 98 103q104 0 224 -78 q133 -86 145 -197q4 -31 6 -56.5t4 -45.5q117 84 131 98q31 32 31 100q0 131 -147 228q-123 80 -238 80q-80 0 -168 -64q-72 -47 -121 -81t-78 -52q-18 -14 -43 -51q-18 -31 -18 -121l4 -88q2 -43 3 -78t1 -61q-2 -2 -2 -4t-2 -5q-4 1 -8 1q-30 0 -78 -37q-53 -43 -61 -76z " />
<glyph unicode="H" horiz-adv-x="1449" d="M-33 6l13 -12q14 8 28.5 13t30.5 9q14 6 59 7l111 -13q45 -4 71.5 -7t36.5 -3q61 0 136 49l143 101v-111h31v743q20 2 32 2h25l98 -2q37 -2 60 -2h30q129 0 175 101q4 8 7 13t7 9v-563q0 -92 -27 -152q-12 -33 -35 -49q-61 -45 -86 -69l-21 -24.5t-18 -18.5l13 -15 q70 16 92 17q12 0 47 -3t94.5 -11.5t75.5 -11.5t-8 -3q53 0 229 164q-4 2 -8 6l-27 -12q-27 -14 -45 -15q-25 0 -75 15q-59 16 -82 16t-54 -6q-20 -6 -33.5 -9t-17.5 -5q31 20 50.5 32.5t29.5 20.5q53 35 59 65q16 70 17 95v807q0 86 24 190q8 37 17 49q23 35 92 90 q76 60 86 78l-6 6q-47 -23 -55 -24q-45 -16 -76 -17q-33 0 -96 19q-66 18 -87 18q-59 0 -104 -33q-23 -16 -38 -29.5t-25 -21.5q-63 -45 -64 -65q0 -4 6 -11q30 21 64 21h6q20 0 74 -19q55 -16 77 -16q53 0 56 -2l-97 -88q-24 -34 -24 -131v-8v-193q0 -61 -51 -61l-256 -2 l-127 -6v630q29 23 28 41q0 6 -8 15h-14q-47 -53 -109 -54q-20 0 -49 4.5t-69.5 12.5t-69.5 12t-45 4q-66 0 -131 -53q-14 -10 -40 -38t-65 -69q-33 -35 -32 -47v-16q4 0 8 -4q23 23 41 39t28 28q25 18 70 19q31 0 92 -12q63 -12 94 -13q51 0 166 56q-12 -18 -16 -23 q-41 -35 -63.5 -52.5t-26.5 -21.5q-61 -55 -70 -94q-16 -76 -16 -82v-207q0 -2 -6 -8q-37 12 -48 12q-88 0 -192 -178l8 -8q43 31 101 31q129 0 129 -246q0 -158 -29 -268q-37 -139 -82 -158q-133 -59 -244 -164zM264 162q53 33 105 88q43 49 59 88q8 25 16.5 49.5 t16.5 48.5q31 156 31 287v395q0 268 61 342v8q-6 8 -18 9q39 33 61 49v-643q-49 -57 -66 -105l-8 -20q14 -10 19 -13q25 35 41 31l14 2v-575q-16 -27 -54 -45.5t-71 -18.5q-18 0 -44 2t-58 6q-41 6 -67 9.5t-38 5.5z" />
<glyph unicode="I" horiz-adv-x="972" d="M-41 1300q0 -37 29 -36q16 0 35.5 23.5t23.5 43.5q12 92 31 119q29 47 102 47q74 0 240 -57v-443q-35 -29 -59.5 -49t-41.5 -35q-77 -65 -77 -87q0 -11 10 -15q8 -4 14 2q47 59 129 59q6 0 25 -6v-647q-39 16 -74 17q-111 0 -244 -109q-118 -99 -118 -132q0 -15 18 -42 h12q8 0 15 18q39 117 159 117q72 0 232 -63v-119h33v106q77 -26 131 -26h4q157 0 360 219q12 12 8 28q-6 16 -18 17q-16 0 -31 -25q-41 -55 -67 -73q-39 -23 -99 -23q-49 0 -143 31q-14 4 -36.5 12t-51.5 18l65 64q150 137 150 358v596q0 147 57 248q-2 2 -4 3t-4 3 l-115 -102q-74 -68 -90 -111q-18 -59 -18 -121v-116l-4 -2q-51 26 -59 26h-1q-14 0 -28 -6q-2 2 -3 4t-3 4v392q35 -14 82 -15q92 0 170 43q47 29 79.5 49.5t49.5 32.5q20 14 20 29q0 29 -18 14q-57 -45 -105 -45q-113 0 -174 21q-72 25 -104 36v101h-33v-92q-51 10 -103 10 q-74 0 -131 -39q-123 -84 -159 -121q-68 -68 -68 -154zM453 209v649q98 -47 98 -201v-194q0 -141 -76 -262q-23 6 -22 8z" />
<glyph unicode="J" horiz-adv-x="962" d="M-41 1300q0 -37 29 -36q10 0 35 28q25 27 24 39q12 92 31 119q29 47 102 47q61 0 117 -16l147 -45q6 -2 15 -6v-416l-37 -56q-37 -59 -39 -71l16 -4q0 6 20.5 21.5t29.5 15.5q4 0 10 -7v-161q-16 -23 -30.5 -44.5t-29.5 -41.5l9 -9q16 6 26 9.5t15 5.5q8 0 10 -2v-580h37 v588h30q27 0 74 -29q70 -39 70 -215q0 -145 -29 -270q-43 -178 -330 -178q-195 0 -241 53q-10 35 -9 47q-10 -4 -14 -10q-57 -139 -57 -160q0 -74 207 -74q92 0 163 31q113 45 218 139q174 158 213 289q26 83 26 299v16q0 53 -2 130t-6 182q-6 209 -6 311q0 182 88 250v12 q0 2 -10 2q-16 0 -52 -35q-184 -152 -184 -292q0 -45 17 -58v-8l-5 -6q-35 12 -49 12q-37 0 -114 -59v360h49q10 -2 14 -2h8h17q80 0 143 33q41 27 76 49.5t63 42.5q23 16 23 29q0 8 -8 14h-13q-39 -45 -104 -45q-25 0 -58.5 4t-78.5 12q-90 14 -131 35v78h-33v-74 q-76 10 -112 15.5t-32 5.5q-66 0 -104 -23q-123 -78 -172 -127q-82 -76 -82 -164zM496 791v161q6 -2 29.5 2t27.5 4q83 0 106 -102l-6 -25q-14 20 -43 21q-27 0 -114 -61z" />
<glyph unicode="K" horiz-adv-x="1431" d="M-66 1180q0 -41 29 -41q12 0 47 32q39 33 43 48q6 47 10.5 74.5t6.5 33.5q6 18 19 36.5t30.5 34t38 26t39.5 10.5q14 0 49 6q31 6 49 6q96 0 151 -43q33 -24 33 -185v-36l-4 -178q0 -4 -4 -17v-2q-12 8 -27 12q-23 12 -38 13q-78 0 -201 -129q145 -4 211 -125 q47 -90 47 -213v-29l-4 -57q-8 -205 -107 -205q-10 0 -32.5 8t-24.5 8q-8 0 -80 -65.5t-72 -73.5v-10q6 -4 10.5 -8.5t8.5 -6.5q39 -14 68.5 -25t52.5 -20q113 -57 190 -57q158 0 311 162q6 16 0 20q-10 4 -20 -2q-23 -8 -37 -15t-25 -11q-29 -6 -63 -6q-76 0 -238 61 q-6 2 -6 10q63 39 129 121t76 135q25 168 31 234q4 33 10 41h14q47 0 150 -179q37 -66 64.5 -114.5t43.5 -81.5q33 -57 52.5 -93t29.5 -53q68 -129 92 -159q61 -78 115 -78q57 0 129 65l123 123q2 2 2 8q0 8 -12 9q-72 -47 -90 -47q-59 0 -127 100q-10 14 -29.5 51t-52.5 96 q-49 92 -78 144.5t-39 66.5q-35 66 -54.5 103t-23.5 45q-57 106 -139 143q-4 4 -4 6q135 123 214 193.5t101 93.5q39 37 66 74q27 10 46 15t34 7q82 20 221 99q47 25 72 73q12 29 14 31v18l-8 5q-23 -2 -38.5 -12.5t-25.5 -24t-17 -26.5t-11 -21q-27 -35 -37 -41 q-53 -18 -209 -19l-53 2q-23 2 -37 2h-19q-82 0 -112 -24q-25 -23 -41.5 -37.5t-26.5 -22.5q-45 -37 -45 -51q0 -8 6 -10q41 20 86 20q84 0 84 -41q0 -39 -153 -161q-53 -41 -94.5 -73t-69.5 -52q-47 -37 -115 -109l4 526q-8 66 -35 93q4 2 6 2t4 2q66 2 109 3t66 5 q102 14 180 74l43 24q12 8 20 16.5t13 16.5h-29q-10 0 -29 -8q-27 -10 -30 -10q-76 -17 -118 -17h-5l-387 29q-15 1 -29 1q-77 0 -141 -36q-346 -203 -347 -356z" />
<glyph unicode="L" horiz-adv-x="987" d="M-66 109l9 -5q51 37 112 37q137 0 285 -47l231 -76v-133h31v127q63 -12 127 -12q84 0 152 43q16 8 184 143v17h-16q-57 -51 -164 -51q-90 0 -283 55v1227h-31v-1219q-70 20 -115.5 33.5t-70.5 21.5q-29 4 -51.5 8.5t-38.5 6.5t-12 12q186 162 186 381q0 55 -9 160.5 t-30 265.5q-14 104 -20.5 159.5t-6.5 63.5q0 129 74 164q31 10 43 10q39 0 135 -45q98 -45 138 -45q49 0 127 47q8 4 35.5 25.5t78.5 56.5q-10 8 -16 13.5t-8 7.5q-41 -14 -72 -15q-20 0 -109 43q-88 45 -153 45q-39 0 -49 -8q-98 -63 -184.5 -131t-161.5 -141 q-6 -6 -13.5 -20.5t-13.5 -32t-9 -34t-3 -28.5q0 -31 3 -74t11 -98q16 -119 33 -168h-13q-51 0 -92 -14q-55 -20 -137 -107q-27 -27 -27 -33v-12q63 37 132 37q76 0 118 -96q31 -74 31 -148q0 -186 -76 -225q-29 -6 -49 -9t-37 -5q-25 -8 -47 -25q-12 -8 -34.5 -24.5 t-55.5 -44.5q-68 -59 -68 -74v-10z" />
<glyph unicode="M" horiz-adv-x="1830" d="M-6 193q0 -55 16 -109q31 -84 101 -84q96 0 213 166q100 137 133 254q35 126 35 212v9l-11 477v14q0 112 31 218q8 20 29.5 41.5t44.5 21.5q31 0 90 -27q86 -33 135 -133q41 -86 41 -166v-217q-14 -10 -51 -14q-45 -4 -58 -8q-31 -14 -75 -49q-49 -39 -58 -66 q76 12 123 12h119v-157q0 -121 -3 -200t-11 -120q-2 -10 -14 -34l-13 -23q0 -23 51 -113q55 -98 84 -98q47 0 189 170q-14 6 -17 12q-23 -12 -31 -12q-71 0 -71 218v18l4 227q0 59 6 106q4 4 12 9q45 8 107 36v-788h31v807q47 27 77 63v13q-51 -10 -51 -11h-26v478 q43 47 84 47q37 0 79 -15q39 -14 70 -23t53 -18q2 -2 3 -4t3 -4q-29 -35 -36 -88v-932q0 -16 -9 -51q-6 -31 -6 -47q0 -18 8.5 -32.5t23.5 -37t40 -55.5q63 -86 94 -86t109 90q63 80 71 98q-37 -14 -49 -14q-20 0 -65 51q-41 47 -43 64q-12 45 -13 119v823q0 12 11 33 q14 27 14 30q27 80 45 103l76 90q49 55 59 82l-18 4q-57 -47 -122 -47h-5l-256 37q-4 1 -9 1q-36 0 -100 -42q-33 -20 -60.5 -44t-51.5 -53v123h-31v-170l-2 -4q-16 -45 -44 -82t-63 -69q-4 8 -6 10q-8 33 -16 51q-10 88 -92 184q-90 98 -174 99q-35 0 -134 -45 q-35 0 -102.5 20.5t-103.5 20.5q-80 0 -150 -43q-41 -25 -86 -68q-55 -55 -55 -86q0 -14 6 -16t14 -4q2 2 3 4t3 4q8 69 91 69h2q25 0 118 -20q70 -15 70 -19q0 -2 -10 -2q6 0 17 2t18 2q20 0 24 -6q-66 -102 -86 -155q-4 -16 -5 -27.5t-3 -19.5q-35 -111 -35 -220 q-20 -10 -33.5 -16t-21.5 -10q-86 -53 -139 -125q-12 -16 -19.5 -25.5t-9.5 -13.5v-10l8 -8q61 32 83 32h1q80 0 121 -80q28 -59 28 -132v-5q0 -27 -6 -89t-20 -163q-12 -102 -68 -135q-20 -10 -69 -10q-33 0 -70 10q-88 33 -106 78q-8 23 -17 27q-12 -37 -12 -90zM1026 870 q0 8 2 24.5t2 23.5q8 268 109 380l6 9v-441q-39 -4 -67.5 -6t-45.5 -2q-6 6 -6 12z" />
<glyph unicode="N" horiz-adv-x="1392" d="M2 -12q2 -2 4 -3t4 -3q45 28 91 28h3q45 0 125 -20.5t127 -20.5q43 0 56 4q39 18 96 64q8 8 28.5 26.5t55.5 51.5q8 8 4 14q-2 2 -8 2t-8 -2q-18 -8 -25 -8q-18 -8 -72 -8q-78 0 -123 12q-98 20 -102 33q164 229 164 585q0 39 -3 97.5l-7 136.5t-7 136t-2 97q0 53 11 105 q2 2 4 3t4 3q59 -74 117 -199l249 -616q20 -51 37 -92t29 -70q143 -340 291 -340q33 0 57 10q23 14 49.5 36t55.5 54q57 66 90 103q-4 4 -6 10q-2 4 -17 8q-51 -63 -94 -63q-45 0 -96 43v1143q0 37 16 90q8 -2 17.5 -1t23.5 3q59 6 119 49q53 41 84 62.5t39 25.5t12 8l6 6 l-16 15q8 0 -23 -9q-49 -14 -94 -14q-39 0 -98 14q-70 16 -101 17q-147 0 -292 -144q-4 -14 -3 -16q-2 -2 -4 -2l17 -2q39 20 98 20q150 0 150 -157v-879v-37q0 -20 -2 -43q-2 -35 -3 -53v-22q-6 -6 -8 -3q-55 88 -129 259l-108 264q-57 135 -95 227t-61 143 q-174 438 -369 439q-104 0 -194 -72q-96 -78 -96 -111q0 -4 8 -12q82 35 121 35q129 0 200 -102q-92 -104 -92 -283v-105q-47 0 -106 -40q-18 -12 -74 -72q-61 -66 -61 -88q0 -6 12 -15q45 37 78 37q63 0 103 -44t46 -107q6 -95 6 -147v-23q-12 -197 -82 -273 q-4 -4 -30.5 -24.5t-77.5 -55.5q-86 -61 -119 -118z" />
<glyph unicode="O" horiz-adv-x="1622" d="M109 762q0 -264 139 -428q160 -190 358 -273q20 -10 68 -18v-135h33v129l77 -12q88 0 156 28q49 23 180 111q35 25 74 55.5t80 69.5q117 111 160 196q82 163 82 353q0 74 -25 176q-63 254 -244 370q-82 55 -174 103q-201 100 -196 178q-31 -16 -82 -84q-49 -68 -50 -100 q0 -23 23 -72q14 -29 22.5 -47.5t10.5 -28.5q24 -111 24 -254v-12q0 -121 -18 -190q-27 -106 -100 -154v889h-33v-907q-57 -33 -119 -132q-18 -31 -18 -41q0 -14 38 -12q45 4 99 51v-315q-18 10 -37 22.5t-39 26.5q-184 127 -250 275q-49 113 -49 294q0 150 51 347 q8 33 24.5 67.5t39.5 73.5q53 86 100 108q74 31 74 43v11q-4 4 -8.5 7t-6.5 5q-37 -14 -49 -23q-147 -111 -200 -165q-215 -219 -215 -586zM707 240v362q8 12 10 14q66 121 96 187q117 248 117 448q0 39 -6 86q16 -6 30.5 -11t24.5 -9q170 -72 287 -252q116 -183 116 -367 q0 -201 -88 -331q-57 -86 -145 -138q-94 -57 -191 -57q-117 0 -251 68z" />
<glyph unicode="P" horiz-adv-x="1110" d="M27 51q57 -4 166 -31q90 -20 139 -20q63 0 147 53q61 43 78 60v-154h33v184q12 14 31 37h-31v510q35 6 51 15q137 53 225 149q74 76 150 225q39 78 39 189q0 49 -13 102q-10 41 -53 107q-39 63 -76 88q-89 56 -284 56q-19 0 -39 -1v74h-33v-76q-66 -4 -111 -8t-71 -8 q-59 -4 -99 -7q-66 -6 -98 -6q-78 0 -92 33q-4 6 -6 39q-2 23 -19 27q-14 -8 -14 -23q0 -29 47 -135q16 -35 30.5 -57.5t29.5 -30.5q14 -12 63 -12q41 0 113 14q82 16 110 16h29q-4 -6 -25.5 -27.5t-56.5 -58.5q-70 -70 -80 -157q-2 -8 -2 -31t-2 -58q-2 -59 -12 -69 q-18 8 -33 8q-25 0 -108 -76q-86 -78 -87 -100q0 -8 9 -17h12q39 51 63 52q137 0 156 -193q6 -59 6 -151q0 -340 -92 -383q-35 -6 -47 -4q-92 -78 -139 -127zM260 182q27 25 44.5 42.5l27.5 27.5q121 125 121 313q0 12 -1 31.5t-1 40.5q0 23 -1 42t-1 32v573q0 127 86 193 h22v-736q-20 -14 -32.5 -25t-20.5 -20q14 -14 39 -14q8 0 14 2v-528q-39 -23 -90 -23q-18 0 -45 4t-61.5 12.5t-60.5 16.5t-40 16zM590 766v709q74 -4 129 -25q201 -78 201 -322q0 -199 -99 -243q-109 -41 -155 -56q-25 -25 -76 -63z" />
<glyph unicode="Q" horiz-adv-x="1622" d="M96 776q0 -258 133 -440q119 -162 371 -289q66 -33 213 -39v-67h33v73q96 20 119 31q162 76 323 242q207 207 228 397q10 86 15 124t5 28q0 135 -31 225q-10 35 -33.5 86t-62.5 117q-47 84 -152 170q-92 74 -172 108q-74 35 -239 72q2 8 2 16v19v18t-2 19h-33 q2 -10 1 -28t-3 -44q-20 -14 -31 -17q-12 -8 -30.5 -22t-44.5 -37q-57 -45 -58 -57v-11q76 -6 166 -30v-1258q-63 25 -72 31q-131 51 -243 156q-117 111 -162 223q-47 117 -47 272q0 354 135 531q2 8 12 8q4 -18 27.5 -104.5t68.5 -241.5q76 -258 76 -398q0 -127 -57 -233 q8 -8 16 -8q14 8 21 14q100 127 123 174q34 74 34 194v7q0 55 -7 113.5t-21 121.5l-64 230q-63 233 -63 287q0 47 10 63q8 12 15.5 23.5t15.5 21.5q-8 4 -10 6q-57 -25 -115 -100q-47 -61 -68 -119q-203 -137 -278 -340q-33 -88 -43 -133q-10 -57 -15.5 -108.5t-5.5 -96.5z M846 176v1249q70 -16 90 -24q453 -220 453 -707q0 -10 -4.5 -43t-12.5 -90q-20 -160 -133 -274q-117 -123 -274 -123zM932 -6q4 -2 8 -6q2 2 25 12q12 6 32 6q66 0 185 -82q121 -82 188 -82q61 0 268 92q6 2 7 13q-1 6 -3 8h-14q-4 0 -18.5 -6t-18.5 -8q-16 -2 -27.5 -3 t-19.5 -1q-51 0 -127 63q-49 41 -86 68.5t-63 37.5q-33 16 -86 17q-49 0 -140 -45q-94 -45 -110 -84z" />
<glyph unicode="R" horiz-adv-x="1259" d="M12 6q86 0 127 -6q45 -8 77 -15.5t48 -11.5q76 -20 142 -20q55 0 118 47q53 45 93 77l65 52v14q-8 0 -12 4q-35 -23 -56 -36q-23 -14 -67 -15q-39 0 -115 19q-51 12 -79.5 18t-39.5 8q-12 4 -18 9v10q31 41 37 47q160 162 160 309v780q0 37 65 121q2 8 -4 33l45 2v-645 l-23 -21v-12q8 -2 13.5 -3t9.5 -1v-584h33v578h14q80 -43 123 -184q23 -78 41 -137.5t29 -100.5q10 -33 17 -58.5t13 -41.5q76 -242 179 -242q29 0 63 23q35 20 54.5 31.5t23.5 13.5q70 35 76 36q20 12 20 29q0 6 -2 8h-14q-29 -16 -51 -16q-23 0 -35 4q-68 23 -131 203 q-14 35 -32 95t-40 148q-16 59 -25.5 92t-13.5 44q-27 78 -72 133q-35 20 -55 37q20 12 29 14q272 137 272 371q0 129 -78 229q-84 109 -211 113q-46 2 -94.5 2t-99.5 -2v47h-33v-49q-8 -6 -16 -9q-111 -10 -185.5 -15t-113.5 -5q-100 0 -121 4q-59 14 -58 84q-4 6 -14 6 q-6 -6 -12 -6l-2 -6t-2 -10q0 -29 51 -156q20 -51 47 -66q25 -10 74 -10l272 27q18 0 21 -2q-100 -92 -138 -142q-59 -84 -59 -182v-96q-35 -14 -54.5 -22.5t-23.5 -10.5q-63 -39 -137 -135q8 -12 10 -18q43 16 76 16q129 0 129 -163v-5v-20t2 -33l4 -35q3 -38 3 -75 q0 -97 -23 -181q-27 -104 -66 -152q-12 -18 -38.5 -26t-51.5 -17q-82 -37 -160 -139zM631 831v621q-8 0 2 0t39 2h30q98 0 148 -31q53 -35 82 -125q22 -80 22 -143q0 -154 -112 -223q-33 -10 -57.5 -17.5t-43.5 -9.5q-33 -23 -56 -38t-40 -25z" />
<glyph unicode="S" horiz-adv-x="1136" d="M-31 70q0 -39 23 -39q10 0 12 14q-2 25 23 72q14 26 71 26h4q78 0 183 -49q102 -49 157 -104q4 -4 19 -4q12 0 61 14v-164h29v172q61 39 115 62q184 102 264 194q135 150 135 279q0 188 -209 309l-131 66q-47 23 -82 40t-57 27q0 41 6 89t16 106q29 137 68 170q14 2 24 2 t15 2q166 14 340 217q39 45 39 90q0 49 -70 49q-123 0 -248 -137q-43 -43 -49 -47q-25 0 -76 39q-49 39 -49 61q-4 8 -4 10h-12q-23 -14 -39.5 -24t-26.5 -17q-80 -59 -136 -104t-91 -78q-131 -119 -156 -217q-8 -16 -10 -27q-10 -18 -6 -43q2 -25 12 -52t24.5 -54t34 -50.5 t39.5 -37.5q66 -47 131 -78q39 -16 67 -29.5t46 -21.5q33 -14 45 -25v-18v-33v-53q-35 4 -49 6t-10 2q-84 0 -131 -84q-59 -102 -60 -109l4 -12h13q8 23 39.5 42.5t56.5 19.5q-10 0 31 -7q18 -2 37.5 -14t35 -28.5t24.5 -37t9 -38.5v-230q-125 78 -254 78q-137 0 -266 -137 q-31 -31 -31 -55zM281 1255q0 96 135 218q37 -37 116 -80q35 -14 61 -23.5t46 -15.5q-59 -129 -88 -357q-270 94 -270 258zM553 162v606q86 -39 142.5 -70.5t88.5 -56.5q107 -81 107 -192q0 -102 -53 -197q-63 -106 -170 -139q-16 -6 -26.5 -9.5t-14.5 -5.5q-8 0 -20.5 7.5 t-24 16.5t-20.5 20.5t-9 19.5zM768 1520q0 14 43 55q37 37 45 43q66 47 117 47q63 0 63 -49q0 -66 -106 -105q-35 -12 -86 -12q-43 0 -70 8q-6 8 -6 13z" />
<glyph unicode="T" horiz-adv-x="1433" d="M-10 1180q10 0 20 10q-2 23 -3 38t-1 19q14 119 141 178q106 49 289 50q100 0 271 -19q-10 -57 -11 -104l15 -457q1 -25 1 -49q0 -202 -46 -291q-16 -23 -33 -44.5t-31 -39.5v-16q2 0 7 -2t7 -2q57 57 105 116q100 127 102 140q16 37 33 141q10 53 13 99q2 28 2 51 q0 16 -1 30l-20 383q0 6 1 14.5t3 18.5q27 -4 52.5 -9t54.5 -10v-1210q-197 59 -345 201q-106 104 -145 219q-37 100 -37 262q0 197 51 365q12 23 22.5 41t18.5 30l39 41q33 33 33 45q0 10 -16 11q-23 -14 -50.5 -36t-58.5 -55q-70 -72 -108.5 -122t-49.5 -76 q-47 -137 -47 -328q0 -143 60 -328q47 -133 198 -264q111 -96 291 -153q61 -20 144 -37v-154h30v150l39 -9q94 0 158 45q23 16 63.5 58.5t98.5 109.5q-2 2 -4 2t-5 3q-106 -53 -161 -54q-94 0 -189 25v1212q66 -8 122 -12t104 -4q145 0 282 84q63 41 95 61.5t36 22.5 q12 8 12 24q0 14 -12 19l-16 -4q-23 -8 -45 -27q-10 -10 -17.5 -17t-11.5 -14q-45 -28 -118 -28h-5q-72 0 -178 10t-248 31v102h-30v-98l-109 16q8 25 18 43q2 2 6.5 7t12.5 14q12 8 12 20t-18 12q-16 -10 -28.5 -20t-23.5 -19q-41 -35 -53 -47q-23 0 -54.5 2t-72.5 6.5 t-72.5 7.5t-54.5 3q-145 0 -278 -78q-68 -41 -234 -178q-10 -10 -21 -24.5t-22 -35.5q-22 -39 -22 -65q0 -53 43 -53z" />
<glyph unicode="U" horiz-adv-x="1888" d="M-2 815q0 -43 7 -96t42 -101q41 -53 90 -53q33 0 47 27q10 12 45 86t35 84q0 4 -4 12q-27 -14 -43 -14q-35 0 -74 39q-61 57 -61 186q0 94 31 178q53 131 166 213q119 88 256 88q147 0 230 -78.5t83 -226.5q0 -197 -29 -254q-20 2 -33.5 3t-21.5 1q-117 0 -219 -145 q-8 -14 -12.5 -24.5t-8.5 -18.5q4 0 6 -2q51 55 97 55q14 0 32.5 -4t36 -11t32.5 -16.5t22 -19.5q22 -37 22 -100v-5q0 -20 -1 -50.5t-3 -71.5t-3 -72t-1 -51q0 -211 96 -320q45 -51 144 -51q96 0 210 107q96 88 179 217q2 2 12 2q4 -25 8 -42.5t6 -27.5q16 -70 43 -131 q55 -125 125 -125q33 0 53 21l7 -3v-131l32 -2v185q14 20 25.5 35.5t19.5 25.5q45 63 56 98h-13q-45 -28 -71 -28h-2h-15v1319q57 39 90 60.5t43 29.5l-8 20q-73 -28 -106 -28h-2q-10 0 -17 2v69h-32v-76h-56q-12 0 -32.5 3.5t-42 8.5t-42 8t-32.5 3q-66 0 -105 -20 q-49 -25 -67 -37q-25 -14 -55.5 -40t-69.5 -61q-2 -4 -2 -10h12q66 41 121 41q35 0 94 -14q33 -6 56.5 -9.5t39.5 -5.5q-70 -68 -69 -96v-876q0 -121 -72 -218q-78 -104 -195 -104q-166 0 -210 193q-8 31 -9 147q0 137 43 408q45 268 45 407q0 262 -344 262 q-190 0 -395 -174q-111 -92 -201 -282q-61 -135 -61 -318zM1550 557q-2 253 -2 457t2 360q0 113 90 123l7 4v-1280q-12 10 -17 17q-51 66 -65 159q-6 35 -9.5 75t-5.5 85z" />
<glyph unicode="V" horiz-adv-x="1355" d="M-74 1468q0 -10 6 -12q4 2 14.5 5t26.5 9q31 10 47 11q35 0 145.5 -31t162.5 -31h32q-78 -47 -77 -213v-233q0 -10 -11 -17q-68 -4 -188 -182q-14 -16 -10 -29q57 33 86 33q111 0 121 -182q6 -172 6 -258q10 -4 15 -8t9 -6q8 -20 22.5 -44t35.5 -53l77 -100 q61 -84 119 -123q16 -4 41 -4q53 0 139 80q23 25 39.5 42t24.5 28q49 35 127 135q39 47 64.5 85t39.5 66q37 78 68 211q49 217 49 471q0 59 -2 105.5t-6 81.5q0 6 -4 22q-4 20 -6 29l-2 10v25q0 2 16 6q49 12 121 71q37 33 64.5 57.5t43.5 41.5q11 10 9 18q-8 4 -11 6 q-72 -53 -143 -53q-55 0 -147 45q-98 47 -136 47q-49 0 -106 -57l-103 -100v-13l9 -8q45 39 65 39q92 0 131 -113q57 -147 58 -401v-131q0 -170 -66 -408q-16 -66 -55 -139q-66 -129 -131 -129q-33 0 -49 8q-37 14 -105 101v1288q31 31 47 57q-2 2 -4 3t-4 3 q-14 -8 -23.5 -15t-15.5 -11v86h-31v-107q-39 -20 -98 -20q-45 0 -151 22q-102 25 -152 25q-115 0 -219 -113q-20 -20 -25 -29zM434 682v643q0 80 43 133q4 6 28.5 25.5t65.5 54.5v-1216l-55 73q-82 106 -82 287z" />
<glyph unicode="W" horiz-adv-x="1783" d="M-104 1464q0 -4 4 -8h10q37 16 74 17q39 0 233 -60q45 -14 74 -14q41 0 76 22q2 -2 -2 -12q-98 -158 -99 -285v-161q-5 1 -9 1q-40 0 -95 -61q-12 -14 -34 -43t-54 -74q6 0 18 2.5t25.5 5.5t26 6t18.5 3q104 0 104 -133q1 -78 1 -133v-49q-1 -66 -3 -85l-4 -30 q-2 -10 -3 -17.5t-1 -11.5q0 -8 8 -22q16 0 23 -15q23 -61 94 -168q94 -143 170 -143q68 0 170 102q47 51 82 89t57 65q8 -4 19 -19q33 -66 102 -133q78 -74 135 -100v-113h37v101q49 23 82 35q98 82 190 196q82 100 146 268q33 80 33 232q0 94 -43 289q-43 193 -43 292 q0 57 14 109q20 94 67 94q23 0 45.5 -21.5t22.5 -43.5q0 -12 -16 -56h6h10q39 51 68.5 89t50.5 65q10 20 10 57q0 68 -65 68q-29 0 -56 -19q-299 -221 -299 -507q0 -106 45 -307t45 -312q0 -102 -24 -190q-47 -166 -139 -166q-14 0 -32 5t-67 32q-51 31 -51 43v653 q27 23 46.5 40t29.5 28v12q-16 -4 -28.5 -7t-20.5 -8q-8 -2 -17 -2h-10v617h-37v-621q-27 -2 -42 -3t-23 -1l-56 -2v373q18 119 37 154q-23 31 -47 62.5t-49 66.5q-16 18 -45 18q-14 0 -19 -2q-20 -6 -61 -39q-57 -39 -57 -63l39 -72q39 -70 38 -135v-361q-20 -2 -40 -2h-37 q-14 0 -47 -6q-10 -2 -32 -11t-54 -30q-82 -45 -82 -80q0 -6 6 -8q41 18 107 18h14l165 -4v-479q0 -115 -98 -166q-37 -16 -57 -16q-59 0 -148 106q-68 84 -84 119q-18 43 -18 137v746q0 82 43 196q33 55 53 82l-8 9l-84 -7q-49 0 -154 35q-100 35 -151 35q-59 0 -107 -29 q-10 -8 -36.5 -31.5t-67.5 -62.5q-18 -16 -18 -35zM995 502v327q35 14 61.5 24.5t45.5 16.5l14 9v-603q-121 102 -121 226z" />
<glyph unicode="X" horiz-adv-x="1452" d="M-25 98q0 -96 138 -96q129 0 262 127q106 104 219 283q25 45 41 75.5t27 51.5q2 2 6 2q72 -266 239 -441q108 -108 195 -108h2q74 0 143 57q33 27 64.5 54.5t64.5 58.5q14 12 13 20h-13q-64 -32 -109 -32h-3q-59 0 -144 59q-176 133 -274 430q-33 96 -33 106v11l10 10h90 q76 0 76 -41q0 -10 -10 -31l-18 -26l20 -4q41 66 72 127q23 47 36 74.5t17 37.5q0 6 -8 15l-113 -11h-162q-12 14 -12 37q0 14 3 39t7 64q20 141 117 258q106 131 244 131q43 0 78 -25q39 -25 43 -65l4 -7q8 10 15 20.5t13 20.5q23 31 35 37q10 6 21.5 16.5t25.5 24.5 q29 35 29 51q0 43 -43 68q-35 18 -80 18q-156 0 -334 -165q-143 -133 -252 -324l-6 -6q-27 78 -46 136t-34 99q-51 145 -151 236q-75 65 -190 65h-3q-55 0 -114 -47l-113 -110q-4 -12 -2 -15q-2 -2 -4 -2l14 -4q41 23 80 23q242 0 358 -357q55 -166 56 -190v-23 q-82 -29 -127 -46t-56 -21q-33 -16 -63.5 -30.5t-63.5 -31.5q-12 -4 -21 -8t-15 -8q-20 -8 -21 -27q8 -12 27 -12q2 0 39 16q37 14 49 19q59 8 105 12t77 4q63 0 86 -12q8 -25 8 -49q0 -250 -207 -463q-74 -78 -168 -78q-133 0 -133 84q0 6 3 19.5t3 19.5h-12 q-117 -102 -117 -201z" />
<glyph unicode="Y" horiz-adv-x="1701" d="M8 942q0 -55 35 -102q37 -49 90 -49q31 0 41 12q94 119 94 137v16q-4 0 -11 -2t-11 -2q-23 0 -52.5 24.5t-37.5 47.5q-16 43 -17 102q0 141 94 236q94 98 234 98q156 0 238 -100q63 -76 63 -260q0 -82 -12 -127l-41 10q-57 0 -123 -47q-55 -41 -90 -100q12 -4 14 -5 q10 2 19.5 3.5t19.5 1.5q150 0 150 -113q0 -31 -6.5 -78t-20.5 -110q-25 -127 -25 -189q0 -102 37 -184q51 -119 166 -119q90 0 186 74q33 27 77 74t102 112l39 49q6 -37 6 -114q0 -227 -33 -324q-45 -147 -78 -188q-57 -76 -178 -76q-209 0 -381 135q-109 86 -109 174 q0 41 15 53q12 10 18 16.5t8 8.5l-22 6q-31 -23 -88 -102q-59 -90 -60 -125q0 -104 185 -211q156 -92 239 -92q115 0 181 34q135 76 245 185q127 127 164 241q51 147 51 320v829q0 121 25 193q25 74 129 106q59 20 104 33.5t74 24.5q18 6 75.5 45t57.5 51v24h-24 q-16 0 -66 -51q-26 -26 -118 -26h-7l-96 8q-82 4 -96 6q-84 0 -142 -31q-10 -4 -52 -32.5t-118 -79.5l7 -13q73 35 131 35h12q35 -2 70.5 -3t74.5 -5q-197 -152 -196 -274v-549q0 -88 -21 -142q-14 -45 -31.5 -77.5t-37.5 -55.5q-94 -100 -191 -100q-90 0 -141 86 q-45 76 -45 170q0 70 47 289q78 365 78 495q0 156 -70 250q-78 111 -223 111q-164 0 -357 -168q-180 -160 -239 -324q-29 -80 -29 -176z" />
<glyph unicode="Z" horiz-adv-x="1351" d="M-8 27q86 41 141 41q72 0 322 -72q248 -74 374 -74q121 0 203 64l234 172q12 10 16 16v12l-29 4q-92 -92 -297 -92q-121 0 -288 43l-285 74q-35 4 -62.5 6t-50.5 2l19 19q141 125 238.5 217t154.5 153q47 53 81 90t52 58q37 2 41 6q6 0 19.5 -2t19.5 -2q158 0 279 96 q38 33 114 68v14q-10 12 -22 12q10 0 -11.5 -5t-68.5 -17q-57 -14 -103 -15h-133q84 113 146.5 196t105.5 138q16 29 19 39q-8 8 -15 8q-29 -16 -39 -18q-78 -111 -143.5 -195t-118.5 -145q-145 -172 -203 -240q-47 -55 -80.5 -93t-56.5 -60q-66 -66 -134.5 -130.5 t-139.5 -127.5l-168 -123q-131 -98 -131 -121v-16zM43 1217q0 -80 74 -80q39 0 104 57q59 47 84 86h-26q-27 0 -47.5 23.5t-20.5 54.5q0 29 35 76q54 73 147 73h2q41 0 226 -51q178 -47 235 -47q78 0 207 41q4 0 4 -14q0 -51 -170 -332q-23 -37 -70 -90q-20 -29 -36.5 -53.5 t-32.5 -47.5q-164 12 -156 13q-8 0 -27.5 -3t-27.5 -3q-117 0 -299 -144q-18 -23 -21 -31q94 43 205 43q41 0 86 -3t96 -11q4 -4 9 -4q-35 -51 -87.5 -113.5t-123.5 -134.5l-250 -252q-4 -20 -4 -12h16q16 0 141 125q63 63 86 92q78 78 127.5 129t71.5 74q135 150 213 238 t100 114q41 47 91.5 111.5t109.5 148.5q162 224 162 273v20l-8 4q-96 -43 -160 -43q-82 0 -236 37q-150 39 -231 39q-260 0 -502 -229q-96 -90 -96 -174z" />
<glyph unicode="[" d="M190 -156h351v43h-215v1858h211v41h-347v-1942z" />
<glyph unicode="\" horiz-adv-x="579" d="M-176 -438q0 -45 53 -45q70 0 191 80q96 63 172 137q23 16 36 26.5t21 14.5q20 10 38.5 18t39.5 17q14 8 14 22q-51 33 -51 139v1170q2 129 4 213t6 127q0 16 24.5 35.5t43.5 19.5q20 0 49 -27q45 -41 51 -45q66 -45 129 -45q57 0 127 35l92 68q16 12 37 25.5t47 29.5 q8 4 16.5 10t16.5 17l-8 6q-90 -47 -142 -47q-63 0 -147 47q-31 23 -59.5 44t-55.5 42q-117 -80 -221 -160q-37 -31 -108 -63q-8 -4 -37 -16.5t-78 -35.5v-16l17 -25q16 -24 18 -41q18 -102 18 -184q0 -16 -2 -18l-84 -76q-51 -45 -55 -72q25 -12 67 -12l64 2v-858l-25 -354 q-4 -59 -53 -113q-53 -55 -108 -55q-37 0 -56 12q-4 4 -13 15.5t-19 27.5q-25 -6 -47.5 -36t-22.5 -56z" />
<glyph unicode="]" d="M43 1745h215v-1858h-213v-43h348v1942h-350v-41z" />
<glyph unicode="^" horiz-adv-x="909" d="M96 588h152l203 456l208 -456h152l-299 645h-117z" />
<glyph unicode="_" horiz-adv-x="1024" d="M0 -152v-102h1024v102h-1024z" />
<glyph unicode="`" horiz-adv-x="520" d="M14 1798q29 -27 50.5 -45t37.5 -33q51 -55 103.5 -119.5t107.5 -138.5q14 -23 25.5 -39t19.5 -26q59 -84 121 -84h19q0 4 4 8q-94 131 -183 354q-16 12 -39.5 26.5t-52.5 31.5q-23 12 -98 49q-88 41 -96 41q-16 0 -19 -13v-12z" />
<glyph unicode="a" horiz-adv-x="882" d="M86 172q57 -16 115 -68q61 -55 61 -101v-7l12 -10q51 35 79 54t32 23q29 25 54.5 49.5t47.5 49.5q23 20 41.5 32.5t28.5 20.5q23 -41 38 -69.5t26 -43.5q29 -29 49 -51t37 -39l174 138l-4 12q-31 -2 -46 14q-121 168 -120 199v487q0 35 43 101v10q-59 14 -92 37l-236 151 q-88 -72 -143.5 -116t-79.5 -62q-72 -55 -72 -123q0 -57 47 -57q31 0 31 80q0 68 31 96q8 6 18 13t21 18q74 -27 143 -74q96 -68 117 -100v-93q-59 -16 -104.5 -26t-74.5 -19q-47 -10 -78.5 -18t-52.5 -16q-63 -14 -100 -15q-4 -4 -6 -7t-4 -5q10 -35 10 -45v-293 q0 -63 -43 -127zM299 283q15 57 15 169q0 25 -1 52q-1 13 -1 25q0 71 20 126l207 56v-473l-105 -88z" />
<glyph unicode="b" horiz-adv-x="905" d="M0 1546l8 -10h45q68 -4 86 -66q4 -14 17 -114q12 -115 12 -182v-807q0 -43 -14 -127q-2 -16 -17 -56q-2 -8 4 -14q18 6 35 6q25 0 47 -37q35 -61 45 -71q23 -27 40.5 -47.5t27.5 -34.5q27 16 45 29.5t31 23.5q27 20 50 41.5t46 48.5q33 23 47 29q47 29 83 49t60 35 q52 39 99 100q-29 119 -29 225v181q0 53 2 103t6 101q2 10 2 23v24q-12 8 -21 12.5t-14 8.5q-72 45 -120 76.5t-74 50.5l-203 -191l-8 7v548q0 70 44 116t112 46q79 0 79 -63q0 -12 -3 -28.5t-7 -41.5h25q29 0 71 45q45 45 46 74q0 39 -31 64.5t-72 25.5q-51 0 -162 -51 q-51 -23 -88 -40.5t-63 -27.5q-119 -51 -226 -59q-53 -6 -63 -25zM338 424v303q0 27 5 74t15 112q4 10 27 37q25 27 35 27q4 -2 13 -8t26 -21q49 -39 53 -41q25 -14 42 -24.5t28 -16.5q12 -47 12 -92v-385q0 -45 -1 -73.5t-3 -41.5q-4 -41 -31 -73q-29 -41 -65 -41 q-25 0 -72 65q-35 49 -51 92q-33 78 -33 107z" />
<glyph unicode="c" horiz-adv-x="722" d="M82 170h4q66 0 195 -117q70 -59 73 -59q8 0 78 51t74 61q23 43 82 97q33 29 56.5 49.5t39.5 36.5v10h-14q-117 -82 -183 -139q-29 16 -51 30.5t-39 28.5q-35 27 -63.5 48.5t-50.5 37.5q27 101 27 218q0 25 -1 50l-9 193.5t-13 239.5q10 10 22 18h6q48 0 121 -61 q70 -55 101 -107q10 -16 10 -39q0 -12 -4 -36.5t-4 -37.5q0 -25 16 -45h12q12 84 23 107q25 47 46 88t42 74q-27 68 -107 127q-82 63 -108 63q-14 0 -33 -12q-86 -59 -146.5 -102.5t-99.5 -67.5q-23 -16 -43 -32.5t-41 -37.5q23 -55 23 -74v-497q0 -43 -6 -70 q-4 -14 -19 -39q-16 -29 -16 -28v-27z" />
<glyph unicode="d" horiz-adv-x="835" d="M57 918q0 -6 4 -11q4 0 14.5 -5t14.5 -5h3q30 0 30 -182v-324q0 -55 -23 -139q0 -4 -9 -24.5t-9 -24.5q0 -6 6 -15q16 4 27 5q14 0 49 -37l24.5 -24.5t16.5 -18.5l59 -60q16 -18 27.5 -33.5t21.5 -29.5h13q102 88 145 127q47 37 80 61.5t49 38.5q27 20 45.5 33.5 t30.5 23.5q51 37 53 68q-2 -6 -2 86v483q0 37 23 109q12 43 12 37q0 14 -103 82q-23 14 -40 27.5t-31 27.5q-133 143 -144 309q0 4 -1 11.5t-3 17.5t-2 16v13q0 59 23 108q27 61 82 62q45 0 45 -41q0 -6 -1 -17.5t-1 -17.5h24q4 0 19.5 13t17.5 20q8 16 8 38q0 68 -84 68 q-33 0 -74.5 -20.5t-60.5 -44.5q-16 -20 -26.5 -35t-16.5 -23q-94 -127 -94 -334q0 -59 29 -135q10 -23 16 -37t10 -22q-35 -20 -60.5 -35.5t-41.5 -26.5q-47 -35 -78 -58.5t-47 -37.5q-70 -51 -70 -67zM272 352q25 70 25 158v541q2 16 25.5 39.5t39.5 23.5t60 -65 q25 -23 40 -36.5t23 -17.5q53 -41 58 -59q2 -6 2 -84v-512q0 -104 -8 -127q-6 -12 -29 -34.5t-35 -22.5q-14 0 -100 88q-39 39 -63.5 65.5t-37.5 42.5z" />
<glyph unicode="e" horiz-adv-x="694" d="M78 176l24.5 7t16.5 7q16 -20 27.5 -35.5t19.5 -27.5q109 -102 164 -145q47 35 74.5 54t35.5 23q41 29 69 49.5t44 30.5q94 74 94 117q0 10 -10 21.5t-21 11.5q-20 0 -28 -15q-6 -18 -12.5 -36.5t-14.5 -36.5q-25 -55 -69 -56q-18 0 -65.5 35t-77.5 63.5t-44 51.5 q-20 33 -20 74q0 10 6 29.5t6 27.5q2 61 3 93t1 36v391q0 10 8 41q4 18 23.5 40t38.5 22q37 0 71 -80q23 -55 27 -86q2 -6 2 -41q0 -115 -61 -191q-10 -10 -17.5 -17t-11.5 -11q-59 -31 -59 -54q0 -14 12 -22h8q12 0 59 49q18 20 31.5 34.5t24.5 24.5q188 178 188 301 q0 55 -49 189q-14 39 -57 39q-31 0 -125 -68l-105 -76q-47 -23 -78.5 -37t-48.5 -22q-37 -16 -59.5 -26.5t-30.5 -14.5q31 -43 31 -61v-465q0 -70 -21 -150q-2 -4 -5 -13t-9 -26l-10 -35v-14z" />
<glyph unicode="f" horiz-adv-x="579" d="M-176 -438q0 -45 53 -45q70 0 191 80q96 63 172 137q23 16 36 26.5t21 14.5q18 10 37.5 18t40.5 17q14 8 14 22q-51 33 -51 139v1016q37 8 63 12q57 49 101.5 90t77.5 74q4 4 10 9.5t6 7.5l-10 12q-102 -57 -180 -57q-49 0 -68 6q2 129 4 213t6 127q0 16 24.5 35.5 t43.5 19.5q20 0 49 -27q45 -41 51 -45q66 -45 129 -45q57 0 127 35l92 68q16 12 37 25.5t47 29.5q8 4 16.5 10.5t16.5 16.5l-8 6q-90 -47 -142 -47q-63 0 -147 47q-31 23 -59.5 44t-55.5 42q-117 -80 -221 -160q-37 -31 -108 -63q-8 -4 -37 -16.5t-78 -35.5v-16l17 -25 q16 -24 18 -41q18 -102 18 -184q0 -16 -2 -18l-84 -76q-51 -45 -55 -72q25 -12 67 -12l64 2v-858l-25 -354q-4 -59 -53 -113q-53 -55 -108 -55q-37 0 -56 12q-4 4 -13 15.5t-19 27.5q-25 -6 -47.5 -36t-22.5 -56z" />
<glyph unicode="g" horiz-adv-x="886" d="M0 -342q0 -86 94 -129q68 -31 156 -31q55 0 115 13q102 20 288 213q29 29 51.5 51t38.5 39q76 100 76 260q0 88 -45 266q-43 180 -43 281l14 288q6 100 7 123q2 6 12 22.5t10 18.5v19h-12q-27 -14 -60 -15q-18 0 -63 17q-80 27 -121 57q-16 14 -35 14q-25 0 -209 -129 q-29 -20 -51 -35.5t-39 -25.5q-63 -49 -61 -94l22 -416v-158q0 -27 -18 -119q-12 -62 -16 -62q-2 0 -2 13q0 -8 4 -12q-2 0 32 -6q31 -27 53.5 -45.5t39.5 -30.5q51 -43 98 -43q49 0 139 84q20 20 50 46t71 54q2 -2 6 -2q16 -27 39 -110q20 -80 21 -142q0 -115 -46 -190 q-55 -88 -163 -92q-8 0 -22.5 -3t-22.5 -3q-72 0 -158 34q-119 49 -119 142v80q-14 -20 -24.5 -37t-14.5 -29q-92 -121 -92 -176zM315 248v22l11 74q10 74 10 104v9l-10 381q-4 53 -6.5 85.5t-4.5 43.5q0 33 17 43q117 -86 246 -97q-23 -86 -23 -188v-270q0 4 3 -13.5 t7 -56.5q2 -23 19 -86q4 -23 7 -37t5 -22q0 -8 -39 -39q-53 -41 -78 -41q-20 0 -77.5 45t-73.5 45q-8 0 -13 -2z" />
<glyph unicode="h" horiz-adv-x="976" d="M90 1475q12 -8 41 -19q27 -10 37 -24q20 -82 20 -138l-14 -680q-2 -72 -3 -130t-1 -99q0 -23 -5 -63.5t-15 -102.5q-10 -25 -17 -31q8 -8 12 -16q20 12 35 23q10 -37 58 -117q59 -102 102 -103q18 0 96 66q72 59 80 70q-4 12 -6 16q-23 0 -29 2q-31 18 -73 80 q-39 61 -50 96q-10 47 -13 101q-2 32 -2 65q0 22 1 45l14 309q0 14 11 72q2 10 30.5 45t40.5 35q29 0 133 -119l33 -37q2 -119 3 -200.5t1 -126.5q0 -16 -1 -39t-3 -53.5t-3 -53t-1 -39.5l-2 -55q-2 -23 -3 -37t-1 -18q0 -8 10 -19q8 -4 11.5 -7t5.5 -5q100 -168 172 -168 q37 0 104 49q27 20 49.5 41t42.5 41q8 8 12.5 13.5t8.5 9.5l-19 12q-43 -18 -51 -19q-37 0 -92 60q-53 55 -62 92q-10 47 -14 113q-3 44 -3 99q0 27 1 56l8 242q4 59 8.5 99t8.5 63q-12 4 -21.5 8t-15.5 6q-53 47 -95 88t-71 74l-12 4q-23 0 -113 -84q-47 -45 -73.5 -69.5 t-35.5 -30.5q-10 20 -10 96q0 47 6 125t17 186q12 106 36.5 153.5t77 80t103.5 32.5q39 0 47 -20q8 -18 10 -72q4 0 10.5 -1t8.5 -1q31 8 55 53q22 39 22 71q0 56 -53 56q-86 0 -241 -81l-246 -129q-68 -18 -113 -25v-16z" />
<glyph unicode="i" horiz-adv-x="509" d="M61 1024q16 -16 30.5 -29.5t25.5 -21.5q10 -12 33 -62q20 -49 20 -82v-495q0 -16 -31 -141q0 -12 54 -103q45 -82 102 -82q39 0 115 66q27 23 47.5 44.5t36.5 41.5q-2 6 -9 12q-18 -6 -32 -6q-18 0 -54 29q-27 20 -37 41q-18 31 -18 59v620q0 10 6 29q16 43 17 41l10 19 q6 12 6 18q-10 2 -19.5 3t-13.5 1q-18 27 -31.5 45.5t-21.5 30.5q-43 59 -61 59q-20 0 -111 -82q-39 -27 -64 -41v-14zM123 1468q0 -57 53 -92q44 -30 103 -30h4h1q107 0 236 151l-2 2q0 2 -2 4q-47 -22 -87 -22h-3q-90 0 -160 63q-27 25 -33 82q-33 -6 -65 -51 q-45 -57 -45 -107z" />
<glyph unicode="j" horiz-adv-x="522" d="M-127 -258q0 -100 125 -100q98 0 213 94q215 174 215 428q0 74 -16 123q-35 96 -56 139q-8 18 -8 84v418q0 23 12 69q10 47 11 68q-16 0 -25 8l-39 57q-37 55 -47 56q-14 0 -102 -84l-59.5 -59.5t-35.5 -38.5v-17h13q10 8 18 12.5t12 8.5h11q57 -59 57 -127v-551 q0 -12 57.5 -147.5t57.5 -219.5q0 -102 -37 -141q-41 -47 -139 -47q-33 0 -86 26q-53 25 -66 68q-6 25 -16 29q-70 -72 -70 -156zM102 1364q0 -68 111 -68q37 0 74 12.5t70.5 33t61.5 49t46 59.5q-4 2 -6 2t-4 2q-47 -29 -64 -29q-29 0 -57.5 10.5t-51 29t-39 42t-18.5 52.5 q-20 -2 -67 -72q-55 -78 -56 -123z" />
<glyph unicode="k" horiz-adv-x="923" d="M61 1499q20 -10 35 -17t25 -12q41 -35 49 -77q4 -20 4 -88v-840q0 -98 -20 -178q-4 -16 -10.5 -32.5t-10.5 -33.5q-12 -41 -12 -20v-15q25 -10 29 -16q100 -199 159 -199q29 0 199 164v15q0 4 -2 4q-6 0 -8 -2q-4 0 -22.5 -10.5t-22.5 -10.5q-51 0 -115 123v389v-1 q1 0 12 169q23 98 107 162q45 37 63 37q39 0 74 -90q27 -68 27 -109q0 -66 -74 -123q-16 -10 -52 -31.5t-94 -54.5q-16 -10 -16 -27q0 8 8 -14q12 -4 24.5 -9t26.5 -13q57 -33 76 -97q16 -51 26.5 -85.5t16.5 -57.5q14 -57 22.5 -94t12.5 -55q12 -57 41 -109q35 -59 76 -59 q18 0 35 10q10 8 34.5 26.5t59.5 51.5q76 63 76 73v17q-27 -12 -41.5 -19.5t-18.5 -9.5q-66 0 -112 176q-14 63 -24.5 110.5t-16.5 80.5q-23 100 -37 123q-18 29 -52 36q-8 2 -47 7l-10 6q63 51 100 81.5t50 45.5q69 71 69 141q0 35 -53 178q-6 20 -20 35q-29 12 -41 12 q-43 0 -162 -112q-139 -127 -166 -142v361q0 102 31 243q6 25 22.5 46.5t39 38t48 25.5t49.5 9q41 0 66 -49q12 -23 18 -35l6 -12q18 0 50 53q26 45 26 70q0 47 -71 47q-94 0 -385 -141q-109 -35 -160 -43q-12 -6 -17 -11v-12z" />
<glyph unicode="l" horiz-adv-x="546" d="M70 1538q0 -4 8 -10q35 0 63 -19q33 -20 33 -53v-1184q0 -23 -20 -65l-25 -45q0 -10 8 -17l72 -59q8 -8 24.5 -28.5t38.5 -55.5q35 -49 52 -53q20 12 47.5 32.5t62.5 49.5q74 57 98 92q-2 4 -6 8q-29 -6 -32 -6q-37 0 -111 111q-25 37 -25 81v1123q0 202 106 202h1 q35 0 59 -63h17q71 53 71 94q0 23 -22.5 40.5t-44.5 17.5q-37 0 -146 -60q-182 -102 -227 -110q-37 -10 -86 -13q-10 -4 -16 -10z" />
<glyph unicode="m" horiz-adv-x="1337" d="M49 981l4 -8l31 8q43 0 74 -84q23 -72 22 -123v-346q0 -18 -5 -72.5t-15 -146.5q-8 -33 -17 -53q10 -4 17.5 -6.5t11.5 -4.5q84 -145 107 -145q16 0 86 63q71 65 71 80q0 6 -4 11q-27 0 -53 45q-25 37 -31 67q-10 57 -10 154v371q0 37 18 102q4 18 37 57q35 41 45 41 q8 0 62 -53l36 -36t17 -21q31 -49 31 -121v-416q0 -39 -23 -151q0 -4 -6 -15.5t-6 -15.5q6 -14 106 -150q8 -10 25 -14q115 66 170 145q-88 72 -96 103q-4 35 -6.5 60.5t-2.5 41.5v416q0 53 19 119q10 37 35 69q29 47 55 47q20 0 107 -73q10 -14 16 -25.5t10 -21.5 q12 -35 12 -164v-256q0 -104 -18 -197q-4 -16 -9 -33.5l-11 -38.5q23 -16 43 -37.5t40 -48.5q10 -16 22.5 -31.5t23.5 -31.5q33 -39 63 -39q31 0 115 68q55 49 90 84l-6 14q-41 -23 -45 -23q-27 0 -76 66q-70 88 -70 137q-2 119 -2 218.5t2 178.5q2 39 4 83t6 98 q2 27 6.5 51t8.5 47h-12q-4 0 -17 -4q-29 27 -49.5 44t-32.5 28l-43 43q-25 25 -39 24q-20 0 -123 -94q-39 -35 -67.5 -62.5t-46.5 -44.5q-4 4 -5 6.5t-3 4.5q-41 102 -168 186l-228 -194q-2 12 -6 16q-45 131 -88 176q-127 -74 -209 -172z" />
<glyph unicode="n" horiz-adv-x="929" d="M0 1008l12 -15q20 14 29 15q39 0 88 -76q45 -70 45 -117v-498q0 4 -3 -11t-7 -52q-2 -6 -8 -27.5t-6 -27.5q0 -8 2 -11q27 -20 55 -65q33 -53 49 -81t20 -32q14 -14 31 -14q8 0 80 53q31 27 53.5 45.5t38.5 32.5q4 12 4 16q-6 -1 -12 -1q-45 0 -86 55q-41 57 -41 106v563 q4 18 35 64q39 57 65 57q45 0 111 -74q37 -41 55 -94q10 -31 11 -61v-459q0 -29 -7 -41q-29 -61 -28 -45v-23q51 -4 84 -88l4 -6q41 -96 82 -96q14 0 22 8q170 127 170 154v10q-23 -2 -31 -3t-4 -1q-31 0 -77 53q-49 61 -50 125v664q-10 -4 -19 -8.5l-17 -8.5 q-23 29 -41.5 48.5t-28.5 33.5q-66 78 -90 78q-29 0 -121 -86q-86 -82 -127 -121q-6 20 -16 35q-8 31 -60 104q-59 84 -88 84q-8 0 -41 -30q-27 -27 -54.5 -53.5t-59.5 -55.5q-8 -8 -13.5 -13t-9.5 -9z" />
<glyph unicode="o" horiz-adv-x="765" d="M86 166q0 -8 4 -12h29q113 -172 170 -172q37 0 219 174q119 113 170 176q-20 29 -21 41v565q0 14 7 74q6 57 6 35q0 8 -13 18h-20h-16q-25 0 -103 41q-72 39 -92 65q-6 8 -18 9l-15 -4q-45 -39 -75.5 -66t-49.5 -43q-27 -18 -46 -31.5t-32 -23.5q-49 -35 -71 -68 q-4 -8 -2 -22q6 -23 6 -31v-502q0 -86 -12 -156q-16 -55 -25 -67zM276 373v661q59 -45 116 -75.5t108 -51.5v-626q0 -139 -66 -140q-12 0 -63 39q-94 76 -95 193z" />
<glyph unicode="p" horiz-adv-x="888" d="M-283 -502q0 -55 93 -55q94 0 188 57q29 16 73 51t103 87q68 57 120 97t89 66v13q-18 10 -33.5 47t-15.5 61v137l10 9q104 -49 113 -50q14 0 53 39q25 23 43 41.5t31 30.5q47 41 80.5 69.5t54.5 45.5q12 12 49 35q12 8 12 43q-8 35 -12 63.5t-4 50.5v295q0 45 5 101 t15 122q0 27 -30 58q-12 10 -24.5 22.5l-24.5 24.5q-27 25 -49.5 49.5t-45.5 48.5l-20 4q-37 0 -234 -203l-18 -8q-16 39 -29.5 68t-21.5 49q-33 88 -72 88q-10 0 -78 -61q-47 -45 -70.5 -66.5t-23.5 -28.5v-10l8 -4q25 16 27 19q8 -4 14 -11q90 -125 90 -248v-413 q0 -2 -2 -25.5l-6 -70.5q-70 -45 -188 -158q-20 -16 -17 -29h13q86 80 159 80q33 0 33 -51v-82q0 -186 -29 -279q-55 -166 -221 -166q-90 0 -102 64q-8 4 -10 4q-16 -6 -33 -19.5t-30 -31t-22.5 -36.5t-9.5 -34zM342 256v547q0 47 37 112q41 66 82 80l135 -139q8 -8 8 -35 v-450q0 -59 -4 -108.5t-12 -90.5l-8 -6l-17 -4q-35 33 -104 61q-35 14 -63.5 22.5t-53.5 10.5z" />
<glyph unicode="q" horiz-adv-x="860" d="M98 139q0 -6 8 -8l9 -2q25 -43 82 -88q66 -47 104 -47q25 0 125 78q98 80 109 80q4 0 8 -5q8 -25 8 -18v-246q0 -53 -12 -98q-4 -10 -19 -43q-14 -31 -14 -37q0 -8 4 -12q35 -4 92 -20.5t135 -45.5q147 -53 226 -53q129 0 129 100q0 27 -23 50h-18q-29 -59 -52 -80 q-33 -29 -90 -29q-88 0 -141 51t-53 137v1098q0 12 3 40t11 71q2 25 39 53l-8 6h-17q-12 0 -28 -2q-37 0 -141.5 47t-110.5 47q-20 0 -117 -76q-53 -45 -85 -68.5t-40 -27.5q-70 -33 -104 -33h-4q-14 -2 -15 -20q0 18 13 -51q8 -43 11 -73t3 -46v-449q0 -70 -19 -143 q0 -2 -4 -7t-4 -9v-21zM293 238v786h24q-1 0 -1 -1q0 -4 90 -50q104 -49 161 -49q2 0 37 10q0 -8 -4 -12q-33 -23 -39 -41q-14 -35 -14 -244v-434q0 -14 -8 -21q-33 -10 -58 -28q-12 -14 -35 -15q-66 0 -153 99z" />
<glyph unicode="r" horiz-adv-x="702" d="M23 1010q-6 2 32 2q31 0 66 -60q10 -20 17 -37.5t12 -33.5q18 -72 18 -119v-463q0 -31 -23 -88q-16 -41 -24 -55q18 -2 78 -82q57 -76 96 -76q29 0 92 51q25 23 45.5 40t36.5 32q4 4 4 12q-23 8 -41 12q-72 63 -86 93q-10 27 -10 102v426q0 41 3 76t7 65q4 27 28.5 58.5 t49.5 40.5q78 -127 154 -127q8 0 25.5 4t23.5 4q23 2 63 41q39 38 39 63q0 -2 -4 10q-4 0 -15.5 -2t-17.5 -2q-37 0 -61 62q-20 51 -19 94q-6 8 -6 14h-18l-256 -196q-29 63 -37 110q-35 86 -64 86q-23 0 -186 -131q-20 -16 -22 -26z" />
<glyph unicode="s" horiz-adv-x="819" d="M45 336q20 6 33 6q57 0 121 -131q20 -47 35.5 -84t25.5 -59q16 -37 27 -50q20 -25 51 -24q31 0 156 102l31.5 24.5t21.5 14.5q20 18 33.5 31.5l23.5 23.5q20 14 31 25q100 57 100 313q0 127 -51 228q-25 49 -53 49q-16 0 -19 -2q-39 -29 -143 -86q-8 -4 -29 -4 q-27 0 -59 20q-25 14 -70 107q-43 92 -43 127q0 71 42 71h1q8 0 72 -39q64 -38 113 -38h2q61 0 127 40q18 15 147 117l-8 2q-65 -22 -102 -22h-3q-51 0 -122.5 39t-77.5 39q-23 0 -105 -70q-53 -45 -90 -77t-59 -50q-61 -55 -64 -59q-28 -49 -28 -100q0 -28 10 -58.5 t22.5 -59t28.5 -55.5q53 -84 102 -84q35 0 107 58q76 57 78 57q14 0 69 -78q12 -18 29 -104q12 -78 12 -113q0 -96 -14 -160q-4 -20 -8 -32.5t-8 -20.5q-10 -37 -49 -37q-45 0 -84 88l-78 164q-53 86 -119 86q-47 0 -166 -125v-10z" />
<glyph unicode="t" horiz-adv-x="548" d="M-8 1059q8 -8 24 -8l127 12q35 0 35 -33v-692q0 -16 -22 -123q-10 -51 -16.5 -65.5t-6.5 8.5l4 -13q16 6 35 17q8 -4 14 -8q45 -96 127 -166q16 -10 39 -11q33 0 92 52q61 51 93 80q2 2 2 8q-10 2 -13 6h-4q-49 0 -149 137q-27 35 -27 148l6 325q6 227 6 332q20 4 35 6 t25 4q20 6 78 62q61 55 61 67q0 10 -2 13q-68 -6 -84 -7q-16 0 -47 3.5t-47 3.5q-2 2 -4 3t-4 3q2 23 2 43v39q0 23 -1 37t-3 24h-13q-33 -27 -63.5 -49.5t-61.5 -42.5q-41 -27 -76.5 -44.5t-66.5 -25.5q-8 -16 -22.5 -37.5t-34.5 -48.5q-35 -49 -37 -51v-8z" />
<glyph unicode="u" horiz-adv-x="1017" d="M88 1014q0 -8 10 -13q43 0 68 -49q20 -39 20 -86v-540q0 -68 -20 -162q23 -6 51 -35q29 -31 51.5 -54.5t36.5 -39.5q53 -53 90 -53q23 0 119 84l125 112l29 -59q10 -23 27.5 -45.5t43.5 -42.5q57 -45 105 -45q12 0 39 16q72 61 114 97t52 46l-17 15q-37 -39 -53 -39 t-49 31q-16 14 -26.5 24t-16.5 17q-59 59 -72 131q-6 45 -6 61v553q0 55 41 92q-84 133 -127 133q-14 0 -90 -63q-70 -57 -78 -70v-18q76 -39 76 -80v-580q0 -102 -31 -172q-12 -33 -59 -33t-140 95q-41 45 -41 63v674q0 68 -2 74q-8 43 -63 84q-10 8 -18.5 13t-12.5 7 q-18 0 -108 -76q-68 -55 -68 -67z" />
<glyph unicode="v" horiz-adv-x="880" d="M25 1006h3q41 0 76 -48q31 -41 37 -79q43 -244 43 -416q0 -43 -2 -80t-6 -66q-2 -8 -8 -30.5t-6 -28.5t6 -14q33 -25 70 -78q8 -10 55 -92q4 -10 10 -21.5t14 -25.5q20 -27 45 -27t164 141q14 20 24.5 37t14.5 29q29 35 49.5 62.5t34.5 43.5q25 41 43.5 79t32.5 71 q68 168 68 340q0 12 -3.5 45t-11.5 86q0 6 -7 29.5t-7 29.5q0 12 37 41q10 6 20 13.5t21 15.5q51 53 51 86q0 4 -6 10q-59 -31 -115 -31q-27 0 -72 11q-81 20 -81 22h1h1q-25 0 -84 -57q-59 -59 -60 -80q0 -10 41 -57q45 -53 49 -56q16 -29 24.5 -47t12.5 -24 q31 -111 31 -209q0 -27 -4 -71t-13 -107q-10 -43 -17 -79t-15 -65q-10 -29 -37 -73q-35 -59 -57 -60q-18 0 -46 49q-10 16 -17 29.5t-11 21.5q-41 61 -56 86q-10 27 -12 39l-12 459q-2 39 -5 78t-9 80q-6 39 -50 88q-43 53 -79 53q-8 0 -170 -139v-14z" />
<glyph unicode="w" horiz-adv-x="1294" d="M35 1010q76 -14 102 -119q10 -41 15 -66q8 -59 12 -107t4 -85v-248q0 -16 -18 -117q-2 -8 -12.5 -33.5t-10.5 -27.5q0 -4 6 -10q88 -37 160 -154q14 -25 18 -41q10 -23 21 -27q16 8 41.5 31t60.5 57q45 47 73 76t38 37q12 12 28 8q113 -141 172 -209h17q12 20 21.5 36 t17.5 26q100 104 165.5 176t96.5 113q47 66 82 209q29 133 29 241q0 41 -13 119q0 6 -10 43t-10 35q0 8 33 20q41 18 43 21q18 16 32.5 29.5t24.5 23.5q53 58 53 78q0 6 -6 10q-59 -31 -127 -31q-27 0 -147 21q-4 2 -15.5 6t-17.5 4q-18 0 -37 -18q-98 -102 -98 -113 q0 -16 8 -23q70 -51 96 -127q39 -109 39 -247q0 -76 -25 -193q-16 -74 -39 -145q-39 -119 -73 -119q-20 0 -54 43q-78 98 -86 115q-18 45 -18 135v319q0 39 3 89.5t11 111.5q0 61 -71 143q-33 39 -62 39q-8 0 -69 -61q-70 -70 -70 -80q4 -8 31 -41q16 -20 26.5 -34.5 t14.5 -24.5q14 -35 18 -74q2 -16 2 -41v-53v-453q0 -35 -24 -86q-4 -4 -9.5 -13t-15.5 -22q-23 -25 -31 -24h-10q-23 35 -39 60.5t-29 39.5q-63 74 -69 84q-6 18 -6 80v493q0 10 6 31t6 31q0 49 -41 113q-48 71 -109 71h-2q-27 0 -90 -63.5t-63 -87.5z" />
<glyph unicode="x" horiz-adv-x="960" d="M23 143q10 -10 20 -10q45 -6 96 -45q61 -43 70 -88q8 -8 10 -12q14 16 25.5 31.5t21.5 31.5q84 121 86 133l4 58q6 14 13 24q53 111 77 162q41 -104 65 -165.5t32 -82.5q23 -51 35 -78.5t16 -31.5q43 -72 98 -72q63 0 135 74q39 43 68 74.5t47 54.5q-6 12 -8 12 q-78 -57 -100 -57q-47 0 -78 41q-14 20 -24.5 36.5t-14.5 30.5q-29 59 -52.5 120.5t-46.5 121.5q-18 49 -18 63q0 8 4 13q57 20 160 104q2 6 2 12v7q-47 -20 -141 -21q-35 0 -52 16q-2 0 -2 2l72 183q8 16 15.5 31.5t17.5 27.5q14 0 45 -4t45 -4q68 0 141 88q37 47 65 82.5 t44 60.5v13q-84 -68 -150 -68q-55 0 -96 29q-45 33 -39 33q-14 0 -69 -70q-53 -72 -54 -86q0 -2 17 -31q18 -25 18 -29q0 -8 -43 -114q-20 -53 -31.5 -81t-15.5 -32q-53 143 -74 197q-92 246 -227 246q-37 0 -78 -35l-24.5 -24.5t-57.5 -55.5q-35 -35 -35 -43t9 -17h10 q25 25 55 25q78 0 139 -119q16 -39 30.5 -73.5t29.5 -67.5q23 -57 22 -62l6 -20q-35 -10 -49 -12q-98 -57 -137 -99q14 2 45 2h80q88 0 98 -2q14 -33 22.5 -58.5t12.5 -43.5l-121 -250l-6 4q-76 51 -133 51q-96 0 -147 -131z" />
<glyph unicode="y" horiz-adv-x="948" d="M16 -303q0 -82 74 -137q63 -49 152 -49q166 0 325 129q188 152 248 297q29 68 29 155q0 47 -31 152q-29 109 -29 151v512q0 8 13 37q66 53 111.5 94t70.5 68v14l-8 4h-13l-9 -4t-21.5 -9t-25.5 -9t-25 -4q-35 0 -82 20q-4 2 -54 31q-35 18 -47 18q-33 0 -106 -67 q-72 -66 -72 -84q4 -4 4 -6q4 0 13.5 1t13.5 1q23 0 76 -51q0 4 0 -3q0 -4 2 -18v-14l-2 -490q0 -268 -97 -268q-59 0 -166 104q-16 16 -16 33q2 199 2 335.5t-2 209.5q0 31 14 80l13 51q0 14 -54 90q-47 70 -61 78q-16 12 -41 12q-45 0 -149 -149q-4 -8 -5 -21 q57 -2 93 -63q27 -45 26 -105v-493q0 -100 -35 -142v-12q35 -33 60.5 -56.5t42.5 -39.5q72 -66 129 -66q47 0 125 74q57 53 89 84t40 37q14 -31 20 -64q31 -158 31 -213q0 -133 -66 -211q-72 -86 -200 -86q-96 0 -174 48q-82 51 -113 139q-1 5 -1 13q0 20 7 59q0 6 -6 12 q-18 -4 -39 -35q-74 -109 -74 -174z" />
<glyph unicode="z" horiz-adv-x="903" d="M18 20q0 -23 27 -22q27 0 61 33l52 51q8 4 30 4q37 0 160 -53t174 -53q154 0 289 194h-12q-74 -49 -142 -49q-41 0 -133 45t-141 45q-63 0 -166 -57q23 37 27 41q47 63 75.5 101t38.5 52q127 182 140 189q14 8 47 8q4 0 4 -2h4q119 0 270 149q4 12 4 17q-12 0 -41 -15 q-16 -8 -27 -11t-16 -5q-43 -14 -108 -14q-27 0 -51 6q186 266 239 350q64 96 64 119v24h-13q-182 -88 -247 -88q-86 0 -221 66q-66 33 -82 33q-33 0 -111 -66q-66 -57 -88 -92q6 0 19.5 1t21.5 1q16 0 108.5 -39t151.5 -39q53 0 152 39q104 41 112 41q23 0 23 -23 q0 -53 -152 -272q-43 -57 -78 -57l-200 2q-47 -37 -84 -64.5t-64 -48.5q-2 -14 -4 -12h264q18 0 27 -8v-11q-51 -82 -102.5 -156.5t-104.5 -144.5q-29 -41 -53.5 -70.5t-42.5 -47.5l-60 -41q-41 -29 -41 -50z" />
<glyph unicode="{" d="M94 477q84 -27 119 -86q23 -49 23 -145v-361q0 -168 71 -233q58 -51 189 -51v24q-104 45 -105 250v340q0 123 -33 170q-41 66 -163 90v4q125 25 163 88q33 51 33 172v342q0 203 105 250v25q-131 0 -189 -51q-72 -66 -71 -234v-362q0 -100 -25 -146q-31 -59 -117 -86z" />
<glyph unicode="|" horiz-adv-x="499" d="M203 0h94v1298h-94v-1298z" />
<glyph unicode="}" d="M98 -375v-24q131 0 189 51q72 66 71 233v361q0 100 27 145q27 57 117 86q-90 27 -117 86q-27 45 -27 146v362q0 168 -71 234q-57 51 -189 51v-25q106 -45 107 -250v-342q0 -121 33 -172q39 -63 161 -88v-4q-121 -25 -161 -90q-33 -51 -33 -170v-340q0 -205 -107 -250z " />
<glyph unicode="~" horiz-adv-x="909" d="M84 831l80 -104q25 35 38 53.5t15 22.5q39 43 78 43q31 0 139 -58q111 -55 164 -55q109 1 213 144l-82 100q-78 -109 -129 -109q-23 0 -135 56q-109 57 -172 57q-102 0 -209 -150z" />
<glyph unicode="&#xa1;" d="M78 1038l4 -6q66 35 92 35q51 0 154 -49q51 33 63 45l113 98q-113 57 -185 58q-66 0 -153 -89q-23 -23 -45.5 -46t-42.5 -46zM154 -301q66 -8 147 -72q29 -23 49 -22q35 0 94 59q55 61 78 90l-4 15q-53 2 -100 67q-113 158 -113 600v64t2 88t2 88v63q0 80 23 199l-23 10 q-10 -29 -19 -51.5t-16 -40.5q-33 -51 -57 -72q16 -27 21 -51q8 -47 8 -276q0 -426 -47 -652q-16 -78 -45 -106z" />
<glyph unicode="&#xa2;" horiz-adv-x="800" d="M156 242q53 2 159 -97q16 -16 27.5 -26t17.5 -17v-174h37v178q92 66 103 82q18 37 65 78q27 23 46.5 41.5t31.5 28.5l-4 4l-8 4q-10 -4 -29.5 -18.5t-52.5 -40.5q-53 -45 -66 -45q-12 0 -57 34.5t-70.5 57t-33.5 30.5q0 8 7 35t9 37q2 43 3 77t1 56l-14 310q-4 14 0 36 q6 12 12 19q45 2 184 -137q4 -33 5 -65t3 -62l31 2q2 29 3 49t1 35q12 27 43 80q12 23 19.5 35t9.5 16q0 20 -27 53q-35 41 -57 55q-57 45 -88 45q-8 0 -25 -4v115h-34v-137q-76 -53 -118 -84t-50 -37q-68 -47 -68 -57q0 -6 8 -29t8 -29v-403q0 -27 -6 -54q-2 -8 -14 -32.5 t-12 -26.5v-18z" />
<glyph unicode="&#xa3;" horiz-adv-x="1095" d="M-63 -68q0 -178 208 -227v27q-72 18 -120 67q-51 53 -52 125q0 115 140 180q100 43 200 43q98 0 183 -14v-213h36v209q47 -6 86 -29q51 -31 80 -49h41l211 162l-26 31l-62 -54q-47 23 -83 39.5t-58 26.5q-88 39 -189 41v354q39 4 66 19q14 8 51 45q76 70 121 114l-10 19 q-41 -25 -55 -29q-68 -29 -144 -28q-35 0 -29 36v396q25 0 52 -27q16 -14 28.5 -25.5t20.5 -19.5q51 -45 131 -45q86 0 213 90q45 33 77 54.5t48 31.5l-12 12q-80 -43 -136 -43q-76 0 -145 49l-121 78h-16q-41 -35 -56 -49q-29 -27 -84 -49v82h-36v-92q-244 -96 -244 -355 v-122q-111 -96 -129 -117q-23 -25 2 -37q8 -6 43 -2q16 2 28.5 3t16.5 1q39 0 39 -29v-166q0 -66 -62 -104l11 -14q207 59 207 196v131h88v-358q-193 0 -361 -92q-199 -106 -198 -273zM408 791v251q0 82 10 109q14 43 78 70v-430h-88z" />
<glyph unicode="&#xa4;" horiz-adv-x="1228" d="M63 219l91 -86l196 197q106 -88 264 -88q156 0 265 88l200 -197l86 86l-196 201q88 106 88 264t-88 264l196 197l-86 90l-200 -201q-100 88 -265 88q-158 0 -264 -88l-196 201l-91 -90l201 -197q-88 -106 -88 -264t88 -264zM283 684q0 131 96 234q98 102 235 102 q139 0 237.5 -102.5t98.5 -233.5q0 -139 -98 -239.5t-238 -100.5q-137 0 -235 100q-96 102 -96 240z" />
<glyph unicode="&#xa5;" horiz-adv-x="1024" d="M-51 899l20 -14q68 80 111 80q10 0 14 -2q51 -6 131 -136l185 -297v-30q-311 -18 -312 -45q0 -20 60 -21h127q41 2 71 2h54v-96q-254 -8 -254 -45q0 -20 59 -21q33 0 81 1t114 4v-351q8 0 84 47q76 45 75 62v250q98 4 158.5 8t83.5 6q43 6 43 23q0 27 -180 26 q-14 0 -50 -1t-55 -1v98q336 12 336 37q0 27 -180 27h-16t-43 -2t-50 -2h-28q-8 0 -19 2v22q0 106 111 273q29 43 58.5 84t62.5 82l143 -166q74 57 121 131l-178 182q-51 -47 -108.5 -119.5t-121.5 -171.5q-82 -127 -108 -211l-203 324q-10 20 -28.5 44t-41.5 52 q-72 88 -104 96z" />
<glyph unicode="&#xa6;" horiz-adv-x="454" d="M176 -356h103v714h-103v-714zM176 666h103v716h-103v-716z" />
<glyph unicode="&#xa7;" horiz-adv-x="909" d="M66 -166l4 -12q4 4 6 8q33 92 92 92q27 0 156 -55q127 -57 200 -57q33 0 199 213q55 57 55 155q0 106 -98 193q20 29 40.5 67.5t43.5 85.5q43 94 43 127q0 176 -201 230q-104 29 -162.5 45t-72.5 20q-178 68 -178 178q0 31 43 86q51 63 110 64q45 0 137 -74 q94 -74 164 -74q23 0 146 129q8 6 8 13q0 6 -4 6q-8 -4 -11 -6q-49 -23 -71 -23q-37 0 -125 57.5t-150 57.5q-106 0 -227 -139q-102 -121 -102 -160q0 -113 106 -213q-147 -201 -147 -268q0 -190 221 -254l229 -68q184 -53 185 -178q0 -45 -56 -84q-45 -39 -69 -39 q-45 0 -168 59q-117 61 -158 62q-33 0 -90 -76q-63 -76 -98 -168zM162 666q0 82 67 172q51 -35 99 -50l231 -69q166 -49 166 -174q0 -53 -63 -166q-35 16 -63 28.5t-44 16.5l-227 68q-166 49 -166 174z" />
<glyph unicode="&#xa8;" horiz-adv-x="856" d="M43 1470q0 -49 47 -84q41 -27 96 -26q98 0 215 135l-2 2q0 2 -2 4q-43 -18 -82 -18q-80 0 -143 55q-23 20 -31 74q-31 -6 -57 -45q-41 -53 -41 -97zM477 1470q0 -51 49 -84q41 -27 97 -26q94 0 215 135l-7 6q-43 -18 -79 -18q-82 0 -146 55q-23 20 -31 74q-27 -6 -57 -45 q-41 -53 -41 -97z" />
<glyph unicode="&#xa9;" horiz-adv-x="1615" d="M102 676q0 -293 207 -500q205 -205 500 -205q293 0 498 205q206 207 206 500t-206.5 499.5t-497.5 206.5q-293 0 -500 -206.5t-207 -499.5zM190 676q0 256 180.5 436t438.5 180q256 0 436 -180t180 -436t-180 -436.5t-436 -180.5q-258 0 -438.5 180.5t-180.5 436.5z M438 657q0 -219 103 -340q111 -131 352 -131q2 0 6 -1t6 -1q10 0 29 21q67 59 145 176q0 4 -4 4q4 0 -45 -49q-47 -47 -104 -47q-2 0 -11.5 1t-13.5 1q-375 51 -375 426q0 33 3 76t12 96q43 33 92 94q-2 2 -8 2q-20 -18 -37 -33.5t-31 -25.5q-88 -72 -106 -123 q-12 -68 -13 -146zM639 512q0 -23 12 -25q37 0 62 31q94 121 94 238q0 63 -37 153q-35 94 -35 125q0 18 6 37q20 -25 97 -57q27 -10 53.5 -19.5t52.5 -19.5q37 0 98 55l68 68q0 6 -6 6q-8 -6 -15.5 -12.5t-15.5 -10.5q-25 -18 -41 -18q-27 10 -53.5 22.5t-54.5 24.5 q-33 14 -59.5 29.5t-49.5 31.5q-23 0 -86 -75q-55 -66 -70 -92q-8 -16 -8 -41q0 -43 33 -123q39 -98 41 -123q4 -27 6 -46.5t2 -29.5q0 -102 -71 -106q-23 -6 -23 -23z" />
<glyph unicode="&#xaa;" horiz-adv-x="509" d="M43 1067q0 -180 129 -248q8 -4 18 -4q12 0 29 16q35 35 59.5 63t40.5 46q31 -121 80 -127q23 7 123 107q-2 14 -16 14q-49 -23 -37 -23q-23 0 -43 70q-8 100 -11 176t-5 127q8 12 15 21.5t13 17.5q-133 20 -168 61v5q6 6 6 18q-53 0 -194 -174q-39 -45 -39 -166z M133 1151q0 88 47 141q39 -35 137 -51q0 -10 1 -41t1 -49q0 -180 -63 -238q-55 31 -89 97.5t-34 140.5z" />
<glyph unicode="&#xab;" horiz-adv-x="796" d="M76 623l239 -304h129l-237 304l231 295h-123zM352 623l240 -304h129l-238 304l232 295h-123z" />
<glyph unicode="&#xac;" horiz-adv-x="1228" d="M139 713h930v-445h102v547h-1032v-102z" />
<glyph unicode="&#xad;" horiz-adv-x="849" d="M53 467l3 -12t1 -9q45 51 72 66q33 20 96 16l301 -20q80 -4 129 41q25 21 142 164v18q-70 -80 -224 -74l-290 15q-74 2 -140 -70q-33 -37 -90 -135z" />
<glyph unicode="&#xae;" horiz-adv-x="919" d="M59 977q0 -166 117 -285q119 -117 285 -117t282 117q119 119 119 285t-119 283q-117 117 -282 116q-166 0 -285 -116q-117 -117 -117 -283zM127 977q0 137 98 233q98 98 236 99q137 0 235 -99q99 -96 99 -233t-98.5 -235.5t-235.5 -98.5t-235.5 98.5t-98.5 235.5z M221 1063q0 -39 33 -66q33 -29 37 -49v-10q0 -8 -5 -18l-5 -9q0 -10 12 -10q49 51 49 86q0 10 -8 24.5t-19.5 30t-21.5 29.5t-14 27q0 33 14 55q16 -20 27.5 -32.5t19.5 -18.5q37 -29 53 -84q6 -23 6 -45q0 -53 -77 -121q-6 -2 -15 -6q-16 -8 -37 -35q-10 -12 -24 -43v-4 q0 -8 12 -8q4 4 6 4l2 4q14 14 35 18q25 -4 55.5 -14t49.5 -16q27 12 67 79q-16 6 -16 7q-2 -2 -9 -12l-6 -9q-59 27 -92 31q57 70 86 110q4 2 15 3q37 0 73 -70q70 -135 92 -154q8 -6 19 -6q14 0 37 19q27 20 43 36l-2 7l-2 2q-4 4 -9 4q-4 0 -6 -2l-4 -4q-2 0 -3 -1t-3 -1 q-6 0 -8 2q-31 16 -70 102q-39 82 -69 106q-12 12 -25 15l8 6q76 57 82 125q-16 49 -29 63q2 8 17 23q0 8 -10 14q-94 -82 -140 -149q-6 16 -20 31.5t-29.5 28.5t-28 25.5t-14.5 20.5q10 20 23 37q0 10 -13 14q-29 -35 -84 -90t-55 -102zM451 995q6 18 6 37v15q0 55 59 110 q2 -12 12 -22l4 -7q9 -10 9 -30q0 -47 -49 -74q-14 -10 -23.5 -17.5t-17.5 -11.5z" />
<glyph unicode="&#xb0;" horiz-adv-x="819" d="M117 1212q0 -121 84 -208q88 -84 209 -84q123 0 206 84q86 85 86 208t-86 207q-84 86 -206 86q-123 0 -209 -86q-84 -84 -84 -207zM188 1212q0 96 64 162q63 70 158 70q92 0 155 -70q66 -70 66 -162t-66 -163q-66 -68 -155 -68q-94 0 -158 68q-63 70 -64 163z" />
<glyph unicode="&#xb1;" horiz-adv-x="1228" d="M98 23h1032v102h-1032v-102zM98 600h465v-381h103v381h464v102h-464v381h-103v-381h-465v-102z" />
<glyph unicode="&#xb2;" horiz-adv-x="559" d="M-8 629q0 -12 96 -13h25q39 -6 41 -6q41 -6 72.5 -9t54.5 -5q45 -4 72.5 -5t41.5 -3q88 49 170 172v2q0 6 -12 12l-7 -8t-22 -25q-29 -31 -53 -30q-113 10 -199 19t-149 20q113 115 223 290q113 174 113 234q0 16 -8 18q-10 16 -113 17q-88 0 -129 -9q-18 -2 -70 -47 q-47 -43 -47 -57q10 -2 33 -2q10 0 28.5 1t43.5 3q27 2 45 3t28 1q25 0 31 -2q41 -4 41 -24q0 -18 -14 -39q-145 -289 -328 -498q-8 -2 -8 -10z" />
<glyph unicode="&#xb3;" horiz-adv-x="561" d="M-4 600l4 -8q6 0 16.5 13t22.5 13q10 0 12 -2q10 -4 37 -17t74 -36q72 -39 106 -39q33 0 51 23q43 47 75 83t52 58q97 103 97 199q0 90 -78 157q-78 63 -197 93q27 27 53.5 51t55.5 51q88 86 88 98q0 8 -131 9q-76 0 -124 -1.5t-69 -3.5q-61 -43 -106 -102q18 -6 63 -6 q10 0 69.5 2t166.5 6q-57 -57 -104.5 -105.5t-84.5 -86.5q0 -12 15 -15q14 -6 33 -12q25 -8 49 -17.5t47 -21.5q137 -70 137 -184q0 -27 -6 -58q-43 -111 -70 -110q-10 0 -24 12q-82 59 -211 90l-60 -57q-31 -31 -59 -76z" />
<glyph unicode="&#xb4;" horiz-adv-x="520" d="M14 1321l4 -8h19q41 0 63 20q39 41 63.5 74t39.5 55q74 98 126 162t85 96q31 29 52.5 48.5t35.5 29.5v12q-6 12 -21 13q-8 0 -75 -33q-66 -29 -117 -57.5t-92 -57.5q-88 -223 -183 -354z" />
<glyph unicode="&#xb5;" horiz-adv-x="839" d="M23 799q0 -4 4 -4q6 0 25.5 18t29.5 18q8 0 14 -10q43 -80 43 -194q0 -23 -2 -55.5t-6 -77.5t-6 -79t-2 -57v-16q0 -14 1 -45t1 -47l-4 -316q0 -29 -2 -74.5t-6 -111.5q-6 -121 -7 -182q63 135 99 186l16 295q14 -16 26.5 -27.5t26.5 -21.5q4 -4 11 -4q37 0 137 143 q33 47 64.5 94.5t64.5 94.5q6 -113 47 -228q39 -106 78 -110q128 131 153 172q-4 0 -13 -9.5t-15 -9.5q-10 0 -31 25q-37 47 -61 170q-10 55 -16.5 108.5t-6.5 104.5q0 66 12 88v29q0 20 2 46.5t2 45.5v35v24q0 106 -26 166q-98 -78 -160 -135q49 -59 49 -109q0 -2 -2 -24.5 t-6 -65.5q-8 -88 -19.5 -156.5t-25.5 -117.5q-33 -113 -109 -232q-45 41 -72.5 73t-37.5 52q-37 63 -37 178q0 39 6 105q10 109 15.5 163t5.5 58q0 117 -70 225q-27 -8 -96 -90q-47 -53 -69.5 -79.5t-24.5 -28.5z" />
<glyph unicode="&#xb6;" horiz-adv-x="976" d="M29 668q0 -516 479 -670q186 -61 430 -61q152 0 188 10q0 16 -188 16q-154 0 -236 25q-4 106 -6 283.5t-2 433.5q0 260 2 419.5t6 225.5q70 20 213 20q115 0 154 21q8 4 66 14q49 6 49 12q-6 0 -32 -2t-73 -6q-92 -6 -149 -6q-227 0 -426 -72q-475 -174 -475 -663z M518 678q0 100 3 256t11 366l68 23q4 -117 6 -282t2 -382t-2 -379.5t-6 -273.5q-61 14 -68 19q-8 223 -11 384.5t-3 268.5z" />
<glyph unicode="&#xb7;" horiz-adv-x="382" d="M55 360q59 23 172 183q99 137 99 164q-41 0 -183 -195q-68 -92 -88 -152z" />
<glyph unicode="&#xb9;" horiz-adv-x="344" d="M51 1167q2 -8 10 -8q4 0 9 4l14 4q16 10 25 11q8 0 12 -19q-6 -47 -6 -96q0 -16 1 -44t3 -65q2 -35 3 -62.5t1 -47.5q0 -29 -2 -57.5t-6 -57.5q0 -86 -39 -125l-8 -4q-2 -4 -2 -6t-3 -4q2 -8 9 -8q18 0 112 82q14 10 33 26.5t41 38.5q48 45 64 57q0 8 -5 13q-8 0 -36 -23 q-27 -20 -37 -20v108v88q0 55 2 131t2 127v80h2l2 2q2 2 2 6q0 10 -12 11q-92 -43 -191 -142z" />
<glyph unicode="&#xba;" horiz-adv-x="460" d="M53 1026q0 -57 6 -88q18 -94 125 -133q35 0 138 115q104 119 104 180v12q0 104 -35 164q-23 41 -115 123l-4 4q0 2 2 2q4 12 5 25q-98 -63 -224 -185q2 -10 2 -26v-37q0 -12 -1 -32t-1 -42q0 -20 -1 -42t-1 -36v-4zM147 1042v138q0 127 27 135q119 -100 135 -144 q21 -46 21 -114q0 -111 -72 -152q-111 51 -111 137z" />
<glyph unicode="&#xbb;" horiz-adv-x="796" d="M76 918l237 -304l-231 -295h123l239 295l-239 304h-129zM352 918l238 -304l-232 -295h123l240 295l-240 304h-129z" />
<glyph unicode="&#xbc;" horiz-adv-x="1550" d="M82 170q66 4 199 -117q70 -59 73 -59q8 0 78 51t74 61q23 43 82 97q33 29 56.5 49.5t39.5 36.5v10h-14q-117 -82 -183 -139q-29 16 -51 30.5t-39 28.5q-35 27 -63.5 48.5t-50.5 37.5q33 123 26 268l-9 193.5t-13 239.5q10 10 22 18q49 4 127 -61q70 -55 101 -107 q10 -16 10 -39q0 -12 -4 -36.5t-4 -37.5q0 -25 16 -45h12q12 84 23 107q25 47 46 88t42 74q-27 68 -107 127q-82 63 -108 63q-14 0 -33 -12q-86 -59 -146.5 -102.5t-99.5 -67.5q-23 -16 -43 -32.5t-41 -37.5q23 -55 23 -74v-497q0 -43 -6 -70q-4 -14 -19 -39 q-16 -29 -16 -28v-27zM662 1475q8 -6 40 -21q27 -10 37 -24q10 -41 16.5 -75t4.5 -61l-15 -680q-2 -72 -2 -131v-100q0 -20 -5 -61t-15 -103q-4 -10 -18 -31l12 -16q10 6 19 11t16 10q10 -37 57 -117q57 -100 102 -101q20 0 99 64q35 29 55 47t25 23q-2 10 -9 16 q-18 0 -26 4q-29 18 -74 78q-43 61 -49 98q-10 47 -14.5 99.5t-2.5 109.5l15 311q2 8 4 25.5t6 46.5q2 10 30.5 45t41.5 35q29 0 133 -119l33 -37q2 -121 3 -202.5t1 -126.5q0 -14 -1 -37t-3 -53.5t-2 -55.5v-39l-5 -53q-2 -23 -3 -37t-1 -20t11 -17q8 -4 11 -8t5 -6 q100 -166 172 -166q35 0 104 47q53 39 93 84q8 8 12 13.5t8 9.5l-18 10q-43 -18 -49 -19q-39 0 -95 60q-53 55 -61 94q-20 92 -14 266l6 244q4 59 8 98t8 62q-20 10 -37 14q-53 49 -95 89t-71 73q-10 6 -12 6q-20 0 -111 -84q-47 -45 -74.5 -69.5t-33.5 -32.5q-10 25 -10 96 q0 49 5 127t15 184q12 111 37 156q27 47 78 79.5t102 32.5q39 0 47 -20q10 -16 13 -72q2 0 8 -2t8 -2q31 12 54.5 53t23.5 74q0 53 -53 53q-84 0 -242 -82l-246 -126q-68 -18 -112 -25v-16z" />
<glyph unicode="&#xbd;" horiz-adv-x="1490" d="M82 170q66 4 199 -117q70 -59 73 -59q8 0 78 51t74 61q23 43 82 97q33 29 56.5 49.5t39.5 36.5v10h-14q-117 -82 -183 -139q-29 16 -51 30.5t-39 28.5q-35 27 -63.5 48.5t-50.5 37.5q33 123 26 268l-9 193.5t-13 239.5q10 10 22 18q49 4 127 -61q70 -55 101 -107 q10 -16 10 -39q0 -12 -4 -36.5t-4 -37.5q0 -25 16 -45h12q12 84 23 107q25 47 46 88t42 74q-27 68 -107 127q-82 63 -108 63q-14 0 -33 -12q-86 -59 -146.5 -102.5t-99.5 -67.5q-23 -16 -43 -32.5t-41 -37.5q23 -55 23 -74v-497q0 -43 -6 -70q-4 -14 -19 -39 q-16 -29 -16 -28v-27zM631 1499q20 -10 34.5 -17t24.5 -12q41 -35 49 -77q4 -20 4 -88v-840q0 -98 -20 -178q-10 -37 -21 -66q-14 -37 -14 -20v-15q29 -10 31 -16q100 -199 160 -199q29 0 198 164v15q0 4 -4 4q6 4 -16.5 -7.5t-34.5 -15.5q-51 0 -115 123v389q0 -14 13 168 q18 98 104 162q49 37 66 37q39 0 73 -90q27 -68 27 -109q0 -66 -74 -123q-16 -10 -52 -31.5t-93 -54.5q-16 -10 -17 -27q0 8 9 -14q23 -6 51 -22q57 -33 76 -97q16 -51 26 -85.5t17 -57.5q14 -57 22 -94t12 -55q12 -63 39 -109q37 -59 78 -59q18 0 35 10q10 8 34.5 26.5 t59.5 51.5q76 63 76 73v17q-27 -12 -41 -19.5t-18 -9.5q-66 0 -113 176q-14 63 -24.5 110.5t-16.5 80.5q-23 100 -37 123q-18 29 -51 36q-8 2 -47 7l-11 6q63 51 100.5 81.5t49.5 45.5q70 70 70 143q0 33 -54 176q-6 20 -20 35q-29 12 -41 12q-43 0 -164 -112 q-70 -63 -109.5 -98t-54.5 -44v361q0 102 31 243q6 25 22.5 46.5t39 38t48 25.5t50.5 9q41 0 65 -49q12 -23 19 -35l6 -12q18 0 49 53q27 47 27 72q0 45 -72 45q-94 0 -385 -141q-109 -35 -162 -43q-12 -8 -14 -11v-12z" />
<glyph unicode="&#xbe;" horiz-adv-x="1951" d="M-176 -438q0 -45 53 -45q70 0 191 80q96 63 172 137q23 16 36 26.5t21 14.5q20 10 38.5 18t39.5 17q14 8 14 22q-51 33 -51 139v1170q2 129 4 213t6 127q0 16 24.5 35.5t43.5 19.5q20 0 49 -27q45 -41 51 -45q66 -45 129 -45q57 0 127 35l92 68q16 12 37 25.5t47 29.5 q8 4 16.5 10t16.5 17l-8 6q-90 -47 -142 -47q-63 0 -147 47q-31 23 -59.5 44t-55.5 42q-117 -80 -221 -160q-37 -31 -108 -63q-8 -4 -37 -16.5t-78 -35.5v-16l17 -25q16 -24 18 -41q18 -102 18 -184q0 -16 -2 -18l-84 -76q-51 -45 -55 -72q25 -12 67 -12l64 2v-858l-25 -354 q-4 -59 -53 -113q-53 -55 -108 -55q-37 0 -56 12q-4 4 -13 15.5t-19 27.5q-25 -6 -47.5 -36t-22.5 -56zM492 170q63 2 198 -119q70 -59 74 -59q6 0 76 51q72 53 75 63q20 39 82 95q33 29 57 50.5t40 35.5v12h-15q-121 -86 -182 -141q-59 37 -90 61q-35 27 -63.5 47.5 t-51.5 36.5q16 66 23.5 132.5t5.5 137.5q-10 168 -25 431q16 16 23 20q49 4 127 -61q72 -59 100 -109q10 -16 10 -39q0 -10 -4 -34.5t-4 -39.5q0 -29 19 -43h12q4 43 10 70t10 37q25 47 46.5 87t41.5 75q-29 70 -106 127q-84 61 -109 61q-14 0 -30 -10q-172 -121 -246 -172 q-23 -14 -43.5 -30.5t-40.5 -37.5q20 -49 20 -74v-499q0 -39 -6 -70q-4 -10 -18 -37q-16 -29 -16 -30v-25zM1071 1475q8 -8 41 -21q27 -10 37 -24q10 -41 16 -75t4 -61l-14 -680q-2 -72 -2 -131v-100q0 -39 -23 -164q0 -8 -16 -31l12 -16q10 6 19.5 11t15.5 10 q10 -37 58 -117q61 -100 102 -101q20 0 96 64q72 59 80 70q-4 14 -6 16q-16 0 -29 4q-29 16 -71 78q-41 59 -52 98q-18 90 -14 209l14 311q0 8 3.5 25.5t7.5 46.5q2 10 30.5 45t40.5 35q29 0 133 -119l33 -37q2 -121 3 -202.5t1 -126.5q0 -16 -1 -39t-3 -54q-2 -29 -3 -52 t-1 -40l-2 -55q-2 -23 -2 -37q0 -12 -2 -18q0 -6 10 -17q8 -4 11.5 -8t5.5 -6q100 -166 172 -166q35 0 104 47q53 39 92 84q8 8 12.5 13.5t8.5 9.5l-19 10q-43 -18 -51 -19q-37 0 -92 60q-53 55 -62 94q-10 47 -14 112.5t-2 153.5l8 244q4 57 8.5 97t8.5 63q-20 10 -37 14 q-53 49 -95 89t-71 73q-10 6 -12 6q-23 0 -113 -84q-47 -45 -73.5 -69.5t-35.5 -32.5q-10 25 -10 96q0 49 6 127t17 184q12 111 37 156q25 47 77 79.5t103 32.5q39 0 47 -20q8 -18 10 -72q4 0 10.5 -2t8.5 -2q31 8 55 53q23 41 22 74q0 53 -53 53q-86 0 -241 -82l-246 -126 q-68 -18 -113 -25v-16z" />
<glyph unicode="&#xbf;" horiz-adv-x="849" d="M78 25q0 -68 49 -193q20 -49 111 -137q100 -96 147 -96q4 0 125 77q45 29 76.5 49.5t52.5 32.5q113 70 141 86q13 21 13 37l-7 84q-4 35 -5 55.5t-3 28.5q0 12 3 52t7 108q-41 -16 -83 -66q-47 -49 -62 -88q-14 -59 -20.5 -99t-8.5 -62q-4 -61 0 -115q-16 -41 -67 -41 q-53 0 -141 69q-80 63 -142 162q-63 102 -63 199q0 72 39 131q20 31 56 76t89 104q98 117 141 185q59 96 60 186q0 125 -45 125q-14 0 -31 -14q-94 -82 -94 -91v-10q29 -29 28 -84q0 -129 -77 -248q-45 -63 -77 -107t-50 -67q-66 -90 -111 -159q-51 -82 -51 -170zM279 1114 q33 20 59 21q37 0 100.5 -33t69.5 -33q25 0 88 64q53 49 63 67q-98 74 -176 74q-39 0 -114 -64q-70 -57 -90 -96z" />
<glyph unicode="&#xc0;" horiz-adv-x="1267" d="M-10 -43l6 -8q51 31 133 31q16 0 44 -3.5t62.5 -7.5t62.5 -7t46 -3q57 0 94 37q16 16 26.5 31.5t18.5 25.5q31 45 52.5 76t33.5 49l-8 6q-51 -63 -127 -63q-23 0 -77 6t-144 20q92 166 125 242q35 84 60.5 158t41.5 139q25 -4 45.5 -7t36.5 -3q31 0 127 31l135 112 q45 -369 68 -473q80 -385 227 -385q43 0 92 66q39 47 66 81t43 52l-8 10q-57 -45 -88 -45q-70 0 -117 121q-35 98 -62.5 228t-43.5 294q-14 152 -24.5 263.5t-16.5 187.5q-20 229 -146 344q-82 76 -172 75q-88 0 -170 -100q-29 -35 -55.5 -70.5t-52.5 -70.5l10 -11 q27 27 46 42.5t34 23.5q33 18 75 18q82 0 158 -71q-10 -14 -27.5 -33.5t-44.5 -48.5q-20 -23 -40.5 -54.5t-40.5 -76.5q-20 -41 -32.5 -78t-19.5 -68q-10 -47 -17 -94t-11 -94q-43 -27 -76 -55q-33 -37 -58.5 -68t-41.5 -53l10 -6q37 37 80 37q27 0 63 -15 q-29 -158 -55 -227q-66 -174 -164 -291q-59 -43 -86 -49zM305 2216q29 -27 50.5 -46.5t37.5 -33.5q51 -55 103.5 -119.5t107.5 -138.5q16 -23 26.5 -39t18.5 -27q59 -84 121 -83h18q2 2 3 4q0 2 2 4q-47 66 -92.5 153.5t-90.5 200.5q-35 25 -90 57q-10 6 -35.5 18.5 t-64.5 31.5q-86 41 -94 40q-14 0 -21 -12v-10zM467 848q16 82 29.5 143.5t23.5 104.5q43 182 98 235l48 47q51 -41 75 -157q12 -59 25 -201l16 -176q-51 -8 -84.5 -12.5t-52.5 -4.5q-29 0 -73 5.5t-105 15.5z" />
<glyph unicode="&#xc1;" horiz-adv-x="1267" d="M-10 -43l6 -8q51 31 133 31q16 0 44 -3.5t62.5 -7.5t62.5 -7t46 -3q57 0 94 37q16 16 26.5 31.5t18.5 25.5q31 45 52.5 76t33.5 49l-8 6q-51 -63 -127 -63q-23 0 -77 6t-144 20q92 166 125 242q35 84 60.5 158t41.5 139q25 -4 45.5 -7t36.5 -3q31 0 127 31l135 112 q45 -369 68 -473q80 -385 227 -385q43 0 92 66q39 47 66 81t43 52l-8 10q-57 -45 -88 -45q-70 0 -117 121q-35 98 -62.5 228t-43.5 294q-14 152 -24.5 263.5t-16.5 187.5q-20 229 -146 344q-82 76 -172 75q-88 0 -170 -100q-29 -35 -55.5 -70.5t-52.5 -70.5l10 -11 q27 27 46 42.5t34 23.5q33 18 75 18q82 0 158 -71q-10 -14 -27.5 -33.5t-44.5 -48.5q-20 -23 -40.5 -54.5t-40.5 -76.5q-20 -41 -32.5 -78t-19.5 -68q-10 -47 -17 -94t-11 -94q-43 -27 -76 -55q-33 -37 -58.5 -68t-41.5 -53l10 -6q37 37 80 37q27 0 63 -15 q-29 -158 -55 -227q-66 -174 -164 -291q-59 -43 -86 -49zM467 848q16 82 29.5 143.5t23.5 104.5q43 182 98 235l48 47q51 -41 75 -157q12 -59 25 -201l16 -176q-51 -8 -84.5 -12.5t-52.5 -4.5q-29 0 -73 5.5t-105 15.5zM551 1729q4 -4 4 -9h18q37 0 66 23q70 80 100 129 q74 98 126.5 161.5t84.5 96.5q31 29 52.5 48.5t35.5 29.5v12q-6 10 -18 10q-8 0 -78 -30q-125 -57 -209 -115q-88 -221 -182 -356z" />
<glyph unicode="&#xc2;" horiz-adv-x="1267" d="M-10 -43l6 -8q51 31 133 31q16 0 44 -3.5t62.5 -7.5t62.5 -7t46 -3q57 0 94 37q16 16 26.5 31.5t18.5 25.5q31 45 52.5 76t33.5 49l-8 6q-51 -63 -127 -63q-23 0 -77 6t-144 20q92 166 125 242q35 84 60.5 158t41.5 139q25 -4 45.5 -7t36.5 -3q31 0 127 31l135 112 q45 -369 68 -473q80 -385 227 -385q43 0 92 66q39 47 66 81t43 52l-8 10q-57 -45 -88 -45q-70 0 -117 121q-35 98 -62.5 228t-43.5 294q-14 152 -24.5 263.5t-16.5 187.5q-20 229 -146 344q-82 76 -172 75q-88 0 -170 -100q-29 -35 -55.5 -70.5t-52.5 -70.5l10 -11 q27 27 46 42.5t34 23.5q33 18 75 18q82 0 158 -71q-10 -14 -27.5 -33.5t-44.5 -48.5q-20 -23 -40.5 -54.5t-40.5 -76.5q-20 -41 -32.5 -78t-19.5 -68q-10 -47 -17 -94t-11 -94q-43 -27 -76 -55q-33 -37 -58.5 -68t-41.5 -53l10 -6q37 37 80 37q27 0 63 -15 q-29 -158 -55 -227q-66 -174 -164 -291q-59 -43 -86 -49zM367 1729q4 -4 4 -9h16q39 0 66 23q39 43 63.5 74.5t38.5 54.5q76 96 129 225q16 -35 36.5 -71.5t47.5 -77.5q14 -20 37.5 -55t58.5 -89q59 -84 121 -84h19l4 9q-37 53 -90 167q-55 119 -93 203q-14 33 -28.5 68 t-28.5 74q-74 -37 -166 -31q-12 -29 -24.5 -55.5t-22.5 -55.5q-53 -127 -100 -219t-88 -151zM467 848q16 82 29.5 143.5t23.5 104.5q43 182 98 235l48 47q51 -41 75 -157q12 -59 25 -201l16 -176q-51 -8 -84.5 -12.5t-52.5 -4.5q-29 0 -73 5.5t-105 15.5z" />
<glyph unicode="&#xc3;" horiz-adv-x="1267" d="M-10 -43l6 -8q51 31 133 31q16 0 44 -3.5t62.5 -7.5t62.5 -7t46 -3q57 0 94 37q16 16 26.5 31.5t18.5 25.5q31 45 52.5 76t33.5 49l-8 6q-51 -63 -127 -63q-23 0 -77 6t-144 20q92 166 125 242q35 84 60.5 158t41.5 139q25 -4 45.5 -7t36.5 -3q31 0 127 31l135 112 q45 -369 68 -473q80 -385 227 -385q43 0 92 66q39 47 66 81t43 52l-8 10q-57 -45 -88 -45q-70 0 -117 121q-35 98 -62.5 228t-43.5 294q-14 152 -24.5 263.5t-16.5 187.5q-20 229 -146 344q-82 76 -172 75q-88 0 -170 -100q-29 -35 -55.5 -70.5t-52.5 -70.5l10 -11 q27 27 46 42.5t34 23.5q33 18 75 18q82 0 158 -71q-10 -14 -27.5 -33.5t-44.5 -48.5q-20 -23 -40.5 -54.5t-40.5 -76.5q-20 -41 -32.5 -78t-19.5 -68q-10 -47 -17 -94t-11 -94q-43 -27 -76 -55q-33 -37 -58.5 -68t-41.5 -53l10 -6q37 37 80 37q27 0 63 -15 q-29 -158 -55 -227q-66 -174 -164 -291q-59 -43 -86 -49zM348 1759l31 -26q76 123 119 122q29 0 118 -69q76 -59 134 -60q63 0 108 58q57 71 100 143l-28 23q-55 -80 -92 -80q-35 0 -158 86q-90 59 -107 59q-59 0 -137 -121q-16 -27 -37.5 -60.5t-50.5 -74.5zM467 848 q16 82 29.5 143.5t23.5 104.5q43 182 98 235l48 47q51 -41 75 -157q12 -59 25 -201l16 -176q-51 -8 -84.5 -12.5t-52.5 -4.5q-29 0 -73 5.5t-105 15.5z" />
<glyph unicode="&#xc4;" horiz-adv-x="1267" d="M-10 -43l6 -8q51 31 133 31q16 0 44 -3.5t62.5 -7.5t62.5 -7t46 -3q57 0 94 37q16 16 26.5 31.5t18.5 25.5q31 45 52.5 76t33.5 49l-8 6q-51 -63 -127 -63q-23 0 -77 6t-144 20q92 166 125 242q35 84 60.5 158t41.5 139q25 -4 45.5 -7t36.5 -3q31 0 127 31l135 112 q45 -369 68 -473q80 -385 227 -385q43 0 92 66q39 47 66 81t43 52l-8 10q-57 -45 -88 -45q-70 0 -117 121q-35 98 -62.5 228t-43.5 294q-14 152 -24.5 263.5t-16.5 187.5q-20 229 -146 344q-82 76 -172 75q-88 0 -170 -100q-29 -35 -55.5 -70.5t-52.5 -70.5l10 -11 q27 27 46 42.5t34 23.5q33 18 75 18q82 0 158 -71q-10 -14 -27.5 -33.5t-44.5 -48.5q-20 -23 -40.5 -54.5t-40.5 -76.5q-20 -41 -32.5 -78t-19.5 -68q-10 -47 -17 -94t-11 -94q-43 -27 -76 -55q-33 -37 -58.5 -68t-41.5 -53l10 -6q37 37 80 37q27 0 63 -15 q-29 -158 -55 -227q-66 -174 -164 -291q-59 -43 -86 -49zM276 1837q0 -51 50 -84q41 -27 96 -27q96 1 215 138l-6 6q-39 -20 -80 -21q-82 0 -145 58q-23 23 -29 71q-33 -6 -60 -45q-41 -53 -41 -96zM467 848q16 82 29.5 143.5t23.5 104.5q43 182 98 235l48 47 q51 -41 75 -157q12 -59 25 -201l16 -176q-51 -8 -84.5 -12.5t-52.5 -4.5q-29 0 -73 5.5t-105 15.5zM713 1837q0 -49 47 -84q41 -27 96 -27q96 1 215 138l-6 6q-39 -20 -80 -21q-84 0 -143 58q-25 23 -31 71q-31 -6 -59 -45q-39 -51 -39 -96z" />
<glyph unicode="&#xc5;" horiz-adv-x="1267" d="M-10 -43l6 -8q51 31 133 31q16 0 44 -3.5t62.5 -7.5t62.5 -7t46 -3q57 0 94 37q16 16 26.5 31.5t18.5 25.5q31 45 52.5 76t33.5 49l-8 6q-51 -63 -127 -63q-23 0 -77 6t-144 20q92 166 125 242q35 84 60.5 158t41.5 139q25 -4 45.5 -7t36.5 -3q31 0 127 31l135 112 q45 -369 68 -473q80 -385 227 -385q43 0 92 66q39 47 66 81t43 52l-8 10q-57 -45 -88 -45q-70 0 -117 121q-35 98 -62.5 228t-43.5 294q-14 152 -24.5 263.5t-16.5 187.5q-20 229 -146 344q-82 76 -172 75q-88 0 -170 -100q-29 -35 -55.5 -70.5t-52.5 -70.5l10 -11 q27 27 46 42.5t34 23.5q33 18 75 18q82 0 158 -71q-10 -14 -27.5 -33.5t-44.5 -48.5q-20 -23 -40.5 -54.5t-40.5 -76.5q-20 -41 -32.5 -78t-19.5 -68q-10 -47 -17 -94t-11 -94q-43 -27 -76 -55q-33 -37 -58.5 -68t-41.5 -53l10 -6q37 37 80 37q27 0 63 -15 q-29 -158 -55 -227q-66 -174 -164 -291q-59 -43 -86 -49zM426 1913q0 -98 65.5 -164t163.5 -66t164 66t66 164t-65.5 162.5t-164.5 64.5q-98 0 -163.5 -64.5t-65.5 -162.5zM467 848q16 82 29.5 143.5t23.5 104.5q43 182 98 235l48 47q51 -41 75 -157q12 -59 25 -201l16 -176 q-51 -8 -84.5 -12.5t-52.5 -4.5q-29 0 -73 5.5t-105 15.5zM506 1913q0 61 44 105t105 44t105.5 -44t44.5 -105t-44 -105.5t-106 -44.5q-61 0 -105 44t-44 106z" />
<glyph unicode="&#xc6;" horiz-adv-x="1726" d="M-10 -43l6 -8q51 31 133 31q16 0 44 -3.5t62.5 -7.5t62.5 -7t46 -3q57 0 94 37q16 16 26.5 31.5t18.5 25.5q31 45 52.5 76t33.5 49l-8 6q-51 -63 -127 -63q-23 0 -77 6t-144 20q92 166 125 242q35 84 60.5 158t41.5 139q25 -4 45.5 -7t36.5 -3q156 0 240 151h-117 q-29 0 -73 5.5t-105 15.5q16 82 29.5 143.5t23.5 104.5q43 182 98 235q20 20 35 32.5t23 20.5q47 -29 79.5 -51t55.5 -37q84 -53 84 -102v-565q0 -250 -41 -316q-12 -18 -30.5 -28.5t-38 -16.5t-37 -9t-27.5 -5q-23 -4 -74 -49t-51 -60v-14q51 -10 61 -12l267 -101 q66 -23 122 -38t103 -19l2 -2q2 0 4 -2v-117h37v115l4 4q162 2 334 141q90 74 90 86v15h-12q-143 -90 -265 -90q-33 0 -151 22v668h201q10 0 23.5 -1t29.5 -3q37 -23 57 -43q14 63 23 77q4 10 11 28t17 40q10 20 15.5 32.5t7.5 16.5q0 8 -4 8h-12q-55 -16 -150 -16 q-78 0 -123 -1t-61 -3q-8 -2 -35 2v405h-37v-421q-29 -35 -49.5 -57.5t-34.5 -35.5v451q0 55 14 76q23 29 80 28q53 0 164 -34q106 -33 156 -33q45 0 69 8q51 14 95 51q104 93 104 107q0 6 -4 10h-12q-47 -18 -92 -18q-61 0 -168 30q-109 31 -156 31q-61 0 -135 -43 q-25 -14 -152 -102q-98 63 -155.5 99t-79.5 46q-164 102 -197 102q-88 0 -170 -100q-29 -35 -55.5 -70.5t-52.5 -70.5l10 -11q27 27 46 42.5t34 23.5q33 18 75 18q82 0 158 -71q-10 -14 -27.5 -33.5t-44.5 -48.5q-20 -23 -40.5 -54.5t-40.5 -76.5q-20 -41 -32.5 -78 t-19.5 -68q-10 -47 -17 -94t-11 -94q-43 -27 -76 -55q-33 -37 -58.5 -68t-41.5 -53l10 -6q37 37 80 37q27 0 63 -15q-29 -158 -55 -227q-66 -174 -164 -291q-59 -43 -86 -49zM844 258q20 14 40.5 29.5t43.5 34.5q86 80 114 194q14 51 21 205q4 55 6 63q10 16 53 17h33v-660 l-18 6q-16 0 -140 46q-129 47 -153 65z" />
<glyph unicode="&#xc7;" horiz-adv-x="1382" d="M106 729q0 -573 570 -719q57 -12 127 -12l-60 -137q158 0 158 -109q0 -49 -32.5 -78.5t-82.5 -29.5q-80 0 -133 102l-84 -61q25 -33 95 -58q61 -20 112 -20q252 0 252 157q0 133 -227 134l41 100h12q23 0 48.5 3t55.5 7q96 23 177 98q82 86 139 145.5t92 96.5l-14 14 q-86 -104 -131 -131q-121 -74 -269 -73q-63 0 -98 8v1122h-35v-1122q-221 45 -313 135q31 29 52.5 49.5t33.5 32.5q70 63 98 164q37 131 37 502v184q0 100 -2 217l25 23q10 -10 18 -18.5t18 -16.5q96 -90 209 -90q74 0 250 139l32.5 32.5t18.5 20.5l-14 12q-53 -59 -141 -59 q-78 0 -142 29q-84 51 -122 80q-18 -16 -35 -31t-31 -25q-164 -127 -190 -137q-49 -16 -76 -20q10 -47 14 -105l6 -317q-14 -10 -37 -15q-57 -8 -90 -51q-20 -27 -38.5 -49.5t-34.5 -44.5l6 -8q29 20 61 20q66 0 96 -84q23 -61 23 -137q0 -221 -72 -287q-98 82 -155 217 q-55 125 -56 263q0 121 60 323q55 180 98 250q39 49 61 68l-12 26l-246 -190q-27 -78 -46 -134.5t-33 -95.5q-43 -135 -44 -309z" />
<glyph unicode="&#xc8;" horiz-adv-x="1054" d="M-74 172q27 -4 43.5 -6t20.5 -4l264 -101q129 -49 223 -61h6v-117h37v115l6 2q162 4 332 143q88 72 90 84q2 18 -6 19q-2 0 -4 -2q-145 -92 -264 -92q-41 0 -154 24v668h203q8 0 51 -6q20 -10 34.5 -21.5t25.5 -21.5q10 35 14 55t6 24q4 10 11 27t18 39q8 20 13 31.5 t7 15.5q0 12 -14 12q-59 -20 -150 -20h-157q-53 0 -62 -2v409h-37v-421q-29 -35 -49 -57.5t-35 -37.5v453q0 51 17 74q20 31 80 30q51 0 161 -34q106 -33 156 -33q94 0 164 59q104 93 104 107q0 10 -14 10q-47 -20 -94 -20q-61 0 -168 30q-104 33 -156 33q-53 0 -129 -55 q-29 -23 -57.5 -46.5t-56.5 -45.5l-37 92q-31 68 -82 67q-119 0 -240 -127v-8q12 -4 74 6q66 0 100 -71q27 -53 27 -131v-256q-10 2 -39 2q-96 0 -189 -152q0 2 5 -10q37 10 61 10q98 0 129 -84q20 -47 21 -154q0 -182 -54 -260q-12 -18 -29.5 -28.5t-37 -16.5t-37 -10 t-27.5 -6q-18 -2 -71.5 -49t-53.5 -60v-14zM174 301q41 25 82 64q86 80 115 194q14 51 20 205q2 27 4 43t4 20q10 16 52 17h12t20 -2v-658l-18 6q-16 0 -139 46q-129 49 -152 65zM246 2212q29 -27 50 -46.5t38 -31.5q51 -55 103 -119.5t108 -138.5q16 -23 26.5 -40t18.5 -28 q59 -84 121 -84h18q0 5 4 9q-94 135 -182 356q-16 10 -39 24.5t-51 30.5q-20 12 -101 51q-84 39 -96 39t-18 -10v-12z" />
<glyph unicode="&#xc9;" horiz-adv-x="1054" d="M-74 172q27 -4 43.5 -6t20.5 -4l264 -101q129 -49 223 -61h6v-117h37v115l6 2q162 4 332 143q88 72 90 84q2 18 -6 19q-2 0 -4 -2q-145 -92 -264 -92q-41 0 -154 24v668h203q8 0 51 -6q20 -10 34.5 -21.5t25.5 -21.5q10 35 14 55t6 24q4 10 11 27t18 39q8 20 13 31.5 t7 15.5q0 12 -14 12q-59 -20 -150 -20h-157q-53 0 -62 -2v409h-37v-421q-29 -35 -49 -57.5t-35 -37.5v453q0 51 17 74q20 31 80 30q51 0 161 -34q106 -33 156 -33q94 0 164 59q104 93 104 107q0 10 -14 10q-47 -20 -94 -20q-61 0 -168 30q-104 33 -156 33q-53 0 -129 -55 q-29 -23 -57.5 -46.5t-56.5 -45.5l-37 92q-31 68 -82 67q-119 0 -240 -127v-8q12 -4 74 6q66 0 100 -71q27 -53 27 -131v-256q-10 2 -39 2q-96 0 -189 -152q0 2 5 -10q37 10 61 10q98 0 129 -84q20 -47 21 -154q0 -182 -54 -260q-12 -18 -29.5 -28.5t-37 -16.5t-37 -10 t-27.5 -6q-18 -2 -71.5 -49t-53.5 -60v-14zM174 301q41 25 82 64q86 80 115 194q14 51 20 205q2 27 4 43t4 20q10 16 52 17h12t20 -2v-658l-18 6q-16 0 -139 46q-129 49 -152 65zM598 1737q2 -4 6 -8h17q43 0 65 20q74 82 100 129q76 98 128.5 161.5t82.5 96.5 q33 29 54.5 49.5t33.5 30.5v10q-4 12 -18 12q-10 0 -78 -32q-66 -29 -117 -57.5t-92 -57.5q-45 -113 -90 -201t-92 -153z" />
<glyph unicode="&#xca;" horiz-adv-x="1054" d="M-74 172q27 -4 43.5 -6t20.5 -4l264 -101q129 -49 223 -61h6v-117h37v115l6 2q162 4 332 143q88 72 90 84q2 18 -6 19q-2 0 -4 -2q-145 -92 -264 -92q-41 0 -154 24v668h203q8 0 51 -6q20 -10 34.5 -21.5t25.5 -21.5q10 35 14 55t6 24q4 10 11 27t18 39q8 20 13 31.5 t7 15.5q0 12 -14 12q-59 -20 -150 -20h-157q-53 0 -62 -2v409h-37v-421q-29 -35 -49 -57.5t-35 -37.5v453q0 51 17 74q20 31 80 30q51 0 161 -34q106 -33 156 -33q94 0 164 59q104 93 104 107q0 10 -14 10q-47 -20 -94 -20q-61 0 -168 30q-104 33 -156 33q-53 0 -129 -55 q-29 -23 -57.5 -46.5t-56.5 -45.5l-37 92q-31 68 -82 67q-119 0 -240 -127v-8q12 -4 74 6q66 0 100 -71q27 -53 27 -131v-256q-10 2 -39 2q-96 0 -189 -152q0 2 5 -10q37 10 61 10q98 0 129 -84q20 -47 21 -154q0 -182 -54 -260q-12 -18 -29.5 -28.5t-37 -16.5t-37 -10 t-27.5 -6q-18 -2 -71.5 -49t-53.5 -60v-14zM174 301q41 25 82 64q86 80 115 194q14 51 20 205q2 27 4 43t4 20q10 16 52 17h12t20 -2v-658l-18 6q-16 0 -139 46q-129 49 -152 65zM268 1729q2 -2 2 -5q0 -2 2 -4h17q39 0 65 23q74 82 101 129q80 102 131 225 q16 -35 36.5 -71.5t47.5 -77.5q12 -20 36.5 -55t59.5 -89q59 -84 121 -84h16q2 5 6 9q-37 53 -90 167q-55 119 -92 203q-14 33 -28.5 68t-30.5 74q-72 -37 -164 -31q-12 -29 -24.5 -55.5t-22.5 -55.5q-53 -127 -100.5 -219t-88.5 -151z" />
<glyph unicode="&#xcb;" horiz-adv-x="1054" d="M-74 172q27 -4 43.5 -6t20.5 -4l264 -101q129 -49 223 -61h6v-117h37v115l6 2q162 4 332 143q88 72 90 84q2 18 -6 19q-2 0 -4 -2q-145 -92 -264 -92q-41 0 -154 24v668h203q8 0 51 -6q20 -10 34.5 -21.5t25.5 -21.5q10 35 14 55t6 24q4 10 11 27t18 39q8 20 13 31.5 t7 15.5q0 12 -14 12q-59 -20 -150 -20h-157q-53 0 -62 -2v409h-37v-421q-29 -35 -49 -57.5t-35 -37.5v453q0 51 17 74q20 31 80 30q51 0 161 -34q106 -33 156 -33q94 0 164 59q104 93 104 107q0 10 -14 10q-47 -20 -94 -20q-61 0 -168 30q-104 33 -156 33q-53 0 -129 -55 q-29 -23 -57.5 -46.5t-56.5 -45.5l-37 92q-31 68 -82 67q-119 0 -240 -127v-8q12 -4 74 6q66 0 100 -71q27 -53 27 -131v-256q-10 2 -39 2q-96 0 -189 -152q0 2 5 -10q37 10 61 10q98 0 129 -84q20 -47 21 -154q0 -182 -54 -260q-12 -18 -29.5 -28.5t-37 -16.5t-37 -10 t-27.5 -6q-18 -2 -71.5 -49t-53.5 -60v-14zM174 301q41 25 82 64q86 80 115 194q14 51 20 205q2 27 4 43t4 20q10 16 52 17h12t20 -2v-658l-18 6q-16 0 -139 46q-129 49 -152 65zM233 1837q0 -47 48 -82q45 -29 96 -29q96 1 215 138l-2 2q0 2 -2 4q-41 -20 -82 -21 q-80 0 -144 58q-23 20 -30 73q-31 -10 -60 -47q-39 -51 -39 -96zM668 1837q0 -49 49 -82q45 -29 94 -29q98 1 215 138l-2 2q0 2 -2 4q-41 -20 -82 -21q-80 0 -143 58q-25 20 -31 73q-33 -10 -57 -47q-41 -53 -41 -96z" />
<glyph unicode="&#xcc;" horiz-adv-x="972" d="M-41 1300q0 -37 29 -36q16 0 35.5 23.5t23.5 43.5q12 92 31 119q29 47 102 47q74 0 240 -57v-443q-35 -29 -59.5 -49t-41.5 -35q-78 -66 -77 -88q0 -10 10 -14q8 -4 14 2q47 59 129 59q6 0 25 -6v-647q-39 16 -74 17q-111 0 -244 -109q-119 -100 -118 -133q0 -14 18 -41 h12q8 0 15 18q39 117 159 117q72 0 232 -63v-119h33v106q80 -27 135 -26q157 0 360 219q12 12 8 28q-6 16 -18 17q-16 0 -31 -25q-41 -55 -67 -73q-39 -23 -99 -23q-49 0 -143 31q-14 4 -36.5 12t-51.5 18l65 64q150 137 150 358v596q0 147 57 248q-2 2 -4 3t-4 3l-115 -102 q-74 -68 -90 -111q-18 -59 -18 -121v-116l-4 -2q-53 27 -60 26q-14 0 -28 -6q-2 2 -3 4t-3 4v392q35 -14 82 -15q92 0 170 43q47 29 79.5 49.5t49.5 32.5q20 14 20 29q0 29 -18 14q-57 -45 -105 -45q-113 0 -174 21q-72 25 -104 36v101h-33v-92q-51 10 -103 10 q-74 0 -131 -39q-123 -84 -159 -121q-68 -68 -68 -154zM113 2212q29 -27 50 -46.5t38 -31.5q51 -55 103 -119.5t108 -138.5q16 -23 26.5 -40t18.5 -28q59 -84 121 -84h18l4 9q-94 135 -182 356q-16 10 -39 24.5t-51 30.5q-20 12 -101 51q-84 39 -96 39t-18 -10v-12zM453 209 v649q98 -47 98 -201v-194q0 -141 -76 -262q-23 6 -22 8z" />
<glyph unicode="&#xcd;" horiz-adv-x="972" d="M-41 1300q0 -37 29 -36q16 0 35.5 23.5t23.5 43.5q12 92 31 119q29 47 102 47q74 0 240 -57v-443q-35 -29 -59.5 -49t-41.5 -35q-78 -66 -77 -88q0 -10 10 -14q8 -4 14 2q47 59 129 59q6 0 25 -6v-647q-39 16 -74 17q-111 0 -244 -109q-119 -100 -118 -133q0 -14 18 -41 h12q8 0 15 18q39 117 159 117q72 0 232 -63v-119h33v106q80 -27 135 -26q157 0 360 219q12 12 8 28q-6 16 -18 17q-16 0 -31 -25q-41 -55 -67 -73q-39 -23 -99 -23q-49 0 -143 31q-14 4 -36.5 12t-51.5 18l65 64q150 137 150 358v596q0 147 57 248q-2 2 -4 3t-4 3l-115 -102 q-74 -68 -90 -111q-18 -59 -18 -121v-116l-4 -2q-53 27 -60 26q-14 0 -28 -6q-2 2 -3 4t-3 4v392q35 -14 82 -15q92 0 170 43q47 29 79.5 49.5t49.5 32.5q20 14 20 29q0 29 -18 14q-57 -45 -105 -45q-113 0 -174 21q-72 25 -104 36v101h-33v-92q-51 10 -103 10 q-74 0 -131 -39q-123 -84 -159 -121q-68 -68 -68 -154zM299 1729q2 -2 2 -5q0 -2 2 -4h19q37 0 63 23q39 41 63.5 73.5t38.5 55.5q74 98 126.5 161.5t84.5 96.5q31 29 52.5 48.5t35.5 29.5v12q-6 10 -18 10q-8 0 -78 -30q-125 -57 -209 -115q-88 -221 -182 -356zM453 209 v649q98 -47 98 -201v-194q0 -141 -76 -262q-23 6 -22 8z" />
<glyph unicode="&#xce;" horiz-adv-x="972" d="M-41 1300q0 -37 29 -36q16 0 35.5 23.5t23.5 43.5q12 92 31 119q29 47 102 47q74 0 240 -57v-443q-35 -29 -59.5 -49t-41.5 -35q-78 -66 -77 -88q0 -10 10 -14q8 -4 14 2q47 59 129 59q6 0 25 -6v-647q-39 16 -74 17q-111 0 -244 -109q-119 -100 -118 -133q0 -14 18 -41 h12q8 0 15 18q39 117 159 117q72 0 232 -63v-119h33v106q80 -27 135 -26q157 0 360 219q12 12 8 28q-6 16 -18 17q-16 0 -31 -25q-41 -55 -67 -73q-39 -23 -99 -23q-49 0 -143 31q-14 4 -36.5 12t-51.5 18l65 64q150 137 150 358v596q0 147 57 248q-2 2 -4 3t-4 3l-115 -102 q-74 -68 -90 -111q-18 -59 -18 -121v-116l-4 -2q-53 27 -60 26q-14 0 -28 -6q-2 2 -3 4t-3 4v392q35 -14 82 -15q92 0 170 43q47 29 79.5 49.5t49.5 32.5q20 14 20 29q0 29 -18 14q-57 -45 -105 -45q-113 0 -174 21q-72 25 -104 36v101h-33v-92q-51 10 -103 10 q-74 0 -131 -39q-123 -84 -159 -121q-68 -68 -68 -154zM143 1729q4 -4 4 -9h19q37 0 63 23q39 43 63.5 74.5t39.5 54.5q80 102 131 225q16 -35 36.5 -71.5t47.5 -77.5q12 -20 35.5 -55t58.5 -89q59 -84 123 -84h16l4 9q-37 53 -90 167q-55 119 -92 203q-14 33 -28.5 68 t-28.5 74q-74 -37 -164 -31q-14 -29 -25.5 -55.5t-21.5 -55.5q-106 -250 -191 -370zM453 209v649q98 -47 98 -201v-194q0 -141 -76 -262q-23 6 -22 8z" />
<glyph unicode="&#xcf;" horiz-adv-x="972" d="M-41 1300q0 -37 29 -36q16 0 35.5 23.5t23.5 43.5q12 92 31 119q29 47 102 47q74 0 240 -57v-443q-35 -29 -59.5 -49t-41.5 -35q-78 -66 -77 -88q0 -10 10 -14q8 -4 14 2q47 59 129 59q6 0 25 -6v-647q-39 16 -74 17q-111 0 -244 -109q-119 -100 -118 -133q0 -14 18 -41 h12q8 0 15 18q39 117 159 117q72 0 232 -63v-119h33v106q80 -27 135 -26q157 0 360 219q12 12 8 28q-6 16 -18 17q-16 0 -31 -25q-41 -55 -67 -73q-39 -23 -99 -23q-49 0 -143 31q-14 4 -36.5 12t-51.5 18l65 64q150 137 150 358v596q0 147 57 248q-2 2 -4 3t-4 3l-115 -102 q-74 -68 -90 -111q-18 -59 -18 -121v-116l-4 -2q-53 27 -60 26q-14 0 -28 -6q-2 2 -3 4t-3 4v392q35 -14 82 -15q92 0 170 43q47 29 79.5 49.5t49.5 32.5q20 14 20 29q0 29 -18 14q-57 -45 -105 -45q-113 0 -174 21q-72 25 -104 36v101h-33v-92q-51 10 -103 10 q-74 0 -131 -39q-123 -84 -159 -121q-68 -68 -68 -154zM84 1837q0 -47 47 -82q45 -29 96 -29q98 1 215 138l-2 2q0 2 -2 4q-41 -20 -82 -21q-80 0 -143 58q-23 20 -31 73q-33 -10 -57 -47q-41 -53 -41 -96zM453 209v649q98 -47 98 -201v-194q0 -141 -76 -262q-23 6 -22 8z M518 1837q0 -49 49 -82q45 -29 97 -29q96 1 215 138l-7 6q-41 -20 -79 -21q-82 0 -146 58q-23 20 -31 73q-29 -10 -57 -47q-41 -53 -41 -96z" />
<glyph unicode="&#xd0;" horiz-adv-x="1400" d="M-35 10q0 -2 4 -10q70 117 279 117q88 0 229 -31q51 -10 209 -55q127 -35 199 -43q74 0 178 133q66 86 107.5 145.5t62.5 93.5q76 138 76 285q0 100 -47 248q-92 193 -254 293q-102 63 -330 106q-219 45 -442 45q16 25 24 37l8 12l-4 5q-10 0 -86 -80 q-25 -29 -49.5 -55.5t-50.5 -53.5q207 -16 318.5 -26.5t127.5 -14.5q274 -43 428 -172q174 -147 215 -422q2 -14 3 -31.5t1 -37.5q0 -217 -147 -365q-104 18 -184 43q-18 6 -160 55q-111 39 -297 39q-221 0 -293 -77q-20 -27 -40.5 -51.5t-41.5 -51.5q-43 -59 -43 -80z M231 535q23 10 63 29.5t95 51.5q16 -70 17 -112q0 -90 -46 -187q18 0 64 64q16 25 32.5 49.5t32.5 48.5q41 92 41 168q0 29 -6 58q58 45 62 61q-16 0 -68 -31q-4 10 -14 40t-31 79q-27 68 -27 123q0 66 37 133q-18 0 -86 -84q-66 -84 -75 -127q-2 -6 -3 -41q0 -27 11 -67 q4 -14 8 -31t12 -37q10 -29 17.5 -46.5t9.5 -25.5q-135 -94 -146 -116z" />
<glyph unicode="&#xd1;" horiz-adv-x="1392" d="M2 -12q2 -2 4 -3t4 -3q47 29 94 28q45 0 125 -20.5t127 -20.5q43 0 56 4q39 18 96 64q8 8 28.5 26.5t55.5 51.5q8 8 4 14q-2 2 -8 2t-8 -2q-18 -8 -25 -8q-18 -8 -72 -8q-78 0 -123 12q-98 20 -102 33q164 229 164 585q0 39 -3 97.5l-7 136.5t-6.5 136t-2.5 97 q0 53 11 105q2 2 4 3t4 3q59 -74 117 -199l247 -612q39 -104 68 -166q143 -340 291 -340q33 0 57 10q23 14 49.5 36t55.5 54q57 66 90 103q-4 4 -6 10q-2 4 -17 8q-51 -63 -94 -63q-45 0 -96 43v1143q0 37 16 90q8 -2 17.5 -1t23.5 3q59 6 119 49q53 41 84 62.5t39 25.5 t12 8l6 6l-16 15q8 0 -23 -9q-49 -14 -94 -14q-39 0 -98 14q-70 16 -101 17q-147 0 -292 -144q-4 -14 -3 -16q-2 -2 -4 -2l17 -2q39 20 98 20q150 0 150 -157v-879v-37q0 -20 -2 -43q-2 -35 -3 -53v-22q-6 -6 -8 -3q-55 88 -129 259l-108 264q-57 135 -95 227t-61 143 q-174 438 -369 439q-104 0 -194 -72q-96 -78 -96 -111q0 -4 8 -12q82 35 121 35q129 0 200 -102q-92 -104 -92 -283v-105q-47 0 -106 -40q-18 -12 -74 -72q-61 -66 -61 -88q0 -6 12 -15q45 37 78 37q63 0 103 -44t46 -107q8 -119 6 -170q-12 -197 -82 -273 q-4 -4 -30.5 -24.5t-77.5 -55.5q-86 -61 -119 -118zM459 1755l28 -26q76 123 119 122q31 0 119 -69q78 -59 133 -60q63 0 109 58q57 71 100 143l-29 23q-55 -80 -92 -80q-35 0 -158 86q-90 59 -106 59q-57 0 -135 -121q-16 -27 -39 -60.5t-49 -74.5z" />
<glyph unicode="&#xd2;" horiz-adv-x="1622" d="M109 762q0 -264 139 -428q160 -190 358 -273q20 -10 68 -18v-135h33v129l77 -12q88 0 156 28q49 23 180 111q35 25 74 55.5t80 69.5q117 111 160 196q82 163 82 353q0 74 -25 176q-63 254 -244 370q-82 55 -174 103q-201 100 -196 178q-31 -16 -82 -84q-49 -68 -50 -100 q0 -23 23 -72q14 -29 22.5 -47.5t10.5 -28.5q25 -115 24 -266q0 -121 -18 -190q-27 -106 -100 -154v889h-33v-907q-57 -33 -119 -132q-18 -31 -18 -41q0 -14 38 -12q45 4 99 51v-315q-18 10 -37 22.5t-39 26.5q-184 127 -250 275q-49 113 -49 294q0 150 51 347 q8 33 24.5 67.5t39.5 73.5q53 86 100 108q74 31 74 43v11q-4 4 -8.5 7t-6.5 5q-37 -14 -49 -23q-147 -111 -200 -165q-215 -219 -215 -586zM453 2208q29 -27 50 -46.5t38 -31.5q51 -55 103 -119.5t108 -138.5q14 -23 25 -40t20 -28q59 -84 121 -84h18q0 7 2 9 q-45 66 -90 154.5t-90 201.5q-35 20 -92 55q-10 8 -36 20.5t-65 30.5q-80 39 -94 39t-18 -10v-12zM707 240v362q8 12 10 14q66 121 96 187q117 248 117 448q0 39 -6 86q16 -6 30.5 -11t24.5 -9q170 -72 287 -252q116 -183 116 -367q0 -201 -88 -331q-57 -86 -145 -138 q-94 -57 -191 -57q-117 0 -251 68z" />
<glyph unicode="&#xd3;" horiz-adv-x="1622" d="M109 762q0 -264 139 -428q160 -190 358 -273q20 -10 68 -18v-135h33v129l77 -12q88 0 156 28q49 23 180 111q35 25 74 55.5t80 69.5q117 111 160 196q82 163 82 353q0 74 -25 176q-63 254 -244 370q-82 55 -174 103q-201 100 -196 178q-31 -16 -82 -84q-49 -68 -50 -100 q0 -23 23 -72q14 -29 22.5 -47.5t10.5 -28.5q25 -115 24 -266q0 -121 -18 -190q-27 -106 -100 -154v889h-33v-907q-57 -33 -119 -132q-18 -31 -18 -41q0 -14 38 -12q45 4 99 51v-315q-18 10 -37 22.5t-39 26.5q-184 127 -250 275q-49 113 -49 294q0 150 51 347 q8 33 24.5 67.5t39.5 73.5q53 86 100 108q74 31 74 43v11q-4 4 -8.5 7t-6.5 5q-37 -14 -49 -23q-147 -111 -200 -165q-215 -219 -215 -586zM707 240v362q8 12 10 14q66 121 96 187q117 248 117 448q0 39 -6 86q16 -6 30.5 -11t24.5 -9q170 -72 287 -252q116 -183 116 -367 q0 -201 -88 -331q-57 -86 -145 -138q-94 -57 -191 -57q-117 0 -251 68zM737 1733q2 -2 2 -4t2 -5h19q37 0 63 23q39 41 63.5 73.5t39.5 55.5q74 98 126 161.5t85 96.5q31 29 52.5 48.5t35.5 29.5v12q-6 10 -21 10q-6 0 -76 -30q-125 -57 -208 -115q-88 -221 -183 -356z" />
<glyph unicode="&#xd4;" horiz-adv-x="1622" d="M109 762q0 -264 139 -428q160 -190 358 -273q20 -10 68 -18v-135h33v129l77 -12q88 0 156 28q49 23 180 111q35 25 74 55.5t80 69.5q117 111 160 196q82 163 82 353q0 74 -25 176q-63 254 -244 370q-82 55 -174 103q-201 100 -196 178q-31 -16 -82 -84q-49 -68 -50 -100 q0 -23 23 -72q14 -29 22.5 -47.5t10.5 -28.5q25 -115 24 -266q0 -121 -18 -190q-27 -106 -100 -154v889h-33v-907q-57 -33 -119 -132q-18 -31 -18 -41q0 -14 38 -12q45 4 99 51v-315q-18 10 -37 22.5t-39 26.5q-184 127 -250 275q-49 113 -49 294q0 150 51 347 q8 33 24.5 67.5t39.5 73.5q53 86 100 108q74 31 74 43v11q-4 4 -8.5 7t-6.5 5q-37 -14 -49 -23q-147 -111 -200 -165q-215 -219 -215 -586zM487 1729q2 -2 2 -5q0 -2 3 -4h16q39 0 65 23q74 82 101 129q80 102 131 225q16 -35 36.5 -71.5t47.5 -77.5q12 -20 36.5 -55 t59.5 -89q59 -84 121 -84h16q2 5 6 9q-37 53 -90 167q-59 119 -92 203q-14 33 -28.5 68t-30.5 74q-74 -37 -164 -31q-12 -29 -24.5 -55.5t-22.5 -55.5q-53 -127 -100.5 -219t-88.5 -151zM707 240v362q8 12 10 14q66 121 96 187q117 248 117 448q0 39 -6 86q16 -6 30.5 -11 t24.5 -9q170 -72 287 -252q116 -183 116 -367q0 -201 -88 -331q-57 -86 -145 -138q-94 -57 -191 -57q-117 0 -251 68z" />
<glyph unicode="&#xd5;" horiz-adv-x="1622" d="M109 762q0 -264 139 -428q160 -190 358 -273q20 -10 68 -18v-135h33v129l77 -12q88 0 156 28q49 23 180 111q35 25 74 55.5t80 69.5q117 111 160 196q82 163 82 353q0 74 -25 176q-63 254 -244 370q-82 55 -174 103q-201 100 -196 178q-31 -16 -82 -84q-49 -68 -50 -100 q0 -23 23 -72q14 -29 22.5 -47.5t10.5 -28.5q25 -115 24 -266q0 -121 -18 -190q-27 -106 -100 -154v889h-33v-907q-57 -33 -119 -132q-18 -31 -18 -41q0 -14 38 -12q45 4 99 51v-315q-18 10 -37 22.5t-39 26.5q-184 127 -250 275q-49 113 -49 294q0 150 51 347 q8 33 24.5 67.5t39.5 73.5q53 86 100 108q74 31 74 43v11q-4 4 -8.5 7t-6.5 5q-37 -14 -49 -23q-147 -111 -200 -165q-215 -219 -215 -586zM477 1759l31 -26q76 123 119 122q29 0 116 -69q78 -59 134 -60q63 0 108 58q29 37 54 72.5t48 70.5l-28 23q-59 -80 -92 -80 q-37 0 -160 86q-88 59 -105 59q-59 0 -137 -121q-16 -27 -37.5 -60.5t-50.5 -74.5zM707 240v362q8 12 10 14q66 121 96 187q117 248 117 448q0 39 -6 86q16 -6 30.5 -11t24.5 -9q170 -72 287 -252q116 -183 116 -367q0 -201 -88 -331q-57 -86 -145 -138q-94 -57 -191 -57 q-117 0 -251 68z" />
<glyph unicode="&#xd6;" horiz-adv-x="1622" d="M109 762q0 -264 139 -428q160 -190 358 -273q20 -10 68 -18v-135h33v129l77 -12q88 0 156 28q49 23 180 111q35 25 74 55.5t80 69.5q117 111 160 196q82 163 82 353q0 74 -25 176q-63 254 -244 370q-82 55 -174 103q-201 100 -196 178q-31 -16 -82 -84q-49 -68 -50 -100 q0 -23 23 -72q14 -29 22.5 -47.5t10.5 -28.5q25 -115 24 -266q0 -121 -18 -190q-27 -106 -100 -154v889h-33v-907q-57 -33 -119 -132q-18 -31 -18 -41q0 -14 38 -12q45 4 99 51v-315q-18 10 -37 22.5t-39 26.5q-184 127 -250 275q-49 113 -49 294q0 150 51 347 q8 33 24.5 67.5t39.5 73.5q53 86 100 108q74 31 74 43v11q-4 4 -8.5 7t-6.5 5q-37 -14 -49 -23q-147 -111 -200 -165q-215 -219 -215 -586zM430 1835q0 -51 49 -84q41 -27 96 -27q97 1 216 138l-7 6q-39 -20 -79 -21q-82 0 -146 58q-23 23 -29 71q-31 -6 -59 -45 q-41 -53 -41 -96zM707 240v362q8 12 10 14q66 121 96 187q117 248 117 448q0 39 -6 86q16 -6 30.5 -11t24.5 -9q170 -72 287 -252q116 -183 116 -367q0 -201 -88 -331q-57 -86 -145 -138q-94 -57 -191 -57q-117 0 -251 68zM866 1835q0 -49 47 -84q41 -27 97 -27 q98 1 215 138l-6 6q-39 -20 -80 -21q-80 0 -144 58q-25 23 -30 71q-31 -6 -60 -45q-39 -51 -39 -96z" />
<glyph unicode="&#xd7;" horiz-adv-x="1228" d="M141 166l74 -74l397 402l402 -402l73 74l-401 399l401 400l-73 73l-402 -401l-397 401l-74 -73l400 -400z" />
<glyph unicode="&#xd8;" horiz-adv-x="1222" d="M41 578q0 -154 72 -314q14 -31 28.5 -55.5t28.5 -40.5l-107 -119l17 -18l108 121q162 -180 428 -181h2q68 0 357 299q178 187 178 463q0 248 -125 359l80 96l-12 18l-86 -96q-16 14 -53 42t-97 69q-51 35 -89 66.5t-66 60.5q0 8 16 24q0 12 -6 17q-59 -23 -416 -320 q-258 -176 -258 -491zM143 666q0 121 68 272q27 57 147 154q33 27 83.5 62.5t119.5 82.5q23 -29 62 -62.5t96 -72.5q121 -86 164 -133l-588 -660q-152 152 -152 357zM313 293l588 657l4 -4q142 -184 142 -366q0 -143 -91 -301q-27 -35 -94 -86q-84 -63 -137 -66 q-238 0 -412 166z" />
<glyph unicode="&#xd9;" horiz-adv-x="1888" d="M-2 815q0 -43 7 -96t42 -101q41 -53 90 -53q33 0 47 27q10 12 45 86t35 84q0 4 -4 12q-27 -14 -43 -14q-35 0 -74 39q-61 57 -61 186q0 94 31 178q53 131 166 213q119 88 256 88q147 0 230 -78.5t83 -226.5q0 -197 -29 -254q-20 2 -33.5 3t-21.5 1q-117 0 -219 -145 q-8 -14 -12.5 -24.5t-8.5 -18.5q4 0 6 -2q51 55 97 55q14 0 32.5 -4t36 -11t32.5 -16.5t22 -19.5q23 -35 22 -105q0 -20 -1 -50.5t-3 -71.5t-3 -72t-1 -51q0 -211 96 -320q45 -51 144 -51q96 0 210 107q96 88 179 217q2 2 12 2q4 -25 8 -42.5t6 -27.5q16 -70 43 -131 q55 -125 125 -125q33 0 53 21l7 -3v-131l32 -2v185q14 20 25.5 35.5t19.5 25.5q45 63 56 98h-13q-47 -29 -73 -28h-15v1319q57 39 90 60.5t43 29.5l-8 20q-76 -29 -108 -28q-10 0 -17 2v69h-32v-76h-56q-12 0 -32.5 3.5t-42 8.5t-42 8t-32.5 3q-66 0 -105 -20 q-49 -25 -67 -37q-25 -14 -55.5 -40t-69.5 -61q-2 -4 -2 -10h12q66 41 121 41q35 0 94 -14q33 -6 56.5 -9.5t39.5 -5.5q-70 -68 -69 -96v-876q0 -121 -72 -218q-78 -104 -195 -104q-166 0 -210 193q-8 31 -9 147q0 137 43 408q45 268 45 407q0 262 -344 262 q-190 0 -395 -174q-111 -92 -201 -282q-61 -135 -61 -318zM823 2212q29 -27 50.5 -46.5t37.5 -31.5q51 -55 103.5 -119.5t107.5 -138.5q16 -23 26.5 -40t18.5 -28q59 -84 121 -84h19l4 9q-94 135 -183 356q-16 10 -38.5 24.5t-51.5 30.5q-10 8 -35.5 20.5t-64.5 30.5 q-80 39 -94 39t-21 -10v-12zM1550 557q-4 506 0 817q0 113 90 123l7 4v-1280q-12 10 -17 17q-51 66 -65 159q-6 35 -9.5 75t-5.5 85z" />
<glyph unicode="&#xda;" horiz-adv-x="1888" d="M-2 815q0 -43 7 -96t42 -101q41 -53 90 -53q33 0 47 27q10 12 45 86t35 84q0 4 -4 12q-27 -14 -43 -14q-35 0 -74 39q-61 57 -61 186q0 94 31 178q53 131 166 213q119 88 256 88q147 0 230 -78.5t83 -226.5q0 -197 -29 -254q-20 2 -33.5 3t-21.5 1q-117 0 -219 -145 q-8 -14 -12.5 -24.5t-8.5 -18.5q4 0 6 -2q51 55 97 55q14 0 32.5 -4t36 -11t32.5 -16.5t22 -19.5q23 -35 22 -105q0 -20 -1 -50.5t-3 -71.5t-3 -72t-1 -51q0 -211 96 -320q45 -51 144 -51q96 0 210 107q96 88 179 217q2 2 12 2q4 -25 8 -42.5t6 -27.5q16 -70 43 -131 q55 -125 125 -125q33 0 53 21l7 -3v-131l32 -2v185q14 20 25.5 35.5t19.5 25.5q45 63 56 98h-13q-47 -29 -73 -28h-15v1319q57 39 90 60.5t43 29.5l-8 20q-76 -29 -108 -28q-10 0 -17 2v69h-32v-76h-56q-12 0 -32.5 3.5t-42 8.5t-42 8t-32.5 3q-66 0 -105 -20 q-49 -25 -67 -37q-25 -14 -55.5 -40t-69.5 -61q-2 -4 -2 -10h12q66 41 121 41q35 0 94 -14q33 -6 56.5 -9.5t39.5 -5.5q-70 -68 -69 -96v-876q0 -121 -72 -218q-78 -104 -195 -104q-166 0 -210 193q-8 31 -9 147q0 137 43 408q45 268 45 407q0 262 -344 262 q-190 0 -395 -174q-111 -92 -201 -282q-61 -135 -61 -318zM1122 1733q2 -2 2 -4t2 -5h19q37 0 63 23q39 41 63.5 73.5t39.5 55.5q74 98 126 161.5t85 96.5q31 29 52.5 48.5t35.5 29.5v12q-6 10 -21 10q-6 0 -76 -30q-125 -57 -208 -115q-88 -221 -183 -356zM1550 557 q-4 506 0 817q0 113 90 123l7 4v-1280q-12 10 -17 17q-51 66 -65 159q-6 35 -9.5 75t-5.5 85z" />
<glyph unicode="&#xdb;" horiz-adv-x="1888" d="M-2 815q0 -43 7 -96t42 -101q41 -53 90 -53q33 0 47 27q10 12 45 86t35 84q0 4 -4 12q-27 -14 -43 -14q-35 0 -74 39q-61 57 -61 186q0 94 31 178q53 131 166 213q119 88 256 88q147 0 230 -78.5t83 -226.5q0 -197 -29 -254q-20 2 -33.5 3t-21.5 1q-117 0 -219 -145 q-8 -14 -12.5 -24.5t-8.5 -18.5q4 0 6 -2q51 55 97 55q14 0 32.5 -4t36 -11t32.5 -16.5t22 -19.5q23 -35 22 -105q0 -20 -1 -50.5t-3 -71.5t-3 -72t-1 -51q0 -211 96 -320q45 -51 144 -51q96 0 210 107q96 88 179 217q2 2 12 2q4 -25 8 -42.5t6 -27.5q16 -70 43 -131 q55 -125 125 -125q33 0 53 21l7 -3v-131l32 -2v185q14 20 25.5 35.5t19.5 25.5q45 63 56 98h-13q-47 -29 -73 -28h-15v1319q57 39 90 60.5t43 29.5l-8 20q-76 -29 -108 -28q-10 0 -17 2v69h-32v-76h-56q-12 0 -32.5 3.5t-42 8.5t-42 8t-32.5 3q-66 0 -105 -20 q-49 -25 -67 -37q-25 -14 -55.5 -40t-69.5 -61q-2 -4 -2 -10h12q66 41 121 41q35 0 94 -14q33 -6 56.5 -9.5t39.5 -5.5q-70 -68 -69 -96v-876q0 -121 -72 -218q-78 -104 -195 -104q-166 0 -210 193q-8 31 -9 147q0 137 43 408q45 268 45 407q0 262 -344 262 q-190 0 -395 -174q-111 -92 -201 -282q-61 -135 -61 -318zM877 1729q2 -2 2 -5q0 -2 2 -4h16q39 0 66 23q74 82 100 129q80 102 131 225q16 -35 36.5 -71.5t47.5 -77.5q12 -20 36.5 -55t59.5 -89q59 -84 121 -84h16q3 5 7 9q-37 53 -91 167q-59 119 -92 203q-14 33 -28.5 68 t-30.5 74q-74 -37 -164 -31q-12 -29 -24.5 -55.5t-22.5 -55.5q-53 -127 -100 -219t-88 -151zM1550 557q-4 506 0 817q0 113 90 123l7 4v-1280q-12 10 -17 17q-51 66 -65 159q-6 35 -9.5 75t-5.5 85z" />
<glyph unicode="&#xdc;" horiz-adv-x="1888" d="M-2 815q0 -43 7 -96t42 -101q41 -53 90 -53q33 0 47 27q10 12 45 86t35 84q0 4 -4 12q-27 -14 -43 -14q-35 0 -74 39q-61 57 -61 186q0 94 31 178q53 131 166 213q119 88 256 88q147 0 230 -78.5t83 -226.5q0 -197 -29 -254q-20 2 -33.5 3t-21.5 1q-117 0 -219 -145 q-8 -14 -12.5 -24.5t-8.5 -18.5q4 0 6 -2q51 55 97 55q14 0 32.5 -4t36 -11t32.5 -16.5t22 -19.5q23 -35 22 -105q0 -20 -1 -50.5t-3 -71.5t-3 -72t-1 -51q0 -211 96 -320q45 -51 144 -51q96 0 210 107q96 88 179 217q2 2 12 2q4 -25 8 -42.5t6 -27.5q16 -70 43 -131 q55 -125 125 -125q33 0 53 21l7 -3v-131l32 -2v185q14 20 25.5 35.5t19.5 25.5q45 63 56 98h-13q-47 -29 -73 -28h-15v1319q57 39 90 60.5t43 29.5l-8 20q-76 -29 -108 -28q-10 0 -17 2v69h-32v-76h-56q-12 0 -32.5 3.5t-42 8.5t-42 8t-32.5 3q-66 0 -105 -20 q-49 -25 -67 -37q-25 -14 -55.5 -40t-69.5 -61q-2 -4 -2 -10h12q66 41 121 41q35 0 94 -14q33 -6 56.5 -9.5t39.5 -5.5q-70 -68 -69 -96v-876q0 -121 -72 -218q-78 -104 -195 -104q-166 0 -210 193q-8 31 -9 147q0 137 43 408q45 268 45 407q0 262 -344 262 q-190 0 -395 -174q-111 -92 -201 -282q-61 -135 -61 -318zM772 1839q0 -49 47 -84q41 -27 96 -26q98 0 215 137l-2 2q0 2 -2 4q-41 -20 -82 -21q-80 0 -143 58q-23 23 -31 71q-31 -6 -59 -45q-39 -51 -39 -96zM1206 1839q0 -51 49 -84q41 -27 97 -26q96 0 215 137l-6 6 q-41 -20 -80 -21q-82 0 -146 58q-23 23 -30 71q-27 -6 -58 -45q-41 -53 -41 -96zM1550 557q-4 506 0 817q0 113 90 123l7 4v-1280q-12 10 -17 17q-51 66 -65 159q-6 35 -9.5 75t-5.5 85z" />
<glyph unicode="&#xdd;" horiz-adv-x="1701" d="M8 942q0 -55 35 -102q37 -49 90 -49q31 0 41 12q94 119 94 137v16q-4 0 -11 -2t-11 -2q-23 0 -52.5 24.5t-37.5 47.5q-16 43 -17 102q0 141 94 236q94 98 234 98q156 0 238 -100q63 -76 63 -260q0 -82 -12 -127l-41 10q-57 0 -123 -47q-55 -41 -90 -100q12 -4 14 -5 q10 2 19.5 3.5t19.5 1.5q150 0 150 -113q0 -31 -6.5 -78t-20.5 -110q-25 -127 -25 -189q0 -102 37 -184q51 -119 166 -119q90 0 186 74q33 27 77 74t102 112l39 49q6 -37 6 -114q0 -227 -33 -324q-45 -147 -78 -188q-57 -76 -178 -76q-209 0 -381 135q-109 86 -109 174 q0 41 15 53q12 10 18 16.5t8 8.5l-22 6q-31 -23 -88 -102q-59 -90 -60 -125q0 -104 185 -211q156 -92 239 -92q115 0 181 34q135 76 245 185q127 127 164 241q51 147 51 320v829q0 121 25 193q25 74 129 106q59 20 104 33.5t74 24.5q18 6 75.5 45t57.5 51v24h-24 q-16 0 -66 -51q-27 -27 -125 -26l-96 8q-82 4 -96 6q-84 0 -142 -31q-10 -4 -52 -32.5t-118 -79.5l7 -13q80 39 143 35q35 -2 70.5 -3t74.5 -5q-197 -152 -196 -274v-549q0 -88 -21 -142q-14 -45 -31.5 -77.5t-37.5 -55.5q-94 -100 -191 -100q-90 0 -141 86q-45 76 -45 170 q0 70 47 289q78 365 78 495q0 156 -70 250q-78 111 -223 111q-164 0 -357 -168q-180 -160 -239 -324q-29 -80 -29 -176zM1122 1733q2 -2 2 -4t2 -5h19q37 0 63 23q39 41 63.5 73.5t39.5 55.5q74 98 126 161.5t85 96.5q31 29 52.5 48.5t35.5 29.5v12q-6 10 -21 10 q-6 0 -76 -30q-125 -57 -208 -115q-88 -221 -183 -356z" />
<glyph unicode="&#xde;" horiz-adv-x="999" d="M-121 1849q74 -133 128 -226t89 -146l897 -1397q23 -37 45.5 -68.5t42.5 -60.5l117 -57q-106 145 -139 194q-483 721 -916 1419q-117 193 -159 271z" />
<glyph unicode="&#xdf;" horiz-adv-x="909" d="M2 1069l23 -12q33 27 81 26h78v-657q0 -59 -20 -135q-14 -29 -24.5 -51.5t-18.5 -38.5v-15q25 -10 29 -16q100 -199 159 -199q29 0 199 164v15q0 4 -2 4q-6 0 -8 -2q-4 0 -22.5 -10.5t-22.5 -10.5q-31 0 -107 123v680l260 139q51 -45 51 -119q0 -104 -135 -239l31 -17 q29 29 61 29q76 0 76 -102q0 -84 -55 -250q-53 -170 -53 -250q0 -98 92 -154q76 -47 162 -47q149 1 149 99q0 29 -20 49h-21q-29 -63 -51 -80q-29 -27 -88 -27q-82 0 -137 58q-49 51 -50 102q0 68 113 207q115 145 115 243q0 156 -213 191v25q86 47 125 86q55 57 55 133 q0 53 -35 98q-12 14 -73 70h-29l-330 -197v293q0 131 27 244q8 49 65 86q49 31 92 30q43 0 66 -47q12 -23 18 -35l7 -12q23 0 49 51q29 51 28 74q0 45 -73 45q-94 0 -385 -141q-109 -35 -160 -43q-4 -4 -8 -6t-6 -4v-13q18 -10 33.5 -17t25.5 -11q59 -55 59 -166v-127h-129z " />
<glyph unicode="&#xe0;" horiz-adv-x="882" d="M61 1798q29 -27 50.5 -45t38.5 -33q51 -55 103 -119.5t107 -138.5q16 -23 26.5 -39t19.5 -26q59 -84 120 -84h19q2 2 2 4t2 4q-94 131 -182 354q-35 25 -91 58q-10 6 -35.5 18t-64.5 31q-88 41 -94 41q-14 0 -21 -13v-12zM86 172q57 -16 115 -68q66 -59 61 -108l12 -10 q51 35 79 54t32 23q29 25 54.5 49.5t47.5 49.5q23 20 41.5 32.5t28.5 20.5q23 -41 38 -69.5t26 -43.5q29 -29 49 -51t37 -39l174 138l-4 12q-31 -2 -46 14q-121 168 -120 199v487q0 35 43 101v10q-59 14 -92 37l-236 151q-88 -72 -143.5 -116t-79.5 -62q-72 -55 -72 -123 q0 -57 47 -57q31 0 31 80q0 68 31 96q8 6 18 13t21 18q74 -27 143 -74q96 -68 117 -100v-93q-59 -16 -104.5 -26t-74.5 -19q-47 -10 -78.5 -18t-52.5 -16q-63 -14 -100 -15q-4 -4 -6 -7t-4 -5q10 -35 10 -45v-293q0 -63 -43 -127zM299 283q18 70 14 221q-4 86 19 151l207 56 v-473l-105 -88z" />
<glyph unicode="&#xe1;" horiz-adv-x="882" d="M86 172q57 -16 115 -68q66 -59 61 -108l12 -10q51 35 79 54t32 23q29 25 54.5 49.5t47.5 49.5q23 20 41.5 32.5t28.5 20.5q23 -41 38 -69.5t26 -43.5q29 -29 49 -51t37 -39l174 138l-4 12q-31 -2 -46 14q-121 168 -120 199v487q0 35 43 101v10q-59 14 -92 37l-236 151 q-88 -72 -143.5 -116t-79.5 -62q-72 -55 -72 -123q0 -57 47 -57q31 0 31 80q0 68 31 96q8 6 18 13t21 18q74 -27 143 -74q96 -68 117 -100v-93q-59 -16 -104.5 -26t-74.5 -19q-47 -10 -78.5 -18t-52.5 -16q-63 -14 -100 -15q-4 -4 -6 -7t-4 -5q10 -35 10 -45v-293 q0 -63 -43 -127zM299 283q18 70 14 221q-4 86 19 151l207 56v-473l-105 -88zM354 1321q2 -4 6 -8h17q43 0 65 20q70 80 101 129q74 98 126 162t85 96q31 29 52.5 48.5t35.5 29.5v12q-4 12 -19 13q-10 0 -78 -33q-66 -29 -116.5 -57.5t-91.5 -57.5q-88 -223 -183 -354z" />
<glyph unicode="&#xe2;" horiz-adv-x="882" d="M86 172q57 -16 115 -68q66 -59 61 -108l12 -10q51 35 79 54t32 23q29 25 54.5 49.5t47.5 49.5q23 20 41.5 32.5t28.5 20.5q23 -41 38 -69.5t26 -43.5q29 -29 49 -51t37 -39l174 138l-4 12q-31 -2 -46 14q-121 168 -120 199v487q0 35 43 101v10q-59 14 -92 37l-236 151 q-88 -72 -143.5 -116t-79.5 -62q-72 -55 -72 -123q0 -57 47 -57q31 0 31 80q0 68 31 96q8 6 18 13t21 18q74 -27 143 -74q96 -68 117 -100v-93q-59 -16 -104.5 -26t-74.5 -19q-47 -10 -78.5 -18t-52.5 -16q-63 -14 -100 -15q-4 -4 -6 -7t-4 -5q10 -35 10 -45v-293 q0 -63 -43 -127zM139 1321l4 -8h17q43 0 65 20q74 82 101 129q39 51 71.5 106.5t59.5 119.5q16 -35 36.5 -72t47.5 -78q12 -20 36.5 -55t59.5 -86q59 -84 121 -84h16q2 2 3 4t3 4q-18 27 -40.5 68t-49.5 100q-55 119 -92 203q-14 33 -28.5 67.5t-30.5 73.5q-70 -39 -164 -33 q-12 -29 -24.5 -55.5t-22.5 -52.5q-53 -127 -100.5 -219.5t-88.5 -151.5zM299 283q18 70 14 221q-4 86 19 151l207 56v-473l-105 -88z" />
<glyph unicode="&#xe3;" horiz-adv-x="882" d="M86 172q57 -16 115 -68q66 -59 61 -108l12 -10q51 35 79 54t32 23q29 25 54.5 49.5t47.5 49.5q23 20 41.5 32.5t28.5 20.5q23 -41 38 -69.5t26 -43.5q29 -29 49 -51t37 -39l174 138l-4 12q-31 -2 -46 14q-121 168 -120 199v487q0 35 43 101v10q-59 14 -92 37l-236 151 q-88 -72 -143.5 -116t-79.5 -62q-72 -55 -72 -123q0 -57 47 -57q31 0 31 80q0 68 31 96q8 6 18 13t21 18q74 -27 143 -74q96 -68 117 -100v-93q-59 -16 -104.5 -26t-74.5 -19q-47 -10 -78.5 -18t-52.5 -16q-63 -14 -100 -15q-4 -4 -6 -7t-4 -5q10 -35 10 -45v-293 q0 -63 -43 -127zM174 1384l31 -26q76 123 119 123q27 0 116 -72q76 -57 133 -57q66 0 109 57q29 35 54 70.5t48 70.5l-28 25q-57 -82 -92 -82q-37 0 -160 86q-86 61 -105 61q-61 0 -137 -122q-16 -27 -37.5 -60t-50.5 -74zM299 283q18 70 14 221q-4 86 19 151l207 56v-473 l-105 -88z" />
<glyph unicode="&#xe4;" horiz-adv-x="882" d="M86 172q57 -16 115 -68q66 -59 61 -108l12 -10q51 35 79 54t32 23q29 25 54.5 49.5t47.5 49.5q23 20 41.5 32.5t28.5 20.5q23 -41 38 -69.5t26 -43.5q29 -29 49 -51t37 -39l174 138l-4 12q-31 -2 -46 14q-121 168 -120 199v487q0 35 43 101v10q-59 14 -92 37l-236 151 q-88 -72 -143.5 -116t-79.5 -62q-72 -55 -72 -123q0 -57 47 -57q31 0 31 80q0 68 31 96q8 6 18 13t21 18q74 -27 143 -74q96 -68 117 -100v-93q-59 -16 -104.5 -26t-74.5 -19q-47 -10 -78.5 -18t-52.5 -16q-63 -14 -100 -15q-4 -4 -6 -7t-4 -5q10 -35 10 -45v-293 q0 -63 -43 -127zM94 1470q0 -49 47 -84q41 -27 97 -26q98 0 215 135l-2 2q0 2 -2 4q-43 -18 -82 -18q-80 0 -144 55q-23 20 -30 74q-31 -6 -60 -45q-39 -51 -39 -97zM299 283q18 70 14 221q-4 86 19 151l207 56v-473l-105 -88zM528 1470q0 -51 50 -84q41 -27 96 -26 q94 0 215 135l-6 6q-43 -18 -80 -18q-82 0 -146 55q-23 20 -30 74q-31 -6 -58 -45q-41 -53 -41 -97z" />
<glyph unicode="&#xe5;" horiz-adv-x="882" d="M86 172q57 -16 115 -68q66 -59 61 -108l12 -10q51 35 79 54t32 23q29 25 54.5 49.5t47.5 49.5q23 20 41.5 32.5t28.5 20.5q23 -41 38 -69.5t26 -43.5q29 -29 49 -51t37 -39l174 138l-4 12q-31 -2 -46 14q-121 168 -120 199v487q0 35 43 101v10q-59 14 -92 37l-236 151 q-88 -72 -143.5 -116t-79.5 -62q-72 -55 -72 -123q0 -57 47 -57q31 0 31 80q0 68 31 96q8 6 18 13t21 18q74 -27 143 -74q96 -68 117 -100v-93q-59 -16 -104.5 -26t-74.5 -19q-47 -10 -78.5 -18t-52.5 -16q-63 -14 -100 -15q-4 -4 -6 -7t-4 -5q10 -35 10 -45v-293 q0 -63 -43 -127zM211 1532q0 -98 64.5 -163.5t162.5 -65.5t164 65.5t66 163.5t-65.5 162.5t-164.5 64.5q-98 0 -162.5 -64.5t-64.5 -162.5zM289 1532q0 61 44 105t105 44q63 0 107.5 -44t44.5 -105t-44 -105.5t-108 -44.5q-61 0 -105 44t-44 106zM299 283q18 70 14 221 q-4 86 19 151l207 56v-473l-105 -88z" />
<glyph unicode="&#xe6;" horiz-adv-x="1089" d="M66 156q57 -16 114 -68q68 -59 62 -108l12 -11q51 35 78.5 54.5t32.5 23.5q41 35 79.5 70t73.5 69q45 -51 96.5 -101t110.5 -101q74 53 129 92t92 65q96 74 96 117q0 33 -30 33q-20 0 -29 -15q-6 -18 -12 -36.5t-15 -36.5q-25 -55 -69 -56q-20 0 -68 35q-129 98 -129 176 v512q0 63 15 119q4 18 23.5 40t37.5 22q37 0 72 -80q23 -55 26 -86q2 -6 2 -41q0 -115 -61 -191q-25 -25 -31 -28q-57 -33 -57 -54q0 -12 10 -22h10q12 0 60 49q18 20 31.5 34.5t23.5 24.5q188 178 188 301q0 55 -49 189q-14 39 -57 39q-31 0 -125 -68l-104 -76 q-20 -10 -40 -19t-40 -19l-219 141q-90 -72 -145.5 -117t-78.5 -61q-70 -55 -69 -123q0 -57 45 -58q31 0 30 80q0 68 31 97q8 8 18.5 15t20.5 15q55 -16 143 -73q74 -47 117 -93v-102q-63 -16 -106 -26.5t-70 -16.5q-47 -10 -81 -18.5t-50 -16.5q-84 -18 -119 -18 q14 -37 14 -54v-294q0 -59 -40 -125zM279 266q18 78 16 219q-2 88 0 150l223 59v-280q0 -70 -20 -150q-14 -57 -27 -76q-10 -20 -55 -57z" />
<glyph unicode="&#xe7;" horiz-adv-x="722" d="M86 178q68 4 199 -119q18 -16 31.5 -28.5t21.5 -20.5l-64 -143q158 0 158 -109q0 -49 -32.5 -78.5t-82.5 -29.5q-80 0 -133 102l-84 -61q23 -33 97 -58q59 -20 110 -20q252 0 252 158q0 133 -227 133l43 102q119 80 135 109q20 39 82 94q33 29 56.5 50.5t39.5 35.5v12 h-14q-29 -14 -105 -76q-70 -53 -77 -53q-16 0 -72 43q-23 16 -41.5 28.5t-30.5 20.5q-57 45 -57 58q0 6 3 17t6 25.5t6 28t3 19.5q4 47 5 88t-1 76l-16 383v18t2 27q2 10 14 22q49 0 127 -61q72 -59 101 -109q10 -16 10 -39q0 -12 -4 -36.5t-4 -36.5q0 -27 16 -43h12 q12 82 23 106q8 20 53 98q33 51 35 64q0 25 -33 63q-23 25 -39 43.5t-30 28.5q-74 55 -111 55q-20 0 -35 -10q-328 -229 -328 -246q0 -4 3.5 -13t7.5 -21.5t7 -22.5t3 -12v-500q0 -29 -8 -64q-4 -12 -19 -40q-14 -27 -14 -33v-25z" />
<glyph unicode="&#xe8;" horiz-adv-x="694" d="M14 1798q29 -27 50.5 -45t37.5 -33q51 -55 103.5 -119.5t107.5 -138.5q14 -23 25.5 -39t19.5 -26q59 -84 121 -84h19q0 4 4 8q-94 131 -183 354q-16 12 -39.5 26.5t-52.5 31.5q-23 12 -98 49q-88 41 -96 41q-16 0 -19 -13v-12zM78 176l24.5 7t16.5 7q16 -20 27.5 -35.5 t19.5 -27.5q109 -102 164 -145q47 35 74.5 54t35.5 23q41 29 69 49.5t44 30.5q94 74 94 117q0 10 -10 21.5t-21 11.5q-20 0 -28 -15q-6 -18 -12.5 -36.5t-14.5 -36.5q-25 -55 -69 -56q-18 0 -65.5 35t-77.5 63.5t-44 51.5q-20 33 -20 74q0 10 6 29.5t6 27.5q2 61 3 93t1 36 v391q0 10 8 41q4 18 23.5 40t38.5 22q37 0 71 -80q23 -55 27 -86q2 -6 2 -41q0 -115 -61 -191q-10 -10 -17.5 -17t-11.5 -11q-59 -31 -59 -54q0 -14 12 -22h8q12 0 59 49q18 20 31.5 34.5t24.5 24.5q188 178 188 301q0 55 -49 189q-14 39 -57 39q-31 0 -125 -68l-105 -76 q-47 -23 -78.5 -37t-48.5 -22q-37 -16 -59.5 -26.5t-30.5 -14.5q31 -43 31 -61v-465q0 -70 -21 -150q-2 -4 -5 -13t-9 -26l-10 -35v-14z" />
<glyph unicode="&#xe9;" horiz-adv-x="694" d="M78 176l24.5 7t16.5 7q16 -20 27.5 -35.5t19.5 -27.5q109 -102 164 -145q47 35 74.5 54t35.5 23q41 29 69 49.5t44 30.5q94 74 94 117q0 10 -10 21.5t-21 11.5q-20 0 -28 -15q-6 -18 -12.5 -36.5t-14.5 -36.5q-25 -55 -69 -56q-18 0 -65.5 35t-77.5 63.5t-44 51.5 q-20 33 -20 74q0 10 6 29.5t6 27.5q2 61 3 93t1 36v391q0 10 8 41q4 18 23.5 40t38.5 22q37 0 71 -80q23 -55 27 -86q2 -6 2 -41q0 -115 -61 -191q-10 -10 -17.5 -17t-11.5 -11q-59 -31 -59 -54q0 -14 12 -22h8q12 0 59 49q18 20 31.5 34.5t24.5 24.5q188 178 188 301 q0 55 -49 189q-14 39 -57 39q-31 0 -125 -68l-105 -76q-47 -23 -78.5 -37t-48.5 -22q-37 -16 -59.5 -26.5t-30.5 -14.5q31 -43 31 -61v-465q0 -70 -21 -150q-2 -4 -5 -13t-9 -26l-10 -35v-14zM313 1321l4 -8h19q41 0 63 20q39 41 63.5 74t39.5 55q74 98 126 162t85 96 q31 29 52.5 48.5t35.5 29.5v12q-6 12 -21 13q-8 0 -75 -33q-66 -29 -117 -57.5t-92 -57.5q-88 -223 -183 -354z" />
<glyph unicode="&#xea;" horiz-adv-x="694" d="M78 176l24.5 7t16.5 7q16 -20 27.5 -35.5t19.5 -27.5q109 -102 164 -145q47 35 74.5 54t35.5 23q41 29 69 49.5t44 30.5q94 74 94 117q0 10 -10 21.5t-21 11.5q-20 0 -28 -15q-6 -18 -12.5 -36.5t-14.5 -36.5q-25 -55 -69 -56q-18 0 -65.5 35t-77.5 63.5t-44 51.5 q-20 33 -20 74q0 10 6 29.5t6 27.5q2 61 3 93t1 36v391q0 10 8 41q4 18 23.5 40t38.5 22q37 0 71 -80q23 -55 27 -86q2 -6 2 -41q0 -115 -61 -191q-10 -10 -17.5 -17t-11.5 -11q-59 -31 -59 -54q0 -14 12 -22h8q12 0 59 49q18 20 31.5 34.5t24.5 24.5q188 178 188 301 q0 55 -49 189q-14 39 -57 39q-31 0 -125 -68l-105 -76q-47 -23 -78.5 -37t-48.5 -22q-37 -16 -59.5 -26.5t-30.5 -14.5q31 -43 31 -61v-465q0 -70 -21 -150q-2 -4 -5 -13t-9 -26l-10 -35v-14zM88 1321l4 -8h17q43 0 65 20q74 82 100 129q39 51 72 106.5t60 119.5 q16 -35 36.5 -72t46.5 -78q12 -20 37 -55t60 -86q59 -84 121 -84h18q0 4 4 8q-18 27 -40.5 68t-49.5 100q-55 119 -92 203q-14 33 -28.5 67.5t-31.5 73.5q-70 -39 -163 -33q-12 -29 -24.5 -55.5t-23.5 -52.5q-53 -127 -100 -219.5t-88 -151.5z" />
<glyph unicode="&#xeb;" horiz-adv-x="694" d="M39 1470q0 -49 47 -84q41 -27 96 -26q98 0 215 135l-2 2q0 2 -2 4q-43 -18 -82 -18q-80 0 -143 55q-23 20 -31 74q-31 -6 -57 -45q-41 -53 -41 -97zM78 176l24.5 7t16.5 7q16 -20 27.5 -35.5t19.5 -27.5q109 -102 164 -145q47 35 74.5 54t35.5 23q41 29 69 49.5t44 30.5 q94 74 94 117q0 10 -10 21.5t-21 11.5q-20 0 -28 -15q-6 -18 -12.5 -36.5t-14.5 -36.5q-25 -55 -69 -56q-18 0 -65.5 35t-77.5 63.5t-44 51.5q-20 33 -20 74q0 10 6 29.5t6 27.5q2 61 3 93t1 36v391q0 10 8 41q4 18 23.5 40t38.5 22q37 0 71 -80q23 -55 27 -86q2 -6 2 -41 q0 -115 -61 -191q-10 -10 -17.5 -17t-11.5 -11q-59 -31 -59 -54q0 -14 12 -22h8q12 0 59 49q18 20 31.5 34.5t24.5 24.5q188 178 188 301q0 55 -49 189q-14 39 -57 39q-31 0 -125 -68l-105 -76q-47 -23 -78.5 -37t-48.5 -22q-37 -16 -59.5 -26.5t-30.5 -14.5q31 -43 31 -61 v-465q0 -70 -21 -150q-2 -4 -5 -13t-9 -26l-10 -35v-14zM473 1470q0 -51 49 -84q41 -27 96 -26q95 0 216 135l-7 6q-43 -18 -79 -18q-82 0 -146 55q-23 20 -31 74q-27 -6 -57 -45q-41 -53 -41 -97z" />
<glyph unicode="&#xec;" horiz-adv-x="509" d="M-33 1798q29 -27 49.5 -45t36.5 -33q51 -55 103.5 -119.5t107.5 -138.5q16 -23 26.5 -39t18.5 -26q59 -84 121 -84h19q2 2 2 4t2 4q-94 131 -183 354q-35 25 -90 58q-10 6 -35.5 18t-64.5 31q-86 41 -92 41q-14 0 -21 -13v-12zM61 1024q16 -16 30.5 -29.5t25.5 -21.5 q10 -12 33 -62q20 -49 20 -82v-495q0 -16 -31 -141q0 -12 54 -103q45 -82 102 -82q39 0 115 66q27 23 47.5 44.5t36.5 41.5q-2 6 -9 12q-18 -6 -32 -6q-18 0 -54 29q-27 20 -37 41q-18 31 -18 59v620q0 10 6 29q16 43 17 41l10 19q6 12 6 18q-10 2 -19.5 3t-13.5 1 q-18 27 -31.5 45.5t-21.5 30.5q-43 59 -61 59q-20 0 -111 -82q-39 -27 -64 -41v-14z" />
<glyph unicode="&#xed;" horiz-adv-x="509" d="M61 1024q16 -16 30.5 -29.5t25.5 -21.5q10 -12 33 -62q20 -49 20 -82v-495q0 -16 -31 -141q0 -12 54 -103q45 -82 102 -82q39 0 115 66q27 23 47.5 44.5t36.5 41.5q-2 6 -9 12q-18 -6 -32 -6q-18 0 -54 29q-27 20 -37 41q-18 31 -18 59v620q0 10 6 29q16 43 17 41l10 19 q6 12 6 18q-10 2 -19.5 3t-13.5 1q-18 27 -31.5 45.5t-21.5 30.5q-43 59 -61 59q-20 0 -111 -82q-39 -27 -64 -41v-14zM205 1321l4 -8h16q43 0 66 20q74 80 100 129q76 98 128 162t83 96q33 29 54.5 48.5t33.5 29.5v12q-4 12 -18 13q-8 0 -76 -33q-66 -29 -118 -57.5 t-93 -57.5q-45 -113 -89 -201t-91 -153z" />
<glyph unicode="&#xee;" horiz-adv-x="509" d="M-27 1321l4 -8h19q39 0 61 20q39 43 63.5 75t39.5 54q39 51 71.5 106.5t59.5 119.5q16 -35 36.5 -72t47.5 -78q12 -20 35.5 -55t58.5 -86q59 -84 123 -84h16q2 2 2 4t2 4q-18 27 -40.5 68t-49.5 100q-55 119 -92 203q-14 33 -28.5 67.5t-28.5 73.5q-72 -39 -164 -33 q-14 -29 -25.5 -55.5t-21.5 -52.5q-53 -127 -100.5 -219.5t-88.5 -151.5zM61 1024q16 -16 30.5 -29.5t25.5 -21.5q10 -12 33 -62q20 -49 20 -82v-495q0 -16 -31 -141q0 -12 54 -103q45 -82 102 -82q39 0 115 66q27 23 47.5 44.5t36.5 41.5q-2 6 -9 12q-18 -6 -32 -6 q-18 0 -54 29q-27 20 -37 41q-18 31 -18 59v620q0 10 6 29q16 43 17 41l10 19q6 12 6 18q-10 2 -19.5 3t-13.5 1q-18 27 -31.5 45.5t-21.5 30.5q-43 59 -61 59q-20 0 -111 -82q-39 -27 -64 -41v-14z" />
<glyph unicode="&#xef;" horiz-adv-x="509" d="M-72 1470q0 -49 47 -84q39 -27 95 -26q98 0 215 135l-2 2q0 2 -2 4q-43 -18 -82 -18q-80 0 -144 55q-23 20 -30 74q-27 -6 -58 -45q-39 -51 -39 -97zM61 1024q16 -16 30.5 -29.5t25.5 -21.5q10 -12 33 -62q20 -49 20 -82v-495q0 -16 -31 -141q0 -12 54 -103 q45 -82 102 -82q39 0 115 66q27 23 47.5 44.5t36.5 41.5q-2 6 -9 12q-18 -6 -32 -6q-18 0 -54 29q-27 20 -37 41q-18 31 -18 59v620q0 10 6 29q16 43 17 41l10 19q6 12 6 18q-10 2 -19.5 3t-13.5 1q-18 27 -31.5 45.5t-21.5 30.5q-43 59 -61 59q-20 0 -111 -82 q-39 -27 -64 -41v-14zM360 1470q0 -51 50 -84q41 -27 96 -26q94 0 215 135l-6 6q-43 -18 -80 -18q-82 0 -146 55q-23 20 -30 74q-31 -6 -58 -45q-41 -53 -41 -97z" />
<glyph unicode="&#xf0;" horiz-adv-x="804" d="M-18 1188q0 -55 102 -135q-49 -37 -57 -52q12 0 34 13q39 23 41 24q82 -59 154 -92q174 -80 279 -221q96 -133 96 -270q0 -10 -1 -26.5t-1 -35.5q0 -16 -1 -32.5t-1 -24.5q-20 -180 -129 -180q-113 0 -240 157q-14 20 -17 64.5t-5 89.5q-2 16 -3 47v78v6q0 219 13 274 q-20 0 -80 -57q-59 -59 -80 -98h18v-41q0 -25 -2 -64v-114v-58t2 -57q6 -154 41 -213q33 -57 185 -168q18 -8 55 -8q35 0 59 8q63 74 106.5 127t65.5 86q74 106 129 240q2 16 3.5 39.5t1.5 52.5q0 174 -74 291q-59 92 -180 170q-55 33 -110.5 65.5t-113.5 67.5 q104 66 109 92q-18 0 -139 -72q-23 16 -41.5 29.5t-30.5 23.5q-55 39 -55 105q0 10 12 26.5t12 24.5q-16 0 -80 -70q-59 -66 -73 -94q-4 -16 -4 -18z" />
<glyph unicode="&#xf1;" horiz-adv-x="929" d="M0 1008l12 -15q20 14 29 15q39 0 88 -76q45 -70 45 -117v-498q0 4 -3 -11t-7 -52q-2 -6 -8 -27.5t-6 -27.5q0 -8 2 -11q27 -20 55 -65q33 -53 49 -81t20 -32q14 -14 31 -14q8 0 80 53q31 27 53.5 45.5t38.5 32.5q4 12 4 16q-51 -8 -98 54q-41 57 -41 106v563q4 18 35 64 q39 57 65 57q45 0 111 -74q37 -41 55 -94q10 -31 11 -61v-459q0 -29 -7 -41q-2 -2 -5 -8t-11 -17q-12 -18 -12 -20v-23q51 -4 84 -88l4 -6q41 -96 82 -96q14 0 22 8q170 127 170 154v10q-23 -2 -31 -3t-4 -1q-31 0 -77 53q-49 61 -50 125v664q-10 -4 -19 -8.5l-17 -8.5 q-23 29 -41.5 48.5t-28.5 33.5q-66 78 -90 78q-29 0 -121 -86q-86 -82 -127 -121q-6 20 -16 35q-8 31 -60 104q-59 84 -88 84q-8 0 -41 -30q-27 -27 -54.5 -53.5t-59.5 -55.5q-8 -8 -13.5 -13t-9.5 -9zM207 1384l29 -26q76 123 118 123q29 0 119 -72q76 -57 133 -57 q63 0 109 57q29 35 53 70.5t47 70.5l-29 25q-55 -82 -92 -82q-35 0 -157 86q-90 61 -107 61q-59 0 -135 -122q-16 -27 -39 -60t-49 -74z" />
<glyph unicode="&#xf2;" horiz-adv-x="765" d="M86 166q0 -8 4 -12h29q113 -172 170 -172q37 0 219 174q119 113 170 176q-20 29 -21 41v565q0 14 7 74q6 57 6 35q0 8 -13 18h-20h-16q-25 0 -103 41q-72 39 -92 65q-6 8 -18 9l-15 -4q-45 -39 -75.5 -66t-49.5 -43q-27 -18 -46 -31.5t-32 -23.5q-49 -35 -71 -68 q-4 -8 -2 -22q6 -23 6 -31v-502q0 -86 -12 -156q-16 -55 -25 -67zM109 1798q29 -27 50 -45t38 -33q51 -55 103 -119.5t108 -138.5q16 -23 26 -39t19 -26q59 -84 120 -84h19q2 2 2 4t2 4q-94 131 -182 354q-35 25 -90 58q-12 6 -37 18t-64 31q-88 41 -94 41q-14 0 -20 -13 v-12zM276 373v661q59 -45 116 -75.5t108 -51.5v-626q0 -139 -66 -140q-12 0 -63 39q-94 76 -95 193z" />
<glyph unicode="&#xf3;" horiz-adv-x="765" d="M86 166q0 -8 4 -12h29q113 -172 170 -172q37 0 219 174q119 113 170 176q-20 29 -21 41v565q0 14 7 74q6 57 6 35q0 8 -13 18h-20h-16q-25 0 -103 41q-72 39 -92 65q-6 8 -18 9l-15 -4q-45 -39 -75.5 -66t-49.5 -43q-27 -18 -46 -31.5t-32 -23.5q-49 -35 -71 -68 q-4 -8 -2 -22q6 -23 6 -31v-502q0 -86 -12 -156q-16 -55 -25 -67zM276 373v661q59 -45 116 -75.5t108 -51.5v-626q0 -139 -66 -140q-12 0 -63 39q-94 76 -95 193zM332 1321l4 -8h16q43 0 66 20q74 80 100 129q76 98 128 162t83 96q33 29 54.5 48.5t33.5 29.5v12 q-4 12 -18 13q-8 0 -76 -33q-66 -29 -118 -57.5t-93 -57.5q-45 -113 -89 -201t-91 -153z" />
<glyph unicode="&#xf4;" horiz-adv-x="765" d="M86 166q0 -8 4 -12h29q113 -172 170 -172q37 0 219 174q119 113 170 176q-20 29 -21 41v565q0 14 7 74q6 57 6 35q0 8 -13 18h-20h-16q-25 0 -103 41q-72 39 -92 65q-6 8 -18 9l-15 -4q-45 -39 -75.5 -66t-49.5 -43q-27 -18 -46 -31.5t-32 -23.5q-49 -35 -71 -68 q-4 -8 -2 -22q6 -23 6 -31v-502q0 -86 -12 -156q-16 -55 -25 -67zM86 1321l4 -8h19q41 0 63 20q80 90 102 129q39 51 72 106.5t60 119.5q16 -35 36.5 -72t46.5 -78q12 -20 37 -55t60 -86q59 -84 121 -84h16q2 2 2 4t2 4q-35 49 -88 168q-59 119 -92 203q-16 33 -30.5 67.5 t-29.5 73.5q-72 -39 -163 -33q-12 -29 -24.5 -55.5t-23.5 -52.5q-106 -250 -190 -371zM276 373v661q59 -45 116 -75.5t108 -51.5v-626q0 -139 -66 -140q-12 0 -63 39q-94 76 -95 193z" />
<glyph unicode="&#xf5;" horiz-adv-x="765" d="M86 166q0 -8 4 -12h29q113 -172 170 -172q37 0 219 174q119 113 170 176q-20 29 -21 41v565q0 14 7 74q6 57 6 35q0 8 -13 18h-20h-16q-25 0 -103 41q-72 39 -92 65q-6 8 -18 9l-15 -4q-45 -39 -75.5 -66t-49.5 -43q-27 -18 -46 -31.5t-32 -23.5q-49 -35 -71 -68 q-4 -8 -2 -22q6 -23 6 -31v-502q0 -86 -12 -156q-16 -55 -25 -67zM86 1384l31 -26q76 123 119 123q27 0 116 -72q76 -57 133 -57q66 0 111 57q29 35 53 70.5t47 70.5l-28 25q-57 -82 -93 -82q-37 0 -159 86q-86 61 -105 61q-61 0 -137 -122q-16 -27 -37.5 -60t-50.5 -74z M276 373v661q59 -45 116 -75.5t108 -51.5v-626q0 -139 -66 -140q-12 0 -63 39q-94 76 -95 193z" />
<glyph unicode="&#xf6;" horiz-adv-x="765" d="M35 1470q0 -51 49 -84q41 -27 94 -26q98 0 215 135l-2 2q0 2 -2 4q-43 -18 -82 -18q-80 0 -143 55q-23 20 -31 74q-31 -6 -57 -45q-41 -53 -41 -97zM86 166q0 -8 4 -12h29q113 -172 170 -172q37 0 219 174q119 113 170 176q-20 29 -21 41v565q0 14 7 74q6 57 6 35 q0 8 -13 18h-20h-16q-25 0 -103 41q-72 39 -92 65q-6 8 -18 9l-15 -4q-45 -39 -75.5 -66t-49.5 -43q-27 -18 -46 -31.5t-32 -23.5q-49 -35 -71 -68q-4 -8 -2 -22q6 -23 6 -31v-502q0 -86 -12 -156q-16 -55 -25 -67zM276 373v661q59 -45 116 -75.5t108 -51.5v-626 q0 -139 -66 -140q-12 0 -63 39q-94 76 -95 193zM469 1470q0 -51 49 -84q41 -27 96 -26q94 0 215 135l-6 6q-43 -18 -80 -18q-82 0 -145 55q-23 20 -31 74q-27 -6 -57 -45q-41 -53 -41 -97z" />
<glyph unicode="&#xf7;" horiz-adv-x="1228" d="M98 514h1032v102h-1032v-102zM500 141q0 -47 34.5 -80.5t81.5 -33.5q43 0 78 35.5t35 78.5q0 45 -35 80t-80 35q-47 0 -80.5 -34t-33.5 -81zM500 989q0 -47 34.5 -81t81.5 -34q43 0 78 36t35 79q0 45 -35 80t-80 35q-47 0 -80.5 -34t-33.5 -81z" />
<glyph unicode="&#xf8;" horiz-adv-x="731" d="M0 117l18 -23l80 88q37 -147 193 -205q53 0 215 193q170 205 170 303v21q0 166 -49 264l108 119q-4 0 -11 9t-7 13q-23 -23 -49.5 -51.5t-55.5 -61.5q-41 70 -180 197q-10 10 -10 18q0 4 6 11.5t6 11.5q-141 -94 -346 -301q2 -35 3 -61.5t1 -43.5q0 -20 -1 -51.5t-3 -77 t-2 -79.5v-58q0 -63 6 -133zM217 354v244q0 256 57 264q29 -25 55.5 -49.5t53.5 -48.5q65 -62 100 -117zM223 319l277 299q4 -8 6 -14q35 -94 35 -203q0 -213 -129 -276q-160 78 -189 194z" />
<glyph unicode="&#xf9;" horiz-adv-x="1017" d="M88 1014q0 -8 10 -13q43 0 68 -49q20 -39 20 -86v-540q0 -68 -20 -162q23 -6 51 -35q29 -31 51.5 -54.5t36.5 -39.5q53 -53 90 -53q23 0 119 84l125 112l29 -59q10 -23 27.5 -45.5t43.5 -42.5q57 -45 105 -45q12 0 39 16q72 61 114 97t52 46l-17 15q-37 -39 -53 -39 t-49 31q-16 14 -26.5 24t-16.5 17q-59 59 -72 131q-6 45 -6 61v553q0 55 41 92q-84 133 -127 133q-14 0 -90 -63q-70 -57 -78 -70v-18q76 -39 76 -80v-580q0 -102 -31 -172q-12 -33 -59 -33t-140 95q-41 45 -41 63v674q0 68 -2 74q-8 43 -63 84q-10 8 -18.5 13t-12.5 7 q-18 0 -108 -76q-68 -55 -68 -67zM133 1798q29 -27 50.5 -45t37.5 -33q51 -55 103.5 -119.5t107.5 -138.5q16 -23 26.5 -39t18.5 -26q59 -84 121 -84h18q2 2 2 4q1 2 3 4q-94 131 -183 354q-35 25 -90 58q-10 6 -35.5 18t-64.5 31q-86 41 -94 41q-14 0 -21 -13v-12z" />
<glyph unicode="&#xfa;" horiz-adv-x="1017" d="M88 1014q0 -8 10 -13q43 0 68 -49q20 -39 20 -86v-540q0 -68 -20 -162q23 -6 51 -35q29 -31 51.5 -54.5t36.5 -39.5q53 -53 90 -53q23 0 119 84l125 112l29 -59q10 -23 27.5 -45.5t43.5 -42.5q57 -45 105 -45q12 0 39 16q72 61 114 97t52 46l-17 15q-37 -39 -53 -39 t-49 31q-16 14 -26.5 24t-16.5 17q-59 59 -72 131q-6 45 -6 61v553q0 55 41 92q-84 133 -127 133q-14 0 -90 -63q-70 -57 -78 -70v-18q76 -39 76 -80v-580q0 -102 -31 -172q-12 -33 -59 -33t-140 95q-41 45 -41 63v674q0 68 -2 74q-8 43 -63 84q-10 8 -18.5 13t-12.5 7 q-18 0 -108 -76q-68 -55 -68 -67zM403 1321q4 -8 5 -8h18q41 0 63 20q39 41 64 74t39 55q74 98 126 162t85 96q31 29 52.5 48.5t35.5 29.5v12q-6 12 -21 13q-8 0 -75 -33q-66 -29 -117 -57.5t-92 -57.5q-88 -223 -183 -354z" />
<glyph unicode="&#xfb;" horiz-adv-x="1017" d="M88 1014q0 -8 10 -13q43 0 68 -49q20 -39 20 -86v-540q0 -68 -20 -162q23 -6 51 -35q29 -31 51.5 -54.5t36.5 -39.5q53 -53 90 -53q23 0 119 84l125 112l29 -59q10 -23 27.5 -45.5t43.5 -42.5q57 -45 105 -45q12 0 39 16q72 61 114 97t52 46l-17 15q-37 -39 -53 -39 t-49 31q-16 14 -26.5 24t-16.5 17q-59 59 -72 131q-6 45 -6 61v553q0 55 41 92q-84 133 -127 133q-14 0 -90 -63q-70 -57 -78 -70v-18q76 -39 76 -80v-580q0 -102 -31 -172q-12 -33 -59 -33t-140 95q-41 45 -41 63v674q0 68 -2 74q-8 43 -63 84q-10 8 -18.5 13t-12.5 7 q-18 0 -108 -76q-68 -55 -68 -67zM182 1321l4 -8h17q43 0 65 20q74 82 101 129q39 51 71.5 106.5t59.5 119.5q16 -35 36.5 -72t47.5 -78q12 -20 36.5 -55t59.5 -86q59 -84 121 -84h16q2 2 3 4t3 4q-18 27 -40.5 68t-49.5 100q-55 119 -92 203q-14 33 -28.5 67.5t-30.5 73.5 q-70 -39 -164 -33q-12 -29 -24.5 -55.5t-22.5 -52.5q-53 -127 -100.5 -219.5t-88.5 -151.5z" />
<glyph unicode="&#xfc;" horiz-adv-x="1017" d="M88 1014q0 -8 10 -13q43 0 68 -49q20 -39 20 -86v-540q0 -68 -20 -162q23 -6 51 -35q29 -31 51.5 -54.5t36.5 -39.5q53 -53 90 -53q23 0 119 84l125 112l29 -59q10 -23 27.5 -45.5t43.5 -42.5q57 -45 105 -45q12 0 39 16q72 61 114 97t52 46l-17 15q-37 -39 -53 -39 t-49 31q-16 14 -26.5 24t-16.5 17q-59 59 -72 131q-6 45 -6 61v553q0 55 41 92q-84 133 -127 133q-14 0 -90 -63q-70 -57 -78 -70v-18q76 -39 76 -80v-580q0 -102 -31 -172q-12 -33 -59 -33t-140 95q-41 45 -41 63v674q0 68 -2 74q-8 43 -63 84q-10 8 -18.5 13t-12.5 7 q-18 0 -108 -76q-68 -55 -68 -67zM160 1470q0 -51 49 -84q41 -27 94 -26q98 0 215 135l-2 2q0 2 -2 4q-43 -18 -82 -18q-80 0 -143 55q-23 20 -31 74q-31 -6 -57 -45q-41 -53 -41 -97zM596 1470q0 -49 47 -84q41 -27 96 -26q94 0 215 135l-6 6q-43 -18 -80 -18 q-82 0 -143 55q-23 20 -33 74q-27 -6 -57 -45q-39 -51 -39 -97z" />
<glyph unicode="&#xfd;" horiz-adv-x="948" d="M16 -303q0 -82 74 -137q63 -49 152 -49q166 0 325 129q188 152 248 297q29 68 29 155q0 47 -31 152q-29 109 -29 151v512q0 8 13 37q66 53 111.5 94t70.5 68v14l-8 4h-13l-9 -4t-21.5 -9t-25.5 -9t-25 -4q-35 0 -82 20q-4 2 -54 31q-35 18 -47 18q-33 0 -106 -67 q-72 -66 -72 -84q4 -4 4 -6q4 0 13.5 1t13.5 1q23 0 76 -51q0 4 0 -3q0 -4 2 -18v-14l-2 -490q0 -268 -97 -268q-59 0 -166 104q-16 16 -16 33q4 399 0 545q0 31 14 80l13 51q0 14 -54 90q-47 70 -61 78q-16 12 -41 12q-45 0 -149 -149q-4 -8 -5 -21q57 -2 93 -63 q27 -45 26 -105v-493q0 -100 -35 -142v-12q35 -33 60.5 -56.5t42.5 -39.5q72 -66 129 -66q47 0 125 74q57 53 89 84t40 37q14 -31 20 -64q31 -158 31 -213q0 -133 -66 -211q-72 -86 -200 -86q-96 0 -174 48q-82 51 -113 139q-4 18 6 72q0 6 -6 12q-18 -4 -39 -35 q-74 -109 -74 -174zM403 1321q4 -8 5 -8h18q41 0 63 20q39 41 64 74t39 55q74 98 126 162t85 96q31 29 52.5 48.5t35.5 29.5v12q-6 12 -21 13q-8 0 -75 -33q-66 -29 -117 -57.5t-92 -57.5q-88 -223 -183 -354z" />
<glyph unicode="&#xfe;" horiz-adv-x="1163" d="M-176 -438q0 -45 53 -45q70 0 191 80q96 63 172 137q23 16 36 26.5t21 14.5q20 10 38.5 18t39.5 17q14 8 14 22q-51 33 -51 139v1170q2 129 4 213t6 127q0 16 24.5 35.5t43.5 19.5q20 0 49 -27q45 -41 51 -45q66 -45 129 -45q57 0 127 35l92 68q16 12 37 25.5t47 29.5 q8 4 16.5 10t16.5 17l-8 6q-90 -47 -142 -47q-63 0 -147 47q-31 23 -59.5 44t-55.5 42q-117 -80 -221 -160q-37 -31 -108 -63q-8 -4 -37 -16.5t-78 -35.5v-16l17 -25q16 -24 18 -41q18 -102 18 -184q0 -16 -2 -18l-84 -76q-51 -45 -55 -72q25 -12 67 -12l64 2v-858l-25 -354 q-4 -59 -53 -113q-53 -55 -108 -55q-37 0 -56 12q-4 4 -13 15.5t-19 27.5q-25 -6 -47.5 -36t-22.5 -56zM606 1057q8 -8 29 -8l125 14q37 0 37 -33v-694q0 -20 -25 -121q-10 -51 -16 -65.5t-6 6.5l1 -3t3 -10q20 6 34 19q8 -4 15 -10q47 -96 129 -164q8 -12 37 -13 q29 0 94 54q61 53 90 77q0 6 2 9l-12 8q-49 -6 -154 135q-27 37 -24 150l6 325q2 115 3 197t1 135q20 4 34.5 5t24.5 3q18 6 80 62q62 57 62 69q0 6 -5 10q-66 -6 -84 -6q-16 0 -46.5 4.5t-47.5 4.5l-8 4v84v34q0 16 -2 27h-10q-33 -27 -64.5 -50.5t-62.5 -43.5 q-41 -27 -77 -44.5t-67 -25.5q-10 -16 -23 -37.5t-34 -48.5q-16 -23 -26.5 -34t-12.5 -15v-10z" />
<glyph unicode="&#xff;" horiz-adv-x="948" d="M16 -303q0 -82 74 -137q63 -49 152 -49q166 0 325 129q188 152 248 297q29 68 29 155q0 47 -31 152q-29 109 -29 151v512q0 8 13 37q66 53 111.5 94t70.5 68v14l-8 4h-13l-9 -4t-21.5 -9t-25.5 -9t-25 -4q-35 0 -82 20q-4 2 -54 31q-35 18 -47 18q-33 0 -106 -67 q-72 -66 -72 -84q4 -4 4 -6q4 0 13.5 1t13.5 1q23 0 76 -51q0 4 0 -3q0 -4 2 -18v-14l-2 -490q0 -268 -97 -268q-59 0 -166 104q-16 16 -16 33q4 399 0 545q0 31 14 80l13 51q0 14 -54 90q-47 70 -61 78q-16 12 -41 12q-45 0 -149 -149q-4 -8 -5 -21q57 -2 93 -63 q27 -45 26 -105v-493q0 -100 -35 -142v-12q35 -33 60.5 -56.5t42.5 -39.5q72 -66 129 -66q47 0 125 74q57 53 89 84t40 37q14 -31 20 -64q31 -158 31 -213q0 -133 -66 -211q-72 -86 -200 -86q-96 0 -174 48q-82 51 -113 139q-4 18 6 72q0 6 -6 12q-18 -4 -39 -35 q-74 -109 -74 -174zM129 1470q0 -51 49 -84q41 -27 96 -26q94 0 215 135l-6 6q-41 -18 -80 -18q-82 0 -145 55q-23 23 -29 74q-31 -6 -59 -45q-41 -53 -41 -97zM565 1470q0 -49 47 -84q41 -27 97 -26q98 0 215 135l-6 6q-41 -18 -80 -18q-80 0 -144 55q-25 20 -30 74 q-31 -6 -60 -45q-39 -51 -39 -97z" />
<glyph unicode="&#x152;" horiz-adv-x="2004" d="M104 768q0 -113 37 -229q41 -127 107 -205q129 -152 235 -213q127 -78 301 -96q10 -2 19 -2h18q90 0 240 100q274 -106 366 -115l7 -6v-113h36v113l5 4q164 4 333 144q90 74 90 86v14h-12q-143 -90 -264 -90q-33 0 -152 22v668h201q10 0 22.5 -1t28.5 -3q4 -2 10.5 -4 t10.5 -6q10 -10 20.5 -17.5t18.5 -15.5q18 68 53 145q14 37 18 49q0 8 -4 9h-10q-53 -16 -149 -17q-154 0 -185 -6q-10 -2 -35 4v406h-36v-422q-53 -68 -78 -90q-2 203 -3 314.5t-1 133.5q0 55 14 76q18 29 80 29q51 0 162 -35q104 -33 153 -33q47 0 72 8q49 14 94 53 q105 89 105 105q0 6 -4 10h-13q-47 -18 -94 -18q-55 0 -166 28q-109 31 -156 31q-57 0 -120 -41q-10 -6 -105 -80q-47 -37 -80 -90q-23 8 -56.5 22.5t-74.5 37.5q-33 20 -64.5 38.5t-64.5 36.5q-162 88 -157 158q-31 -16 -82 -84q-49 -68 -50 -100q0 -23 23 -72 q14 -27 22.5 -46.5t10.5 -29.5q25 -115 24 -266q0 -76 -6 -113q-18 -121 -57 -178q-27 -39 -70 -65q-55 -33 -80 -58q-20 -27 -33.5 -46t-23.5 -34q-18 -35 -18 -41q0 -14 38 -12q41 4 109 72q20 20 39.5 46t36.5 60q18 35 31.5 61.5t21.5 43.5q23 43 42 95t36 114 q39 135 39 239q0 39 -6 86q18 -8 31.5 -12t23.5 -8q125 -51 219 -162v-139q0 -10 -6 -6q-10 2 -18.5 3t-14.5 1q-96 0 -188 -152l4 -12q37 10 61 10q94 0 129 -84q18 -49 19 -153q0 -184 -51 -261q-23 -37 -68 -45q-23 -4 -39 -8t-27 -6q-23 -4 -74 -49t-51 -59v-15 q-70 14 -138 46t-138 79q-182 123 -250 275q-49 113 -49 294q0 150 51 347q16 41 30.5 72.5t25.5 52.5q6 14 19 33.5t28.5 38t32 32.5t28.5 20q74 31 74 43v11q-4 4 -8.5 7t-6.5 5q-37 -14 -49 -23q-82 -61 -133 -102t-72 -61q-215 -219 -215 -582zM1122 309q162 98 199 256 q6 25 11 75t9 128q2 55 7 66q10 16 53 16h33v-660l-21 7q-20 0 -145 49q-131 51 -146 63z" />
<glyph unicode="&#x153;" horiz-adv-x="1079" d="M96 166q0 -8 4 -12h29q117 -172 170 -172q18 0 109 77q45 39 74.5 65t43.5 38q20 -31 23 -33q53 -51 95 -87t71 -58q39 27 66.5 46t43.5 31q35 23 62.5 43.5t50.5 36.5q94 74 94 117q0 33 -31 33q-20 0 -28 -15q-10 -29 -16.5 -47t-10.5 -26q-25 -55 -69 -56 q-20 0 -68 35q-111 86 -119 115q-8 18 -8 74v39q0 25 2 55q2 33 2 55v37v391q0 12 6 41q4 18 24.5 40t39.5 22q37 0 71 -80q23 -55 27 -86q2 -6 2 -41q0 -115 -61 -191q-10 -10 -17.5 -17t-11.5 -11q-59 -35 -59 -54q0 -12 10 -22h10q12 0 59 49q18 20 31.5 34.5t24.5 24.5 q186 178 186 301q0 53 -47 189q-14 39 -59 39q-29 0 -123 -68q-35 -27 -62.5 -45t-44.5 -31q-18 -10 -22 -12q-84 39 -123 62q-78 37 -111 79q-6 8 -18 9l-15 -4q-45 -39 -75.5 -66t-48.5 -43q-27 -18 -46.5 -31.5t-31.5 -23.5q-49 -35 -72 -68q-6 -10 -4 -22.5t3 -19.5 t1 -11v-502q0 -47 -2 -87t-6 -69q-16 -55 -25 -67zM289 373v661q115 -88 207 -121q12 -23 12 -32v-467q0 -57 -3 -113.5t-11 -112.5q-18 -47 -50 -47q-16 0 -63 39q-92 76 -92 193z" />
<glyph unicode="&#x178;" horiz-adv-x="1701" d="M8 942q0 -55 35 -102q37 -49 90 -49q31 0 41 12q94 119 94 137v16q-4 0 -11 -2t-11 -2q-23 0 -52.5 24.5t-37.5 47.5q-16 43 -17 102q0 141 94 236q94 98 234 98q156 0 238 -100q63 -76 63 -260q0 -82 -12 -127l-41 10q-57 0 -123 -47q-55 -41 -90 -100q12 -4 14 -5 q10 2 19.5 3.5t19.5 1.5q150 0 150 -113q0 -31 -6.5 -78t-20.5 -110q-25 -127 -25 -189q0 -102 37 -184q51 -119 166 -119q90 0 186 74q33 27 77 74t102 112l39 49q6 -37 6 -114q0 -227 -33 -324q-45 -147 -78 -188q-57 -76 -178 -76q-209 0 -381 135q-109 86 -109 174 q0 41 15 53q12 10 18 16.5t8 8.5l-22 6q-31 -23 -88 -102q-59 -90 -60 -125q0 -104 185 -211q156 -92 239 -92q115 0 181 34q135 76 245 185q127 127 164 241q51 147 51 320v829q0 121 25 193q25 74 129 106q59 20 104 33.5t74 24.5q18 6 75.5 45t57.5 51v24h-24 q-16 0 -66 -51q-27 -27 -125 -26l-96 8q-82 4 -96 6q-84 0 -142 -31q-10 -4 -52 -32.5t-118 -79.5l7 -13q80 39 143 35q35 -2 70.5 -3t74.5 -5q-197 -152 -196 -274v-549q0 -88 -21 -142q-14 -45 -31.5 -77.5t-37.5 -55.5q-94 -100 -191 -100q-90 0 -141 86q-45 76 -45 170 q0 70 47 289q78 365 78 495q0 156 -70 250q-78 111 -223 111q-164 0 -357 -168q-180 -160 -239 -324q-29 -80 -29 -176zM733 1837q0 -47 47 -82q45 -29 97 -29q98 1 215 138l-2 2q0 2 -3 4q-41 -20 -81 -21q-80 0 -144 58q-23 20 -31 73q-31 -10 -59 -47q-39 -51 -39 -96z M1167 1837q0 -49 50 -82q45 -29 96 -29q96 1 215 138l-6 6q-41 -20 -80 -21q-82 0 -146 58q-23 20 -30 73q-33 -10 -58 -47q-41 -53 -41 -96z" />
<glyph unicode="&#x2c6;" horiz-adv-x="671" d="M16 1321l4 -8h17q43 0 65 20q74 82 101 129q39 51 71.5 106.5t59.5 119.5q16 -35 36.5 -72t47.5 -78q12 -20 36.5 -55t59.5 -86q59 -84 121 -84h16q2 2 3 4t3 4q-18 27 -40.5 68t-49.5 100q-55 119 -92 203q-14 33 -28.5 67.5t-30.5 73.5q-72 -39 -164 -33 q-12 -29 -24.5 -55.5t-22.5 -52.5q-53 -127 -100.5 -219.5t-88.5 -151.5z" />
<glyph unicode="&#x2dc;" horiz-adv-x="645" d="M18 1384l29 -26q76 123 121 123q27 0 117 -72q76 -57 133 -57q63 0 108 57q29 35 54.5 70.5t48.5 70.5l-31 25q-55 -82 -90 -82q-37 0 -160 86q-90 61 -104 61q-61 0 -138 -122q-16 -27 -37.5 -60t-50.5 -74z" />
<glyph unicode="&#x2000;" horiz-adv-x="1120" />
<glyph unicode="&#x2001;" horiz-adv-x="2241" />
<glyph unicode="&#x2002;" horiz-adv-x="1120" />
<glyph unicode="&#x2003;" horiz-adv-x="2241" />
<glyph unicode="&#x2004;" horiz-adv-x="747" />
<glyph unicode="&#x2005;" horiz-adv-x="560" />
<glyph unicode="&#x2006;" horiz-adv-x="373" />
<glyph unicode="&#x2007;" horiz-adv-x="373" />
<glyph unicode="&#x2008;" horiz-adv-x="280" />
<glyph unicode="&#x2009;" horiz-adv-x="448" />
<glyph unicode="&#x200a;" horiz-adv-x="124" />
<glyph unicode="&#x2010;" horiz-adv-x="849" d="M53 467l3 -12t1 -9q45 51 72 66q33 20 96 16l301 -20q80 -4 129 41q25 21 142 164v18q-70 -80 -224 -74l-290 15q-74 2 -140 -70q-33 -37 -90 -135z" />
<glyph unicode="&#x2011;" horiz-adv-x="849" d="M53 467l3 -12t1 -9q45 51 72 66q33 20 96 16l301 -20q80 -4 129 41q25 21 142 164v18q-70 -80 -224 -74l-290 15q-74 2 -140 -70q-33 -37 -90 -135z" />
<glyph unicode="&#x2012;" horiz-adv-x="849" d="M53 467l3 -12t1 -9q45 51 72 66q33 20 96 16l301 -20q80 -4 129 41q25 21 142 164v18q-70 -80 -224 -74l-290 15q-74 2 -140 -70q-33 -37 -90 -135z" />
<glyph unicode="&#x2013;" horiz-adv-x="1167" d="M104 467q2 -8 3.5 -12t1.5 -9q23 27 40 42.5t31 23.5q39 18 96 16l517 -20q76 -4 129 43q32 27 141 162v18q-68 -76 -223 -74l-506 15q-76 2 -139 -70q-33 -37 -91 -135z" />
<glyph unicode="&#x2014;" horiz-adv-x="1484" d="M104 467q2 -8 3.5 -12t1.5 -9q45 51 71 66q35 18 96 16l834 -20q76 -4 129 43q35 27 141 162v18q-45 -53 -120 -69q-14 -2 -39 -3.5t-64 -1.5l-823 15q-78 0 -139 -70q-33 -37 -91 -135z" />
<glyph unicode="&#x2018;" horiz-adv-x="499" d="M119 1399q0 -66 162 -289l16 10q-39 78 -39 152q0 170 123 268q-109 63 -129 82q-27 -16 -51.5 -41t-43 -55.5t-28.5 -63t-10 -63.5z" />
<glyph unicode="&#x2019;" horiz-adv-x="499" d="M119 1540q123 -98 123 -268q0 -74 -39 -152l16 -10q162 223 162 289q0 59 -41 125q-41 70 -90 98q-41 -27 -73 -46.5t-58 -35.5z" />
<glyph unicode="&#x201a;" horiz-adv-x="499" d="M119 150q123 -102 123 -269q0 -72 -39 -151l16 -9q162 219 162 285q0 31 -11.5 63.5t-29.5 63.5t-42 55.5t-48 40.5q-41 -27 -73 -46t-58 -33z" />
<glyph unicode="&#x201c;" horiz-adv-x="800" d="M80 1399q0 -66 160 -289l16 10q-37 76 -37 152q0 172 123 268q-106 61 -131 82q-27 -16 -50.5 -41t-42 -55.5t-28.5 -63t-10 -63.5zM459 1399q0 -66 162 -289l16 10q-39 76 -39 152q0 170 123 268q-53 33 -87 53.5t-44 28.5q-27 -16 -50.5 -41t-42 -55.5t-28.5 -63 t-10 -63.5z" />
<glyph unicode="&#x201d;" horiz-adv-x="800" d="M80 1540q121 -98 121 -268q0 -76 -37 -152l16 -10q162 223 162 289q0 59 -41 125q-41 70 -90 98q-41 -27 -74 -46.5t-57 -35.5zM459 1540q121 -96 121 -268q0 -76 -37 -152l16 -10q162 223 162 289q0 59 -41 125q-41 70 -90 98q-41 -27 -73 -46.5t-58 -35.5z" />
<glyph unicode="&#x201e;" horiz-adv-x="800" d="M80 150q121 -102 121 -269q0 -72 -37 -151l16 -9q162 219 162 285q0 31 -11.5 63.5t-29.5 63.5t-41.5 55.5t-48.5 40.5q-41 -27 -74 -46t-57 -33zM459 150q121 -98 121 -269q0 -72 -37 -151l16 -9q162 219 162 285q0 31 -11.5 63.5t-29.5 63.5t-42 55.5t-48 40.5 q-41 -27 -73 -46t-58 -33z" />
<glyph unicode="&#x2022;" horiz-adv-x="1024" d="M240 643q0 -113 77 -194q80 -80 195 -80t193 80q79 79 79 194t-79 193q-78 80 -193 79q-115 0 -195 -79q-78 -78 -77 -193z" />
<glyph unicode="&#x2026;" horiz-adv-x="1499" d="M74 76q0 -45 53 -74q39 -18 92 -18q49 0 148 34q51 23 59 39q-12 14 -18 25q-23 -23 -48 -23q-47 0 -88 47q-37 43 -36 95q0 12 2 18l-7 6q-158 -127 -157 -149zM573 76q0 -45 54 -74q39 -18 94 -18q47 0 145 34q50 23 62 39q-12 12 -21 25q-23 -23 -47 -23q-47 0 -88 47 q-37 43 -37 95q0 12 2 18l-6 6q-158 -127 -158 -149zM1073 76q0 -45 53 -74q39 -18 95 -18q51 0 145 34q49 23 61 39q-12 12 -20 25q-23 -23 -47 -23q-47 0 -88 47q-35 45 -35 95v18l-6 6q-158 -127 -158 -149z" />
<glyph unicode="&#x202f;" horiz-adv-x="448" />
<glyph unicode="&#x2039;" horiz-adv-x="569" d="M100 623l240 -304h129l-238 304l232 295h-123z" />
<glyph unicode="&#x203a;" horiz-adv-x="569" d="M100 918l238 -304l-232 -295h123l240 295l-240 304h-129z" />
<glyph unicode="&#x205f;" horiz-adv-x="560" />
<glyph unicode="&#x2122;" horiz-adv-x="997" d="M14 1462q0 -14 13 -14q6 0 8 2q-2 10 -2 18q4 16 14 31q31 37 115 37q16 0 35.5 -1t44.5 -3q-2 -8 -2 -16v-17l4 -135q2 -72 -15 -102q-10 -16 -18 -25v-6q2 0 4 -2q10 10 17.5 18t15.5 17q27 39 31 43q14 39 12 96l-6 115q0 6 2 10q8 -2 15 -3t17 -3v-363 q-57 14 -104 60q-53 53 -53 145q0 59 14 109q6 14 12 20l13 12q4 4 6 8.5t4 6.5q0 4 -6 4q-16 -10 -33 -29q-41 -45 -47 -59q-14 -37 -14 -99q0 -43 18 -98q12 -39 58 -79t132 -56v-47h9v45l12 -2q29 0 45 12q8 4 20.5 17.5t28.5 33.5l-2 2q-33 -16 -47 -16q-31 0 -57 6v365 q20 -2 36.5 -3t30.5 -1q68 0 123 49q4 4 4 8q0 2 -4 6q-2 -2 -4 -2q-6 -2 -12 -8l-8 -8q-16 -10 -37 -11q-47 0 -129 13v30h-9v-28l-32 6l6 12q8 14 8 12q-4 4 -6 4q-8 -8 -15.5 -14t-15.5 -12q-12 0 -37.5 3t-38.5 3q-59 0 -153 -78q-20 -14 -21 -39zM446 1151 q0 -57 35 -57q29 0 66 49q29 41 39 77.5t10 65.5l-2 144q-2 29 8 67q6 20 23 21q10 0 26 -9q53 -23 54 -90v-63q-18 -8 -33 -8q-35 -16 -39 -35q10 2 19.5 3t15.5 1h37v-47q0 -35 -1.5 -59.5t-3.5 -36.5q-4 -4 -5 -8.5t-3 -8.5q0 -8 17 -37q14 -27 22 -26q14 0 57 51l-4 4 q-8 -4 -10 -4q-23 0 -20 69v68q2 10 2 18v17q2 0 4 2q6 2 14 4t19 6v-237h8v241q8 4 13 10.5t9 10.5v4l-14 -4h-8v143q12 14 24 14q6 0 12.5 -1t14.5 -3q20 -8 35 -12l2 -2q-6 -6 -10 -27v-280q-2 -23 -3.5 -30t-1.5 1q0 -10 20.5 -36.5t29.5 -26.5q12 0 32 26 q10 12 14.5 19.5t6.5 11.5q-12 -4 -14 -4q-6 0 -18.5 13.5t-14.5 19.5q-2 10 -2 37v245l2 6q2 7 4 16t5 17t7 12l25 25q12 15 16 27h-6q-14 -14 -37 -15l-76 13q-29 4 -67 -41v37h-8v-52l-2 -2q-8 -23 -31 -45l-2 2q-4 14 -6 17q-2 27 -28 55.5t-50 28.5q-10 0 -41 -13 q-10 0 -30.5 6.5t-31.5 6.5q-25 0 -45 -13q-43 -29 -43 -47q0 -6 6 -6l3 2q2 20 26 21q8 0 55 -13q2 0 5 2h6q6 0 8 -2q-18 -25 -27 -47l-4 -12q-8 -31 -8 -68q-6 -4 -10 -5t-8 -3q-27 -16 -41 -37q-8 -8 -9 -12v-2l2 -2q16 8 25 8q45 0 45 -63q0 -8 -2 -27.5t-6 -48.5 q-2 -31 -21 -41q-2 -2 -20 -2q-14 0 -21 2q-35 20 -36 31q-4 -12 -5 -27zM756 1356q2 6 2 12q2 78 33 115l2 4v-133q-12 -2 -23 -2h-12q0 2 -2 4z" />
<glyph unicode="&#x25fc;" horiz-adv-x="1177" d="M0 0v1178h1178v-1178h-1178z" />
</font>
</defs>
</svg>
